<?xml version="1.0" standalone="no"?>
<!DOCTYPE svg PUBLIC "-//W3C//DTD SVG 1.1//EN" "http://www.w3.org/Graphics/SVG/1.1/DTD/svg11.dtd" >
<svg>
<metadata>
Created by FontForge 20090914 at Thu Apr 21 03:03:36 2016
 By www-data
Keep Calm (version 1.3)  by Keith Bates       &#194;&#169; 2011   www.k-type.com       keith@k-type.com 
</metadata>
<defs>
<font id="KeepCalm-Medium" horiz-adv-x="687" >
  <font-face 
    font-family="Keep Calm Med"
    font-weight="500"
    font-stretch="normal"
    units-per-em="1000"
    panose-1="0 0 0 0 0 0 0 0 0 0"
    ascent="800"
    descent="-200"
    x-height="578"
    cap-height="799"
    bbox="-150 -308.001 1344 1263"
    underline-thickness="50"
    underline-position="-50"
    unicode-range="U+0009-U+FB02"
  />
<missing-glyph horiz-adv-x="500" 
d="M63 0v800h375v-800h-375v0zM125 63h250v675h-250v-675v0z" />
    <glyph glyph-name=".notdef" horiz-adv-x="500" 
d="M63 0v800h375v-800h-375v0zM125 63h250v675h-250v-675v0z" />
    <glyph glyph-name="NULL" horiz-adv-x="0" 
 />
    <glyph glyph-name="NULL" horiz-adv-x="0" 
 />
    <glyph glyph-name="HT" unicode="&#x9;" horiz-adv-x="1000" 
 />
    <glyph glyph-name="LF" unicode="&#xa;" horiz-adv-x="1000" 
 />
    <glyph glyph-name="nonmarkingreturn" unicode="&#xd;" horiz-adv-x="1000" 
 />
    <glyph glyph-name="DC1" horiz-adv-x="1000" 
 />
    <glyph glyph-name="DC2" horiz-adv-x="1000" 
 />
    <glyph glyph-name="DC3" horiz-adv-x="1000" 
 />
    <glyph glyph-name="RS" horiz-adv-x="1000" 
 />
    <glyph glyph-name="US" horiz-adv-x="1000" 
 />
    <glyph glyph-name="space" unicode=" " horiz-adv-x="315" 
 />
    <glyph glyph-name="exclam" unicode="!" horiz-adv-x="273" 
d="M233 800l-42 -578h-89l-42 578h173zM221 0h-149v149h149v-149z" />
    <glyph glyph-name="quotedbl" unicode="&#x22;" horiz-adv-x="405" 
d="M380 830l-29 -286h-96l-29 286h154zM184 830l-29 -286h-96l-29 286h154z" />
    <glyph glyph-name="numbersign" unicode="#" horiz-adv-x="754" 
d="M714 210h-172l-45 -210h-119l44 210h-169l-44 -210h-120l44 210h-93v118h118l30 144h-148v116h171l45 211h119l-43 -211h169l45 211h117l-43 -211h94v-116h-119l-29 -144h148v-118zM477 472h-170l-30 -144h170z" />
    <glyph glyph-name="dollar" unicode="$" horiz-adv-x="604" 
d="M564 211c0 -26 -5.33203 -51.335 -15.999 -76.002s-25.167 -47 -43.5 -67s-40.166 -36.833 -65.499 -50.5s-52.666 -22.834 -81.999 -27.501v-1v-94h-91v93c-24.667 1.33301 -47.167 4.33301 -67.5 9s-39.5 11 -57.5 19s-35.167 17.667 -51.5 29
s-32.833 24.666 -49.5 39.999l87 103c43.333 -36.667 91.333 -58 144 -64v211l-8 3c-27.333 9.33301 -53.5 21 -78.5 35s-47.333 30.833 -67 50.5s-35.334 43 -47.001 70s-17.5 58.167 -17.5 93.5c0 30 5.66699 58 17 84s26.666 48.833 45.999 68.5
s41.833 35.834 67.5 48.501s53.167 21 82.5 25v64h91v-64c37.333 -5.33301 71.166 -15.166 101.499 -29.499s56.5 -32.5 78.5 -54.5l-87 -101c-14.667 15.333 -30.167 27 -46.5 35s-33.5 13.667 -51.5 17v-207v-5c73.333 -25.333 127 -59.166 161 -101.499
s51 -94.166 51 -155.499zM271.001 499.998v175c-18.667 -7.33301 -34.5 -18.166 -47.5 -32.499s-19.5 -30.833 -19.5 -49.5c0 -22 4.66699 -39.833 14 -53.5s27 -26.834 53 -39.501zM412.001 208.998c0 19.333 -4.16895 36.1689 -12.502 50.502
s-24.166 28.166 -47.499 41.499v-171c18.667 7.33301 33.334 18.166 44.001 32.499s16 29.833 16 46.5z" />
    <glyph glyph-name="percent" unicode="%" horiz-adv-x="934" 
d="M894 182c0 -27.333 -5.33301 -53.166 -16 -77.499s-25 -45.5 -43 -63.5s-39.167 -32.333 -63.5 -43s-50.166 -16 -77.499 -16c-28 0 -54.167 5.33301 -78.5 16s-45.5 25 -63.5 43s-32.167 39.167 -42.5 63.5s-15.5 50.166 -15.5 77.499c0 28 5.16699 54.167 15.5 78.5
s24.5 45.5 42.5 63.5s39.167 32.167 63.5 42.5s50.5 15.5 78.5 15.5c27.333 0 53.166 -5.16699 77.499 -15.5s45.5 -24.5 63.5 -42.5s32.333 -39.167 43 -63.5s16 -50.5 16 -78.5zM440 616c0 -27.333 -5.33301 -53.166 -16 -77.499s-25 -45.5 -43 -63.5
s-39.167 -32.333 -63.5 -43s-50.166 -16 -77.499 -16s-53.166 5.33301 -77.499 16s-45.5 25 -63.5 43s-32.333 39.167 -43 63.5s-16 50.166 -16 77.499s5.33301 53.166 16 77.499s25 45.5 43 63.5s39.167 32.333 63.5 43s50.166 16 77.499 16s53.166 -5.33301 77.499 -16
s45.5 -25 63.5 -43s32.333 -39.167 43 -63.5s16 -50.166 16 -77.499zM783 800l-536 -846h-125l536 846h125zM774 182c0 22 -7.83301 40.833 -23.5 56.5s-34.5 23.5 -56.5 23.5s-40.833 -7.83301 -56.5 -23.5s-23.5 -34.5 -23.5 -56.5s7.83301 -40.833 23.5 -56.5
s34.5 -23.5 56.5 -23.5s40.833 7.83301 56.5 23.5s23.5 34.5 23.5 56.5zM320 616c0 22 -7.83301 40.833 -23.5 56.5s-34.5 23.5 -56.5 23.5s-40.833 -7.83301 -56.5 -23.5s-23.5 -34.5 -23.5 -56.5s7.83301 -40.833 23.5 -56.5s34.5 -23.5 56.5 -23.5
s40.833 7.83301 56.5 23.5s23.5 34.5 23.5 56.5z" />
    <glyph glyph-name="ampersand" unicode="&#x26;" horiz-adv-x="747" 
d="M727 81l-96 -95.998l-68 77c-15.333 -13.333 -30.333 -24.833 -45 -34.5s-30.5 -17.667 -47.5 -24s-36.167 -11 -57.5 -14s-46 -4.5 -74 -4.5c-36 0 -69.833 6.5 -101.5 19.5s-59.167 30.5 -82.5 52.5s-41.666 48 -54.999 78s-20 62 -20 96
c0 43.333 12.5 81.833 37.5 115.5s61.5 65.5 109.5 95.5c-30 35.333 -51.333 66.166 -64 92.499s-19 51.5 -19 75.5c0 28.667 5.83301 55.167 17.5 79.5s27.667 45.5 48 63.5s44.166 32 71.499 42s56.666 15 87.999 15c32 0 61.833 -5.33301 89.5 -16s51.667 -25.5 72 -44.5
s36.333 -41.167 48 -66.5s17.5 -53 17.5 -83c0 -39.333 -12.667 -73.666 -38 -102.999s-64.666 -59.666 -117.999 -90.999l111 -128c4 9.33301 7 19.166 9 29.499s3.66699 20.5 5 30.5h138c-3.33301 -34.667 -9.83301 -66.834 -19.5 -96.501s-20.5 -54.834 -32.5 -75.501z
M462 612.002c0 22 -8.83203 39.834 -26.499 53.501s-38.167 20.5 -61.5 20.5c-24.667 0 -45.667 -7.33301 -63 -22s-26 -33 -26 -55c0 -11.333 2.66699 -22.333 8 -33s14.666 -23.334 27.999 -38.001l35 -37c30 13.333 55.167 29 75.5 47s30.5 39.333 30.5 64z
M470.001 167.003l-160 180.003c-27.333 -16.667 -46.833 -34.334 -58.5 -53.001s-17.5 -39.667 -17.5 -63c0 -14.667 3 -28.334 9 -41.001s14 -23.834 24 -33.501s21.833 -17.334 35.5 -23.001s28.167 -8.5 43.5 -8.5c20.667 0 40.5 2.33301 59.5 7s40.5 16.334 64.5 35.001
z" />
    <glyph glyph-name="quotesingle" unicode="'" horiz-adv-x="199" 
d="M179 830l-29 -286h-97l-28 286h154z" />
    <glyph glyph-name="parenleft" unicode="(" horiz-adv-x="379" 
d="M394 -277l-121.002 -0.00195312c-34.667 44 -65.667 87.333 -93 130s-50.666 86.667 -69.999 132s-34.166 93 -44.499 143s-15.5 104.667 -15.5 164c0 58.667 5.16699 112.834 15.5 162.501s25.166 97.167 44.499 142.5s42.666 89.333 69.999 132s58.333 86.667 93 132
h117c-31.333 -50 -58.166 -96.5 -80.499 -139.5s-40.666 -86.167 -54.999 -129.5s-25 -89.333 -32 -138s-10.5 -104 -10.5 -166c0 -106.667 15.333 -206.167 46 -298.5s76 -181.166 136 -266.499z" />
    <glyph glyph-name="parenright" unicode=")" horiz-adv-x="379" 
d="M329 293c0 -57.333 -5.33398 -111.171 -16.001 -161.504s-25.667 -98.666 -45 -144.999s-42.666 -91.166 -69.999 -134.499s-58 -86.333 -92 -129h-118c31.333 50 58.333 96.5 81 139.5s41.167 86.333 55.5 130s25 89.667 32 138s10.5 103.166 10.5 164.499
c0 106.667 -15.333 206.334 -46 299.001s-76 181.667 -136 267h121c33.333 -42 63.666 -84.667 90.999 -128s50.833 -88.166 70.5 -134.499s34.834 -94.666 45.501 -144.999s16 -103.833 16 -160.5z" />
    <glyph glyph-name="asterisk" unicode="*" horiz-adv-x="485" 
d="M455 535l-59 -101l-50 38l-56 32v-59l8 -67h-116l7 65v60l-51 -30l-50 -39l-58 100l51 23l59 34l-53 30l-57 25l58 102l53 -40l48 -29v61l-7 60h116l-8 -62v-61l51 30l55 41l59 -102l-63 -26l-51 -30l47 -28z" />
    <glyph glyph-name="plus" unicode="+" horiz-adv-x="686" 
d="M636 301h-214v-225h-149v225h-213v149h213v225h149v-225h214v-149z" />
    <glyph glyph-name="comma" unicode="," horiz-adv-x="249" 
d="M209 0c0 -16 -2.33398 -31.166 -7.00098 -45.499s-11.5 -27 -20.5 -38s-20.333 -19.667 -34 -26s-29.5 -9.5 -47.5 -9.5c-6.66699 0 -13.167 0.666992 -19.5 2s-12.166 2.66602 -17.499 3.99902v11c19.333 3.33301 35 12.333 47 27s18 31.667 18 51
c0 3.33301 -0.333008 7.33301 -1 12s-1.66699 8.66699 -3 12h-64v149h149v-149z" />
    <glyph glyph-name="hyphen" unicode="-" horiz-adv-x="374" 
d="M344 260h-314v134h314v-134z" />
    <glyph glyph-name="period" unicode="." horiz-adv-x="253" 
d="M213 0h-153v153h153v-153z" />
    <glyph glyph-name="slash" unicode="/" horiz-adv-x="314" 
d="M334 871l-231 -928h-123l231 928h123z" />
    <glyph glyph-name="zero" unicode="0" horiz-adv-x="792" 
d="M742 391c0 -49.333 -7.6709 -98.332 -23.0039 -146.999s-37.666 -92.167 -66.999 -130.5s-65.166 -69.333 -107.499 -93s-90.166 -35.5 -143.499 -35.5s-101 11.833 -143 35.5s-77.667 54.667 -107 93s-51.833 81.833 -67.5 130.5s-23.5 97.667 -23.5 147
c0 51.333 7.33301 102.333 22 153s36.167 96.334 64.5 137.001s63.833 73.5 106.5 98.5s92 37.5 148 37.5s105.167 -12.667 147.5 -38s77.833 -58.333 106.5 -99s50.334 -86.334 65.001 -137.001s22 -101.334 22 -152.001zM579.996 391.001
c0 28 -2.83301 58.6689 -8.5 92.002s-15.5 64.333 -29.5 93s-32.5 52.667 -55.5 72s-51.5 29 -85.5 29c-32.667 0 -60.334 -9.83301 -83.001 -29.5s-41.167 -44 -55.5 -73s-24.666 -60.167 -30.999 -93.5s-9.5 -63.333 -9.5 -90c0 -28 3.33301 -57.5 10 -88.5
s17.167 -59.833 31.5 -86.5s32.833 -48.667 55.5 -66s50 -26 82 -26s59.333 8.66699 82 26s41.167 39.166 55.5 65.499s24.833 55.166 31.5 86.499s10 61 10 89z" />
    <glyph glyph-name="one" unicode="1" horiz-adv-x="424" 
d="M324 0h-154v627l-130 -50v131l284 106v-814z" />
    <glyph glyph-name="two" unicode="2" horiz-adv-x="678" 
d="M628 0l-588 0.000976562l308 365l36.5 45.5c12.333 15.667 23.5 31.834 33.5 48.501s18 33.167 24 49.5s9 32.166 9 47.499c0 35.333 -11.167 63.333 -33.5 84s-49.833 31 -82.5 31c-37.333 0 -70.666 -9.5 -99.999 -28.5s-54 -43.5 -74 -73.5l-108 107
c35.333 44.667 75.333 79 120 103s100 36 166 36c34.667 0 68.167 -5.16699 100.5 -15.5s61.166 -25.833 86.499 -46.5s45.666 -46.334 60.999 -77.001s23 -66 23 -106c0 -26.667 -3.66699 -52 -11 -76s-17.166 -47.167 -29.499 -69.5s-26.833 -44.333 -43.5 -66l-52 -66.5
l-114 -142h268v-150z" />
    <glyph glyph-name="three" unicode="3" horiz-adv-x="721" 
d="M661 242c0 -42 -7.83496 -79.1641 -23.502 -111.497s-36.667 -59.333 -63 -81s-57.166 -38 -92.499 -49s-72.666 -16.5 -111.999 -16.5c-68.667 0 -130 13.167 -184 39.5s-102.667 66.166 -146 119.499l107 108c12 -16.667 26 -32.334 42 -47.001s33.333 -27.5 52 -38.5
s38.5 -19.667 59.5 -26s42.167 -9.5 63.5 -9.5c18 0 35.167 2.5 51.5 7.5s30.666 12.333 42.999 22s22.333 21.667 30 36s11.5 31.166 11.5 50.499c0 24.667 -7 44.167 -21 58.5s-31.5 25.166 -52.5 32.499s-43.333 11.833 -67 13.5s-44.834 2.5 -63.501 2.5v112
c18 0 38 1 60 3s42.5 6.5 61.5 13.5s35 17.5 48 31.5s19.5 32.667 19.5 56c0 17.333 -3.33301 32.333 -10 45s-15.5 23.167 -26.5 31.5s-23.667 14.5 -38 18.5s-29.5 6 -45.5 6c-81.333 0 -145 -34 -191 -102l-108 107c40 48 83.167 83.167 129.5 105.5
s100.833 33.5 163.5 33.5c33.333 0 67 -5.16699 101 -15.5s64.833 -25.166 92.5 -44.499s50.167 -43.5 67.5 -72.5s26 -61.833 26 -98.5c0 -18.667 -3.16699 -36.5 -9.5 -53.5s-14.666 -32.667 -24.999 -47s-22.666 -27.333 -36.999 -39s-29.5 -21.5 -45.5 -29.5
c18 -6.66699 35 -15.667 51 -27s30 -24.5 42 -39.5s21.5 -31.333 28.5 -49s10.5 -36.5 10.5 -56.5z" />
    <glyph glyph-name="four" unicode="4" horiz-adv-x="695" 
d="M665 173h-113v-173h-153v173h-369v110l389 516h133v-493h113v-133zM399 306v266l-203 -265z" />
    <glyph glyph-name="five" unicode="5" horiz-adv-x="694" 
d="M654 270c0 -42 -7.83105 -80.5029 -23.498 -115.503s-36.834 -65 -63.501 -90s-57.834 -44.5 -93.501 -58.5s-73.5 -21 -113.5 -21c-57.333 0 -111.166 10.333 -161.499 31s-96.5 56.334 -138.5 107.001l106 107c7.33301 -9.33301 16.166 -19.5 26.499 -30.5
s22.333 -21.167 36 -30.5s29 -17.166 46 -23.499s36.167 -9.5 57.5 -9.5c24 0 45.833 3.5 65.5 10.5s36.667 16.5 51 28.5s25.5 26.333 33.5 43s12 34.667 12 54c0 21.333 -4.66699 40.333 -14 57s-21.833 30.834 -37.5 42.501s-33.834 20.5 -54.501 26.5
s-42.334 9 -65.001 9c-26 0 -50.167 -3.33301 -72.5 -10s-45.166 -18.667 -68.499 -36l-78 80l39 359l449 -1v-136h-328l-18 -151c16.667 8 35.834 13.833 57.501 17.5s42.167 5.5 61.5 5.5c42 0 80.667 -6.66699 116 -20s65.833 -31.833 91.5 -55.5s45.667 -51.667 60 -84
s21.5 -67.5 21.5 -105.5z" />
    <glyph glyph-name="six" unicode="6" horiz-adv-x="745" 
d="M685 249c0 -34 -7.66895 -66.8311 -23.002 -98.498s-36.166 -59.834 -62.499 -84.501s-57.666 -44.334 -93.999 -59.001s-75.5 -22 -117.5 -22c-40 0 -79 7.16699 -117 21.5s-72 37.666 -102 69.999s-54 74.833 -72 127.5s-27 117.667 -27 195
c0 62 7.83301 118.5 23.5 169.5s37.667 94.667 66 131s62.666 64.5 102.999 84.5s85.5 30 135.5 30c56.667 0 106 -10.167 148 -30.5s81.333 -52.5 118 -96.5l-104 -105c-18.667 28 -41.334 50.333 -68.001 67s-56.667 25 -90 25c-22.667 0 -43.667 -5.16699 -63 -15.5
s-36.166 -24.666 -50.499 -42.999s-25.5 -39.833 -33.5 -64.5s-12 -51 -12 -79c18 14 40.333 25.333 67 34s52.334 13 77.001 13c40 0 78 -6.66699 114 -20s67.667 -31.833 95 -55.5s49 -52 65 -85s24 -69.5 24 -109.5zM529.998 257.002c0 18 -3.66699 35 -11 51
s-17.5 29.833 -30.5 41.5s-28.333 21 -46 28s-36.834 10.5 -57.501 10.5c-20 0 -39.167 -3.5 -57.5 -10.5s-34.333 -16.333 -48 -28s-24.5 -25.5 -32.5 -41.5s-12 -33 -12 -51s4 -35 12 -51s18.833 -30 32.5 -42s29.667 -21.5 48 -28.5s37.5 -10.5 57.5 -10.5
c20.667 0 39.834 3.5 57.501 10.5s33 16.5 46 28.5s23.167 26 30.5 42s11 33 11 51z" />
    <glyph glyph-name="seven" unicode="7" horiz-adv-x="591" 
d="M601 800l-363 -800h-169l305 663h-354v137h581z" />
    <glyph glyph-name="eight" unicode="8" horiz-adv-x="740" 
d="M690 224c0 -42 -8.83008 -78.167 -26.4971 -108.5s-41 -55.166 -70 -74.499s-62 -33.666 -99 -42.999s-75.167 -14 -114.5 -14s-77.666 4.66699 -114.999 14s-70.5 23.666 -99.5 42.999s-52.167 44.166 -69.5 74.499s-26 66.5 -26 108.5c0 20 3.66699 40 11 60
s17.166 38.5 29.499 55.5s26.666 32 42.999 45s33.5 22.833 51.5 29.5c-16 8 -30.833 18 -44.5 30s-25.667 25.667 -36 41s-18.333 31.833 -24 49.5s-8.5 35.834 -8.5 54.501c0 36.667 8.83301 69.167 26.5 97.5s40.5 52 68.5 71s59.333 33.333 94 43s68.667 14.5 102 14.5
c34 0 67.833 -4.83301 101.5 -14.5s64.167 -24 91.5 -43s49.5 -42.667 66.5 -71s25.5 -60.833 25.5 -97.5c0 -18.667 -2.83301 -36.834 -8.5 -54.501s-13.667 -34.167 -24 -49.5s-22.333 -29 -36 -41s-28.5 -22 -44.5 -30c18 -6.66699 35.167 -16.5 51.5 -29.5
s30.666 -28 42.999 -45s22.166 -35.5 29.499 -55.5s11 -40 11 -60zM508.003 570c0 14 -3.33301 27.167 -10 39.5s-15.834 23.166 -27.501 32.499s-25.167 16.666 -40.5 21.999s-32 8 -50 8s-34.667 -2.66699 -50 -8s-28.833 -12.666 -40.5 -21.999
s-20.834 -20.166 -27.501 -32.499s-10 -25.5 -10 -39.5s3.33301 -27.167 10 -39.5s15.834 -23.166 27.501 -32.499s25.167 -16.666 40.5 -21.999s32 -8 50 -8s34.667 2.66699 50 8s28.833 12.666 40.5 21.999s20.834 20.166 27.501 32.499s10 25.5 10 39.5zM530.003 242
c0 16 -4 30.833 -12 44.5s-18.667 25.834 -32 36.501s-29.166 19 -47.499 25s-37.833 9 -58.5 9s-40.167 -3 -58.5 -9s-34.166 -14.333 -47.499 -25s-24 -22.834 -32 -36.501s-12 -28.5 -12 -44.5s4 -31 12 -45s18.667 -26.333 32 -37s29.166 -19 47.499 -25
s37.833 -9 58.5 -9s40.167 3 58.5 9s34.166 14.333 47.499 25s24 23 32 37s12 29 12 45z" />
    <glyph glyph-name="nine" unicode="9" horiz-adv-x="725" 
d="M675 400c0 -62 -7.83203 -118.503 -23.499 -169.503s-37.667 -94.667 -66 -131s-62.666 -64.5 -102.999 -84.5s-85.5 -30 -135.5 -30c-56.667 0 -106 10.167 -148 30.5s-81.333 52.5 -118 96.5l104 105c18.667 -28 41.334 -50.333 68.001 -67s56.667 -25 90 -25
c22.667 0 43.667 5.33301 63 16s36.166 25.167 50.499 43.5s25.5 39.833 33.5 64.5s12 50.667 12 78c-18 -14 -40.333 -25.333 -67 -34s-52.334 -13 -77.001 -13c-40 0 -78 6.66699 -114 20s-67.667 31.833 -95 55.5s-49 52 -65 85s-24 69.5 -24 109.5
c0 34 7.66699 66.833 23 98.5s36.166 59.834 62.499 84.501s57.5 44.334 93.5 59.001s75 22 117 22c40 0 79.167 -7.16699 117.5 -21.5s72.5 -37.666 102.5 -69.999s54 -75 72 -128s27 -117.833 27 -194.5zM510.001 541.997c0 18 -4 35 -12 51s-18.833 30 -32.5 42
s-29.667 21.5 -48 28.5s-37.5 10.5 -57.5 10.5c-20.667 0 -39.834 -3.5 -57.501 -10.5s-33 -16.5 -46 -28.5s-23.167 -26 -30.5 -42s-11 -33 -11 -51s3.66699 -35 11 -51s17.5 -29.833 30.5 -41.5s28.333 -21 46 -28s36.834 -10.5 57.501 -10.5c20 0 39.167 3.5 57.5 10.5
s34.333 16.333 48 28s24.5 25.5 32.5 41.5s12 33 12 51z" />
    <glyph glyph-name="colon" unicode=":" horiz-adv-x="253" 
d="M213 425h-153v153h153v-153zM213 0h-153v153h153v-153z" />
    <glyph glyph-name="semicolon" unicode=";" horiz-adv-x="253" 
d="M213 425h-153v153h153v-153zM211 0c0 -16 -2.33398 -31.166 -7.00098 -45.499s-11.5 -27 -20.5 -38s-20.333 -19.667 -34 -26s-29.5 -9.5 -47.5 -9.5c-6.66699 0 -13.167 0.666992 -19.5 2s-12.166 2.66602 -17.499 3.99902v11c19.333 3.33301 35 12.333 47 27
s18 31.667 18 51c0 3.33301 -0.333008 7.33301 -1 12s-1.66699 8.66699 -3 12h-64v149h149v-149z" />
    <glyph glyph-name="less" unicode="&#x3c;" horiz-adv-x="672" 
d="M622 76l-572 244v120l572 242v-144l-387 -158l387 -161v-143z" />
    <glyph glyph-name="equal" unicode="=" horiz-adv-x="712" 
d="M642 433h-572v134h572v-134zM642 189h-572v134h572v-134z" />
    <glyph glyph-name="greater" unicode="&#x3e;" horiz-adv-x="672" 
d="M622 318l-572 -242v143l387 159l-387 160v144l572 -244v-120z" />
    <glyph glyph-name="question" unicode="?" horiz-adv-x="564" 
d="M524 596c0 -25.333 -3.66797 -49.1699 -11.001 -71.5029s-17.666 -42.666 -30.999 -60.999s-29 -34.666 -47 -48.999s-37.333 -26.5 -58 -36.5l-52 -24c-16.667 -7.33301 -29.167 -17 -37.5 -29s-12.5 -30.333 -12.5 -55v-48h-143v49c0 30.667 2 56.5 6 77.5
s10 38.833 18 53.5s18.333 26.667 31 36s27.667 18 45 26l46 21c38 17.333 63.333 35.5 76 54.5s19 37.833 19 56.5c0 10.667 -2.66699 21.334 -8 32.001s-12.666 20 -21.999 28s-20.833 14.5 -34.5 19.5s-28.834 7.5 -45.501 7.5c-25.333 0 -49.5 -4.33301 -72.5 -13
s-44.167 -23.334 -63.5 -44.001l-87 101c27.333 27.333 60.666 49 99.999 65s83.333 24 132 24c35.333 0 68.333 -5.16699 99 -15.5s57.334 -25.166 80.001 -44.499s40.5 -42.5 53.5 -69.5s19.5 -57.167 19.5 -90.5zM277.999 -0.00390625h-149v149h149v-149z" />
    <glyph glyph-name="at" unicode="@" horiz-adv-x="1154" 
d="M1104 330c0 -37.333 -4.16797 -72.1621 -12.501 -104.495s-19.833 -61.5 -34.5 -87.5s-32 -49 -52 -69s-41.333 -36.667 -64 -50c-16.667 -9.33301 -37.334 -17 -62.001 -23s-50 -9 -76 -9c-31.333 0 -60.166 7.33301 -86.499 22s-45.166 35.334 -56.499 62.001
c-20 -28 -46.333 -49.333 -79 -64s-67.334 -22 -104.001 -22c-30 0 -58.167 5.5 -84.5 16.5s-49.333 26.833 -69 47.5s-35.167 45.334 -46.5 74.001s-17 61 -17 97c0 44.667 8.33301 89.167 25 133.5s39 84.166 67 119.499s60.833 64.166 98.5 86.499s77.5 33.5 119.5 33.5
c26 0 51.167 -4.16699 75.5 -12.5s45.5 -23.166 63.5 -44.499l9 42h130l-83 -410c-5.33301 -28 -2.66602 -48.5 8.00098 -61.5s25.667 -19.5 45 -19.5c25.333 0 49 5.16699 71 15.5s41.333 25.666 58 45.999s29.667 45.833 39 76.5s14 66.334 14 107.001
c0 56 -10.333 108.167 -31 156.5s-49.334 90.166 -86.001 125.499s-79.667 63.166 -129 83.499s-102.666 30.5 -159.999 30.5c-60.667 0 -117.667 -11.5 -171 -34.5s-99.833 -54.333 -139.5 -94s-71 -86.167 -94 -139.5s-34.5 -110.333 -34.5 -171s11.5 -117.667 34.5 -171
s54.333 -99.833 94 -139.5s86.167 -71 139.5 -94s110.333 -34.5 171 -34.5c49.333 0 93.833 6.66699 133.5 20s72.834 28.666 99.501 45.999l75 -71c-38.667 -28 -84.834 -51.5 -138.501 -70.5s-110.167 -28.5 -169.5 -28.5c-75.333 0 -146 14.167 -212 42.5
s-123.667 67.166 -173 116.499s-88.166 106.833 -116.499 172.5s-42.5 136.167 -42.5 211.5c0 74.667 14.167 145.167 42.5 211.5s67.166 124 116.499 173s107 87.833 173 116.5s136.667 43 212 43c71.333 0 138 -12.5 200 -37.5s116 -59.833 162 -104.5
s82.167 -97.834 108.5 -159.501s39.5 -128.834 39.5 -201.501zM684.999 426.004c-11.333 17.333 -26.6699 30.5 -46.0029 39.5s-40.333 13.5 -63 13.5c-28 0 -52.667 -8.33301 -74 -25s-39.166 -37.334 -53.499 -62.001s-25.333 -51.5 -33 -80.5s-11.5 -55.5 -11.5 -79.5
c0 -22.667 2.5 -42.167 7.5 -58.5s11.833 -29.666 20.5 -39.999s18.5 -18 29.5 -23s22.5 -7.5 34.5 -7.5c12.667 0 25.834 1.83301 39.501 5.5s26.834 9.33398 39.501 17.001s24.5 17.667 35.5 30s20.167 27.166 27.5 44.499z" />
    <glyph glyph-name="A" unicode="A" horiz-adv-x="887" 
d="M887 0h-170l-74 160h-388l-75 -160h-170l378 800h121zM582 289l-133 288l-135 -288h268z" />
    <glyph glyph-name="B" unicode="B" horiz-adv-x="680" 
d="M650 229c0 -33.333 -6.83203 -64.1719 -20.499 -92.5049s-31.834 -52.666 -54.501 -72.999s-48.834 -36.166 -78.501 -47.499s-60.834 -17 -93.501 -17l-323 1v800h288c34.667 0 66.834 -5.16699 96.501 -15.5s55.5 -25.333 77.5 -45s39.167 -43.667 51.5 -72
s18.5 -60.166 18.5 -95.499c0 -30 -6.66699 -59 -20 -87s-31 -51.667 -53 -71c17.333 -8.66699 32.833 -19.667 46.5 -33s25.334 -28.166 35.001 -44.499s17 -33.666 22 -51.999s7.5 -36.833 7.5 -55.5zM459.001 568.994c0 19.333 -3.66699 35.999 -11 49.999
s-17.166 25.667 -29.499 35s-26.5 16.333 -42.5 21s-32.667 7 -50 7h-91v-220c16.667 -0.666992 31.667 -1 45 -1h46c17.333 0 34 2 50 6s30.167 10.333 42.5 19s22.166 19.834 29.499 33.501s11 30.167 11 49.5zM489.001 237.993c0 16.667 -3.16797 31.999 -9.50098 45.999
s-15 25.833 -26 35.5s-23.667 17.167 -38 22.5s-29.833 8 -46.5 8c-22.667 0.666992 -45 0.833984 -67 0.500977s-44.333 -0.5 -67 -0.5v-221h116c16.667 0 33.334 2 50.001 6s31.5 10.5 44.5 19.5s23.5 20.333 31.5 34s12 30.167 12 49.5z" />
    <glyph glyph-name="C" unicode="C" horiz-adv-x="812" 
d="M812 144c-40 -48.667 -88.5 -87.3359 -145.5 -116.003s-119.833 -43 -188.5 -43c-59.333 0 -115 10.833 -167 32.5s-97.333 51.167 -136 88.5s-69.167 81.166 -91.5 131.499s-33.5 104.5 -33.5 162.5s11.167 112.167 33.5 162.5s52.833 94.333 91.5 132
s84 67.167 136 88.5s107.667 32 167 32c68.667 0 131.5 -14.333 188.5 -43s104.5 -66 142.5 -112l-107 -110c-24.667 35.333 -56.5 63.833 -95.5 85.5s-81.833 32.5 -128.5 32.5c-37.333 0 -72.5 -7.16699 -105.5 -21.5s-61.833 -33.666 -86.5 -57.999
s-44.167 -52.666 -58.5 -84.999s-21.5 -66.833 -21.5 -103.5c0 -36 7.16699 -70.167 21.5 -102.5s33.833 -60.666 58.5 -84.999s53.5 -43.666 86.5 -57.999s68.167 -21.5 105.5 -21.5c49.333 0 93 11.167 131 33.5s69.667 51.833 95 88.5z" />
    <glyph glyph-name="D" unicode="D" horiz-adv-x="831" 
d="M791 400c0 -55.333 -9.33301 -107.167 -28 -155.5s-44.667 -90.666 -78 -126.999s-73.166 -65 -119.499 -86s-96.833 -31.5 -151.5 -31.5h-334v800h334c54.667 0 105.167 -10.667 151.5 -32s86.166 -50 119.499 -86s59.333 -78.333 78 -127s28 -100.334 28 -155.001z
M634 403.999c0.666992 37.333 -5 72.667 -17 106s-29.333 62.5 -52 87.5s-50.5 44.667 -83.5 59s-70.167 21.5 -111.5 21.5h-135v-546h135c40.667 0 77.167 6.83301 109.5 20.5s59.833 32.667 82.5 57s40.167 53 52.5 86s18.833 69.167 19.5 108.5z" />
    <glyph glyph-name="E" unicode="E" horiz-adv-x="648" 
d="M608 0h-528v799h528v-128h-376v-191h371v-125h-371v-220h376v-135z" />
    <glyph glyph-name="F" unicode="F" horiz-adv-x="628" 
d="M608 666h-376v-186h371v-126h-371v-354h-152v799h528v-133z" />
    <glyph glyph-name="G" unicode="G" horiz-adv-x="856" 
d="M816 147c-22.667 -28 -47.3311 -52.1699 -73.998 -72.5029s-54.5 -37.166 -83.5 -50.499s-58.667 -23.166 -89 -29.499s-60.5 -9.5 -90.5 -9.5c-59.333 0 -115 10.667 -167 32s-97.333 50.666 -136 87.999s-69.334 81.333 -92.001 132s-34 105.334 -34 164.001
c0 57.333 11.167 111.166 33.5 161.499s53 94.166 92 131.499s84.5 66.833 136.5 88.5s107.667 32.5 167 32.5c68.667 0 131.167 -14 187.5 -42s104.166 -65.333 143.499 -112l-105 -107c-30 40.667 -63.667 69.834 -101 87.501s-79 26.5 -125 26.5
c-38 0 -73.667 -7 -107 -21s-62.5 -33.167 -87.5 -57.5s-44.667 -52.666 -59 -84.999s-21.5 -66.833 -21.5 -103.5c0 -37.333 7.16699 -72.166 21.5 -104.499s34 -60.833 59 -85.5s54.167 -44 87.5 -58s69 -21 107 -21c36 0 70 6.66699 102 20s60.667 31 86 53v77h-164v132
h313v-267z" />
    <glyph glyph-name="H" unicode="H" horiz-adv-x="775" 
d="M705 0h-155v354h-315v-354h-155v799h155v-317h315v317h155v-799z" />
    <glyph glyph-name="I" unicode="I" horiz-adv-x="305" 
d="M235 0h-155v799h155v-799z" />
    <glyph glyph-name="J" unicode="J" horiz-adv-x="581" 
d="M521 268c0 -54 -9.5 -99 -28.5 -135s-42.167 -65 -69.5 -87s-56.5 -37.667 -87.5 -47s-58.833 -14 -83.5 -14c-45.333 0 -88.5 10.667 -129.5 32s-75.167 49.666 -102.5 84.999l102 101c13.333 -21.333 30.666 -38 51.999 -50s43.333 -18 66 -18
c15.333 0 30.333 2.83301 45 8.5s27.834 13.834 39.501 24.501s21 23.667 28 39s10.5 33 10.5 53v539h158v-531z" />
    <glyph glyph-name="K" unicode="K" horiz-adv-x="747" 
d="M757 0h-202l-320 354v-354h-155v800h155v-357l327 357h184l-361 -393z" />
    <glyph glyph-name="L" unicode="L" horiz-adv-x="631" 
d="M621 0h-541v799h158v-649h383v-150z" />
    <glyph glyph-name="M" unicode="M" horiz-adv-x="948" 
d="M878 0h-152v534l-252 -425l-242 429v-538h-152v800h175l222 -397l232 397h169v-800z" />
    <glyph glyph-name="N" unicode="N" horiz-adv-x="815" 
d="M745 0h-152l-361 561v-561h-152v800h174l339 -522v522h152v-800z" />
    <glyph glyph-name="O" unicode="O" horiz-adv-x="939" 
d="M899 400c0 -57.333 -11.167 -111.331 -33.5 -161.998s-52.833 -94.667 -91.5 -132s-83.667 -66.833 -135 -88.5s-106 -32.5 -164 -32.5s-112.833 10.833 -164.5 32.5s-96.834 51.167 -135.501 88.5s-69.167 81.166 -91.5 131.499s-33.5 104.5 -33.5 162.5
s11.167 112.333 33.5 163s52.833 94.667 91.5 132s83.834 66.666 135.501 87.999s106.5 32 164.5 32s112.667 -10.667 164 -32s96.333 -50.833 135 -88.5s69.167 -81.667 91.5 -132s33.5 -104.5 33.5 -162.5zM743 400.002c0 36.667 -7 71.167 -21 103.5
s-33.167 60.666 -57.5 84.999s-52.833 43.666 -85.5 57.999s-67.334 21.5 -104.001 21.5c-37.333 0 -72.333 -7.16699 -105 -21.5s-61.167 -33.666 -85.5 -57.999s-43.5 -52.666 -57.5 -84.999s-21 -66.833 -21 -103.5c0 -36 7 -70.333 21 -103s33.167 -61.167 57.5 -85.5
s52.833 -43.666 85.5 -57.999s67.667 -21.5 105 -21.5c36.667 0 71.334 7.16699 104.001 21.5s61.167 33.666 85.5 57.999s43.5 52.833 57.5 85.5s21 67 21 103z" />
    <glyph glyph-name="P" unicode="P" horiz-adv-x="660" 
d="M640 531c0 -38 -7.16699 -73.5 -21.5 -106.5s-33.833 -61.667 -58.5 -86s-53.667 -43.333 -87 -57s-68.666 -20.5 -105.999 -20.5h-132v-261h-155v799h287c37.333 0 72.666 -6.83301 105.999 -20.5s62.333 -32.5 87 -56.5s44.167 -52.333 58.5 -85s21.5 -68 21.5 -106z
M486 533c0 20.667 -3.83301 40 -11.5 58s-18.167 33.667 -31.5 47s-29 24 -47 32s-37.333 12 -58 12h-103v-302h103c20.667 0 40 4.16699 58 12.5s33.667 19.5 47 33.5s23.833 30.167 31.5 48.5s11.5 37.833 11.5 58.5z" />
    <glyph glyph-name="Q" unicode="Q" horiz-adv-x="933" 
d="M893 400c0 -47.333 -7.49902 -92.1699 -22.499 -134.503s-36.5 -81.166 -64.5 -116.499l80 -79l-92 -92l-82 83c-34 -23.333 -71.333 -41.666 -112 -54.999s-83.667 -20 -129 -20c-58 0 -112.5 10.833 -163.5 32.5s-95.667 51.334 -134 89.001s-68.5 81.5 -90.5 131.5
s-33 103.667 -33 161s11 111.166 33 161.499s52.167 94.333 90.5 132s83 67.334 134 89.001s105.5 32.5 163.5 32.5s112.667 -10.833 164 -32.5s96.166 -51.334 134.499 -89.001s68.5 -81.667 90.5 -132s33 -104.166 33 -161.499zM742.001 399.996
c0 36.667 -7.16797 71.335 -21.501 104.002s-33.666 61.334 -57.999 86.001s-53 44.167 -86 58.5s-68.167 21.5 -105.5 21.5s-72.333 -7.16699 -105 -21.5s-61.334 -33.833 -86.001 -58.5s-44 -53.334 -58 -86.001s-21 -67.334 -21 -104.001s7 -71.334 21 -104.001
s33.333 -61.167 58 -85.5s53.334 -43.666 86.001 -57.999s67.667 -21.5 105 -21.5c25.333 0 49.5 3.33301 72.5 10s44.833 16 65.5 28l-75 73l92 92l74 -76c28 43.333 42 90.666 42 141.999z" />
    <glyph glyph-name="R" unicode="R" horiz-adv-x="697" 
d="M682 0h-170.998l-57 182c-6 20 -13.5 38.333 -22.5 55s-19.833 31 -32.5 43s-27.834 21.333 -45.501 28s-38.5 10 -62.5 10h-58v-318h-153v799l316 1c34 0 65.667 -5.83301 95 -17.5s54.666 -27.834 75.999 -48.501s38 -45 50 -73s18 -58.333 18 -91
c0 -23.333 -3.66699 -46 -11 -68s-17.666 -42.333 -30.999 -61s-29.166 -35.167 -47.499 -49.5s-38.5 -25.166 -60.5 -32.499c25.333 -9.33301 46 -22.833 62 -40.5s28.667 -38.834 38 -63.501c4.66699 -11.333 9 -22.666 13 -33.999l12.5 -35.5l14 -40l16.5 -47.5
c7.33301 -22 14.166 -40.833 20.499 -56.5s13.166 -29.5 20.499 -41.5zM479.002 559c0 18.667 -3.5 35.668 -10.5 51.001s-16.5 28.666 -28.5 39.999s-26.167 20.166 -42.5 26.499s-33.833 9.5 -52.5 9.5h-112v-249h112c18.667 0 36.167 2.83301 52.5 8.5
s30.5 13.834 42.5 24.501s21.5 23.5 28.5 38.5s10.5 31.833 10.5 50.5z" />
    <glyph glyph-name="S" unicode="S" horiz-adv-x="644" 
d="M614 210c0 -30 -6.50586 -58.498 -19.5059 -85.498s-31.167 -50.833 -54.5 -71.5s-51 -37.167 -83 -49.5s-67.333 -18.5 -106 -18.5c-34.667 0 -65.834 2 -93.501 6s-53.667 10.333 -78 19s-47.666 19.834 -69.999 33.501s-45.5 30.167 -69.5 49.5l110 111
c32 -26.667 63.333 -45.5 94 -56.5s64 -16.5 100 -16.5c14.667 0 28.5 2.16699 41.5 6.5s24.333 10.166 34 17.499s17.334 16 23.001 26s8.5 21 8.5 33c0 12.667 -2.33301 24 -7 34s-13 19.667 -25 29s-28.667 18.833 -50 28.5s-48.666 20.5 -81.999 32.5
c-29.333 10.667 -57.5 22.834 -84.5 36.501s-50.667 30.167 -71 49.5s-36.666 42 -48.999 68s-18.5 56.667 -18.5 92c0 34 6.83301 65.333 20.5 94s32.334 53.167 56.001 73.5s51.334 36.166 83.001 47.499s65.834 17 102.501 17c61.333 0 113 -8 155 -24
s79.333 -39.333 112 -70l-108 -109c-20 19.333 -42.333 34.166 -67 44.499s-53.667 15.5 -87 15.5c-15.333 0 -29.5 -2.33301 -42.5 -7s-24.167 -10.834 -33.5 -18.501s-16.833 -16.667 -22.5 -27s-8.5 -21.166 -8.5 -32.499c0 -12.667 2.66699 -24.167 8 -34.5
s14.333 -20.333 27 -30s29.5 -19.334 50.5 -29.001s47.167 -20.167 78.5 -31.5c40 -14 74.333 -29.333 103 -46s52 -35 70 -55s31.333 -42.5 40 -67.5s13 -53.167 13 -84.5z" />
    <glyph glyph-name="T" unicode="T" horiz-adv-x="649" 
d="M629 661h-221v-661h-157v661h-221v138h599v-138z" />
    <glyph glyph-name="U" unicode="U" horiz-adv-x="831" 
d="M781 800v-434.003c0 -53.333 -8 -103 -24 -149s-39.167 -86.167 -69.5 -120.5s-67.333 -61.333 -111 -81s-93.5 -29.5 -149.5 -29.5c-54.667 0 -104 9.66699 -148 29s-81.5 45.833 -112.5 79.5s-54.833 73.334 -71.5 119.001s-25 94.834 -25 147.501v439h155v-440
c0 -30.667 4.33301 -59.5 13 -86.5s21.334 -50.5 38.001 -70.5s37.5 -35.833 62.5 -47.5s53.5 -17.5 85.5 -17.5c34 0 63.5 5.5 88.5 16.5s45.667 26.333 62 46s28.666 42.834 36.999 69.501s12.5 56 12.5 88v442h157z" />
    <glyph glyph-name="V" unicode="V" horiz-adv-x="775" 
d="M770 800l-303 -800h-142l-310 800h172l208 -562l205 562h170z" />
    <glyph glyph-name="W" unicode="W" horiz-adv-x="1107" 
d="M1102 800l-260 -800h-136l-147 494l-148 -494h-136l-260 800h164l169 -517l146 517h128l146 -518l171 518h163z" />
    <glyph glyph-name="X" unicode="X" horiz-adv-x="790" 
d="M790 0h-191l-199 304l-199 -304h-191l292 415l-268 385h188l178 -271l177 271h191l-270 -384z" />
    <glyph glyph-name="Y" unicode="Y" horiz-adv-x="812" 
d="M807 799l-326 -472v-328h-157v330l-309 470h180l208 -336l217 336h187z" />
    <glyph glyph-name="Z" unicode="Z" horiz-adv-x="724" 
d="M694 800l-387 -647h384v-153h-651l396 662l-381 -1v139h639z" />
    <glyph glyph-name="bracketleft" unicode="[" horiz-adv-x="378" 
d="M363 -255h-303v1116h303v-121h-164v-875h164v-120z" />
    <glyph glyph-name="backslash" unicode="\" horiz-adv-x="314" 
d="M334 -57h-123l-231 928h123z" />
    <glyph glyph-name="bracketright" unicode="]" horiz-adv-x="377" 
d="M317 -255h-302v120h163v876h-163v120h302v-1116z" />
    <glyph glyph-name="asciicircum" unicode="^" horiz-adv-x="1166" 
d="M1062 386c0 -4.66699 -1.66797 -8.66699 -5.00098 -12s-7.33301 -5 -12 -5s-8.66699 1.66699 -12 5s-5 7.33301 -5 12s1.5 8.66699 4.5 12s6.83301 5 11.5 5s8.83398 -1.66699 12.501 -5s5.5 -7.33301 5.5 -12zM1024 425c0 -5.33301 -2 -10 -6 -14s-8.66699 -6 -14 -6
s-10 2 -14 6s-6 8.66699 -6 14s2 10 6 14s8.66699 6 14 6s10 -2 14 -6s6 -8.66699 6 -14zM973.999 461c0 -6 -2 -11 -6 -15s-8.66699 -6 -14 -6s-10.166 2 -14.499 6s-6.5 9 -6.5 15c0 5.33301 2 10 6 14s8.66699 6 14 6s10.166 -2 14.499 -6s6.5 -8.66699 6.5 -14z
M921.999 496c0 -6.66699 -2.16602 -12.334 -6.49902 -17.001s-9.83301 -7 -16.5 -7s-12.334 2.33301 -17.001 7s-7 10.334 -7 17.001c0 6 2.16699 11.333 6.5 16s9.83301 7 16.5 7c6 0 11.5 -2.33301 16.5 -7s7.5 -10 7.5 -16zM864 526
c0 -7.33301 -2.33398 -13.5 -7.00098 -18.5s-10.667 -7.5 -18 -7.5s-13.666 2.5 -18.999 7.5s-8 11.167 -8 18.5s2.5 13.5 7.5 18.5s11.167 7.5 18.5 7.5s13.5 -2.5 18.5 -7.5s7.5 -11.167 7.5 -18.5zM794.999 554c0 -7.33301 -2.66895 -13.666 -8.00195 -18.999
s-11.666 -8 -18.999 -8s-13.666 2.66699 -18.999 8s-8 11.666 -8 18.999s2.5 13.666 7.5 18.999s11.167 8 18.5 8s13.833 -2.66699 19.5 -8s8.5 -11.666 8.5 -18.999zM719.997 575c0 -7.33301 -2.66797 -13.833 -8.00098 -19.5s-11.666 -8.5 -18.999 -8.5
s-14 2.83301 -20 8.5s-9 12.167 -9 19.5s2.66699 13.833 8 19.5s12 8.5 20 8.5c7.33301 0 13.833 -2.83301 19.5 -8.5s8.5 -12.167 8.5 -19.5zM1030 353l-1.00098 -2.5c-0.666992 -1.66699 -1.5 -3.33398 -2.5 -5.00098s-2.16699 -3.16699 -3.5 -4.5
s-2.33301 -1.66602 -3 -0.999023c-5.33301 3.33301 -11 7.33301 -17 12c-50 39.333 -103.333 72.5 -160 99.5s-114.667 48.167 -174 63.5c-8 -16.667 -15.167 -36 -21.5 -58s-10.5 -40.333 -12.5 -55c-0.666992 -3.33301 -3.66699 -5 -9 -5s-8.5 0.166992 -9.5 0.5
s-1.16699 1.83301 -0.5 4.5c1.33301 9.33301 3.33301 20.333 6 33s5.66699 25.334 9 38.001s7 25 11 37s7.66699 22.333 11 31c39.333 -10 75 -20.667 107 -32s62.167 -24 90.5 -38s55.5 -29.333 81.5 -46s52.667 -35.334 80 -56.001
c2.66699 -2 5.83398 -4.66699 9.50098 -8s6.5 -6 8.5 -8zM647.995 749l-1 -61.999l-54 19v-36c14 -1.33301 26 -8 36 -20s15 -25.333 15 -40c0 -16.667 -6 -30.834 -18 -42.501s-26.333 -17.5 -43 -17.5c-18 0 -33.167 5.83301 -45.5 17.5s-18.5 26.167 -18.5 43.5
c0 14.667 5 27.667 15 39s22.333 18 37 20v36l-53 -19l-3 62l49 -13l-21 65h76l-19 -65zM606.995 513.001c0 -7.33301 -2.5 -13.5 -7.5 -18.5s-11.167 -7.5 -18.5 -7.5c-6.66699 0 -12.5 2.5 -17.5 7.5s-7.5 11.167 -7.5 18.5s2.5 13.5 7.5 18.5s11.167 7.5 18.5 7.5
c6.66699 0 12.5 -2.66699 17.5 -8s7.5 -11.333 7.5 -18zM494.995 578.001c0 -7.33301 -2.66797 -13.833 -8.00098 -19.5s-11.666 -8.5 -18.999 -8.5s-14 2.83301 -20 8.5s-9 12.167 -9 19.5s2.66699 13.833 8 19.5s12 8.5 20 8.5c7.33301 0 13.833 -2.83301 19.5 -8.5
s8.5 -12.167 8.5 -19.5zM602.994 456.001c0 -6 -2.16797 -11 -6.50098 -15s-9.16602 -6 -14.499 -6s-10.5 2 -15.5 6s-7.5 9 -7.5 15s2.33301 11 7 15s9.66699 6 15 6s10.333 -2 15 -6s7 -9 7 -15zM599.993 408.001c0 -5.33301 -1.83301 -9.66602 -5.5 -12.999
s-7.83398 -5 -12.501 -5s-9 1.66699 -13 5s-6 7.66602 -6 12.999c0 4.66699 1.83301 8.66699 5.5 12s7.83398 5 12.501 5s9 -1.66699 13 -5s6 -7.33301 6 -12zM420.993 558.001c0 -7.33301 -2.66895 -13.666 -8.00195 -18.999s-11.666 -8 -18.999 -8
s-13.666 2.66699 -18.999 8s-8 11.666 -8 18.999s2.5 13.666 7.5 18.999s11.167 8 18.5 8s13.833 -2.66699 19.5 -8s8.5 -11.666 8.5 -18.999zM348.991 530.001c0 -7.33301 -2.33398 -13.5 -7.00098 -18.5s-10.667 -7.5 -18 -7.5s-13.666 2.5 -18.999 7.5s-8 11.167 -8 18.5
s2.5 13.5 7.5 18.5s11.167 7.5 18.5 7.5s13.5 -2.5 18.5 -7.5s7.5 -11.167 7.5 -18.5zM544.99 402.001c0.666992 -3.33301 -2 -4.99902 -8 -4.99902s-9.33301 0.666992 -10 2c-3.33301 16.667 -8 35.834 -14 57.501s-13 40.834 -21 57.501c-28 -6 -56.5 -14.167 -85.5 -24.5
s-57.5 -22.166 -85.5 -35.499s-54.833 -27.833 -80.5 -43.5s-48.834 -31.834 -69.501 -48.501c-3.33301 -2.66699 -7 -5.83398 -11 -9.50098s-7.33301 -6.16699 -10 -7.5c-1.33301 -0.666992 -3.5 1.16602 -6.5 5.49902s-4.16699 7.16602 -3.5 8.49902
c1.33301 2.66699 4.33301 6.16699 9 10.5s8.33398 7.5 11.001 9.5c24.667 19.333 49.667 36.833 75 52.5s52 30 80 43s57.833 24.833 89.5 35.5s66.5 20.667 104.5 30c3.33301 -8 6.83301 -18 10.5 -30s7.16699 -24.333 10.5 -37s6.33301 -25.167 9 -37.5
s4.66699 -23.5 6 -33.5zM287.99 500.002c0 -6.66699 -2.16602 -12.334 -6.49902 -17.001s-9.83301 -7 -16.5 -7s-12.334 2.33301 -17.001 7s-7 10.334 -7 17.001c0 6 2.16699 11.333 6.5 16s9.83301 7 16.5 7c6 0 11.5 -2.33301 16.5 -7s7.5 -10 7.5 -16zM1145.99 320.002
c-2.66699 -6.66699 -5.5127 -14.4961 -8.5127 -23.4961s-6.16699 -17.833 -9.5 -26.5c-3.33301 -10 -7 -20.333 -11 -31c2.66699 -11.333 2.83398 -21.833 0.500977 -31.5s-5.16602 -17.167 -8.49902 -22.5c-1.33301 -2.66699 -3.5 -5.83398 -6.5 -9.50098
s-7.16699 -6.83398 -12.5 -9.50098l-43 -101c2.66699 -8.66699 5.5 -20 8.5 -34s5.16699 -25.333 6.5 -34s-0.666992 -16 -6 -22l-57 -71c-32 14.667 -65.5 27 -100.5 37s-70.167 18 -105.5 24s-70.5 10.333 -105.5 13s-68.833 4 -101.5 4
c-31.333 0 -65.5 -1.33301 -102.5 -4s-74.167 -7.16699 -111.5 -13.5s-73.333 -14.333 -108 -24s-65.667 -21.5 -93 -35.5c-6.66699 5.33301 -13.834 11.5 -21.501 18.5s-15.167 13.5 -22.5 19.5c-8 7.33301 -16.667 14.333 -26 21
c-5.33301 4.66699 -8.66602 9.66699 -9.99902 15c-0.666992 1.33301 -1 3.16602 -1 5.49902v5.5c0 3.33301 0.333008 9 1 17l2 25c0.666992 8.66699 1.5 16.834 2.5 24.501s1.5 13.5 1.5 17.5l-30 96c-5.33301 2.66699 -9.66602 6 -12.999 10
c-9.33301 8.66699 -15.166 19.834 -17.499 33.501s-0.166016 26.834 6.50098 39.501l-23 67c10 3.33301 23.833 7.16602 41.5 11.499s32.5 7.5 44.5 9.5l-8 -21.5l-10 -27.5l-9 -25c-2.66699 -7.33301 -4 -11.666 -4 -12.999c0 -3.33301 0.666992 -4.33301 2 -3
c8.66699 2 18.834 8.16699 30.501 18.5s20.5 19.5 26.5 27.5c4.66699 -21.333 8.83398 -42.333 12.501 -63s7.83398 -41.667 12.501 -63c-7.33301 6 -15 10.667 -23 14s-17.333 6.66602 -28 9.99902c-5.33301 1.33301 -9.66602 2 -12.999 2c4 -14 9.33301 -27.5 16 -40.5
s14.667 -24.5 24 -34.5s20.166 -18 32.499 -24s26.833 -9 43.5 -9c12 0 23.833 2 35.5 6s22.334 9.66699 32.001 17s17.334 16.5 23.001 27.5s8.5 23.167 8.5 36.5c0 12.667 -4.16699 25 -12.5 37s-19.5 18 -33.5 18c-17.333 0 -29.666 -5 -36.999 -15s-11 -23 -11 -39
c0 -7.33301 1 -15 3 -23c-16.667 2.66699 -28.5 11.334 -35.5 26.001s-10.5 29.334 -10.5 44.001c0 23.333 7.16699 43.333 21.5 60s33.833 25 58.5 25c9.33301 0 16.833 -1.33301 22.5 -4s12.167 -6.66699 19.5 -12c-7.33301 11.333 -12.166 21.666 -14.499 30.999
s-3.5 20.666 -3.5 33.999c0 14 2.83301 27.333 8.5 40s12.167 24.334 19.5 35.001c17.333 -12 30.5 -25.667 39.5 -41s13.5 -33.666 13.5 -54.999c0 -7.33301 -0.833008 -14.333 -2.5 -21l-5.5 -21c8 8 17.167 15.5 27.5 22.5s21.5 10.5 33.5 10.5
c16.667 0 30.834 -7 42.501 -21s17.5 -29 17.5 -45c0 -27.333 -12.667 -48.333 -38 -63c0.666992 1.33301 1 3.33301 1 6c0 12 -4 22.5 -12 31.5s-18.667 13.5 -32 13.5s-23.5 -4.83301 -30.5 -14.5s-10.5 -20.834 -10.5 -33.501c0 -12 3.16699 -22.667 9.5 -32
s14.333 -17.333 24 -24s20.334 -11.667 32.001 -15s22.5 -5 32.5 -5c13.333 0 26.833 1.66699 40.5 5s26 8.66602 37 15.999s19.833 16.833 26.5 28.5s10 25.834 10 42.501c0 3.33301 -0.166992 6.16602 -0.5 8.49902s-0.833008 5.16602 -1.5 8.49902l-31.5 -14l-33.5 -16
l-4 122l32 -21c9.33301 -6 19.333 -11.667 30 -17c2.66699 -1.33301 3.66699 -0.333008 3 3c-4.66699 16.667 -9.83398 31.667 -15.501 45l-18.5 43h116c-8 -17.333 -14.5 -33.833 -19.5 -49.5l-12.5 -39.5c-1.33301 -4 -0.666016 -5.33301 2.00098 -4
c9.33301 5.33301 19.666 11.666 30.999 18.999s21.666 14.666 30.999 21.999l-3 -123c-10.667 6 -20.667 11.167 -30 15.5l-31 14.5v-18c0 -29.333 8.16699 -52.166 24.5 -68.499s38.833 -24.5 67.5 -24.5c12 0 23.667 1.66699 35 5s21.666 8.16602 30.999 14.499
s16.833 14.333 22.5 24s8.5 21.167 8.5 34.5c0 11.333 -3.5 21.166 -10.5 29.499s-16.5 12.5 -28.5 12.5c-10 0 -18.5 -4.66699 -25.5 -14s-12.167 -17.666 -15.5 -24.999c-7.33301 7.33301 -13.333 15.666 -18 24.999s-7 19 -7 29c0 19.333 4.83301 35.666 14.5 48.999
s25.167 20 46.5 20c11.333 0 22.166 -4 32.499 -12s19.166 -16 26.499 -24c-2 12 -3 23.667 -3 35c0 21.333 5 40.333 15 57s22.667 31 38 43c8.66699 -10.667 15.5 -21.667 20.5 -33s7.5 -23.666 7.5 -36.999c0 -14.667 -2.16699 -28.667 -6.5 -42
s-10.166 -26.333 -17.499 -39c7.33301 6.66699 15.333 12.667 24 18s18.334 8 29.001 8c17.333 0 32.666 -6.5 45.999 -19.5s20 -28.167 20 -45.5c0 -9.33301 -2 -18.666 -6 -27.999s-9.33301 -18.166 -16 -26.499s-14.167 -15.5 -22.5 -21.5s-16.833 -10.333 -25.5 -13
c4 4.66699 6.83301 11.334 8.5 20.001s2.5 15.667 2.5 21c0 23.333 -11.667 35 -35 35c-7.33301 0 -13.5 -1.83301 -18.5 -5.5s-9.16699 -8.5 -12.5 -14.5s-5.83301 -12.333 -7.5 -19s-2.5 -13 -2.5 -19c0 -25.333 7 -43.333 21 -54s31.667 -18.667 53 -24
c4.66699 -1.33301 9.33398 -2.33301 14.001 -3s9.33398 -0.666992 14.001 0c32.667 1.33301 57 11.166 73 29.499s28.667 46.5 38 84.5l-36 -13c-11.333 -4 -23 -9.33301 -35 -16l17.5 66.5c6.33301 25 12.166 46.5 17.499 64.5l23 -26c8 -8.66699 16.333 -16.667 25 -24
c3.33301 -2.66699 5 -1.33398 5 3.99902c-0.666992 11.333 -1.66699 22.333 -3 33c-1.33301 9.33301 -2.5 18.5 -3.5 27.5s-2.16699 16.833 -3.5 23.5c14.667 -2 28.834 -4.5 42.501 -7.5s25.834 -6.83301 36.501 -11.5zM229.979 465.006c0 -6 -2 -11 -6 -15
s-8.66699 -6 -14 -6s-10.166 2 -14.499 6s-6.5 9 -6.5 15c0 5.33301 2 10 6 14s8.66699 6 14 6s10.166 -2 14.499 -6s6.5 -8.66699 6.5 -14zM180.979 429.006c0 -5.33301 -1.99902 -10 -5.99902 -14s-8.66699 -6 -14 -6s-10 2 -14 6s-6 8.66699 -6 14s1.83301 10 5.5 14
s8.16699 6 13.5 6s10.166 -2 14.499 -6s6.5 -8.66699 6.5 -14zM138.979 390.006c0 -4.66699 -1.66797 -8.66699 -5.00098 -12s-7.33301 -5 -12 -5s-8.66699 1.66699 -12 5s-5 7.33301 -5 12s1.5 8.66699 4.5 12s6.83301 5 11.5 5s8.83398 -1.66699 12.501 -5
s5.5 -7.33301 5.5 -12zM967.979 -112.994c0 -5.33301 -4.33203 -9.33398 -12.999 -12.001c-57.333 -22 -113.5 -36.5 -168.5 -43.5s-114.5 -10.5 -178.5 -10.5c-71.333 0 -139.166 3.83301 -203.499 11.5s-129.833 22.834 -196.5 45.501c-7.33301 2 -11 5 -11 9
c0 3.33301 3.33301 6.33301 10 9c27.333 11.333 57.166 21 89.499 29s65.166 14.5 98.499 19.5s66.5 8.5 99.5 10.5s63.833 3 92.5 3c27.333 0 56.833 -1.16699 88.5 -3.5s63.667 -5.83301 96 -10.5s64 -10.667 95 -18s59.833 -16.333 86.5 -27
c10 -3.33301 15 -7.33301 15 -12zM1102.98 223.005c0 2.66699 -0.5 5.5 -1.5 8.5s-3.16699 4.5 -6.5 4.5s-6.33301 -1.5 -9 -4.5s-5 -6.5 -7 -10.5s-3.5 -8.16699 -4.5 -12.5s-1.5 -7.83301 -1.5 -10.5s0.5 -5.5 1.5 -8.5s3.16699 -4.5 6.5 -4.5s6.33301 1.5 9 4.5
s5 6.5 7 10.5s3.5 8.16699 4.5 12.5s1.5 7.83301 1.5 10.5zM623.979 619.005c-1.33301 8 -4.83203 14.6699 -10.499 20.0029s-12.5 9.66602 -20.5 12.999c-0.666992 -1.33301 -0.833984 -4 -0.500977 -8s0.5 -8.66699 0.5 -14v-19
c5.33301 -0.666992 10.333 -0.333984 15 0.999023s10 3.66602 16 6.99902zM571.98 611.008l-0.999023 40.999c-16.667 -5.33301 -27.667 -16.666 -33 -33.999c9.33301 -4.66699 20.666 -7 33.999 -7zM617.981 587.007c-9.33301 6 -21.3311 8.99902 -35.998 8.99902
c-6 0 -12.333 -0.666992 -19 -2s-12.667 -3.66602 -18 -6.99902c4 -6.66699 10 -11.5 18 -14.5s14.667 -4.5 20 -4.5s11.666 1.83301 18.999 5.5s12.666 8.16699 15.999 13.5zM1042.98 -5.99414c0 3.33301 -1.16699 9.16797 -3.5 17.501s-4.83301 15.166 -7.5 20.499
l-31 -31l19 -41c4 6 8.83301 12.333 14.5 19s8.5 11.667 8.5 15zM955.983 39.0078c0 5.33301 -2 9.83301 -6 13.5s-8.66699 5.5 -14 5.5s-9.83301 -1.83301 -13.5 -5.5s-5.5 -8.16699 -5.5 -13.5s2 -10 6 -14s8.66699 -6 14 -6s9.83301 2 13.5 6s5.5 8.66699 5.5 14z
M939.983 -14.9922c0 5.33301 -2.16699 10 -6.5 14s-9.16602 6 -14.499 6s-10 -2 -14 -6s-6 -8.66699 -6 -14s2.16699 -10 6.5 -14s9.16602 -6 14.499 -6s10 2 14 6s6 8.66699 6 14zM863.983 36.0078c2 13.333 -2.33301 25.334 -13 36.001s-24.667 17.667 -42 21
c-17.333 2.66699 -32.833 0.5 -46.5 -6.5s-21.5 -17.167 -23.5 -30.5c-2 -12.667 2.33301 -24.334 13 -35.001s24.667 -17.667 42 -21s32.833 -1.33301 46.5 6s21.5 17.333 23.5 30zM598.983 263.009c0 4.66699 -1.66797 8.66699 -5.00098 12s-7.66602 5 -12.999 5
c-4.66699 0 -8.5 -1.66699 -11.5 -5s-4.5 -7.33301 -4.5 -12s1.66699 -8.66699 5 -12s7.33301 -5 12 -5s8.66699 1.66699 12 5s5 7.33301 5 12zM698.982 81.0088c0 5.33301 -2 9.83301 -6 13.5s-8.66699 5.5 -14 5.5s-9.83301 -1.83301 -13.5 -5.5s-5.5 -8.16699 -5.5 -13.5
s2 -10 6 -14s8.66699 -6 14 -6s9.83301 2 13.5 6s5.5 8.66699 5.5 14zM692.982 25.0088c0 5.33301 -2.16797 10 -6.50098 14s-9.16602 6 -14.499 6c-6 0 -10.833 -2 -14.5 -6s-5.5 -8.66699 -5.5 -14c0 -6 2 -11 6 -15s8.66699 -6 14 -6c6 0 11 2 15 6s6 9 6 15z
M611.981 69.0088l-13.998 22c-3.33301 5.33301 -6.83301 10.5 -10.5 15.5s-6.16699 7.5 -7.5 7.5c-2 0 -4.66699 -2.5 -8 -7.5l-10 -15.5c-4 -6.66699 -8 -14 -12 -22c4.66699 -8.66699 9 -16.334 13 -23.001c3.33301 -6 6.66602 -11.333 9.99902 -16s6 -7 8 -7
s4.66699 2.33301 8 7s6.66602 10 9.99902 16c4 6.66699 8.33301 14.334 13 23.001zM498.983 81.0088c0 5.33301 -2 9.83301 -6 13.5s-8.66699 5.5 -14 5.5s-9.83301 -1.83301 -13.5 -5.5s-5.5 -8.16699 -5.5 -13.5s2 -10 6 -14s8.66699 -6 14 -6s9.83301 2 13.5 6
s5.5 8.66699 5.5 14zM505.983 24.0088c0 5.33301 -2.16699 10 -6.5 14s-9.16602 6 -14.499 6s-10 -2 -14 -6s-6 -8.66699 -6 -14c0 -6 2.16699 -11 6.5 -15s9.16602 -6 14.499 -6s10 2 14 6s6 9 6 15zM414.983 57.0088c-2 12.667 -9.66699 22.667 -23 30
s-28.666 9.33301 -45.999 6c-17.333 -2.66699 -31.333 -9.5 -42 -20.5s-15 -22.833 -13 -35.5c2 -13.333 9.66699 -23.5 23 -30.5s28.666 -9.16699 45.999 -6.5c17.333 3.33301 31.5 10.333 42.5 21s15.167 22.667 12.5 36zM81.9834 202.009
c0 2.66699 -0.666992 6.16699 -2 10.5s-3 8.5 -5 12.5s-4.33301 7.5 -7 10.5s-5.66699 4.5 -9 4.5s-5.33301 -2 -6 -6s-1 -7.33301 -1 -10s0.5 -6 1.5 -10s2.5 -8 4.5 -12s4.33301 -7.33301 7 -10s5.66699 -4 9 -4s5.5 1.66699 6.5 5s1.5 6.33301 1.5 9zM229.983 36.0088
c0 5.33301 -2 10 -6 14s-8.66699 6 -14 6s-9.83301 -2 -13.5 -6s-5.5 -8.66699 -5.5 -14s2 -9.83301 6 -13.5s8.66699 -5.5 14 -5.5c12.667 0 19 6.33301 19 19zM249.983 -16.9912c0 5.33301 -2.16699 10 -6.5 14s-9.16602 6 -14.499 6s-10 -2 -14 -6s-6 -8.66699 -6 -14
s2.16699 -10 6.5 -14s9.16602 -6 14.499 -6s10 2 14 6s6 8.66699 6 14zM147.983 1.00879l-33 26.998c-1.33301 -7.33301 -2.5 -15.666 -3.5 -24.999s-1.5 -14.666 -1.5 -15.999c0 -3.33301 4.16699 -8.5 12.5 -15.5l22.5 -18.5c2 6 3 15.333 3 28v20z" />
    <glyph glyph-name="underscore" unicode="_" horiz-adv-x="555" 
d="M580 -163h-605v97h605v-97z" />
    <glyph glyph-name="grave" unicode="`" horiz-adv-x="580" 
d="M369 650h-106l-144 193h161z" />
    <glyph glyph-name="a" unicode="a" horiz-adv-x="580" 
d="M530 0l-144.999 -0.000976562v31c-25.333 -17.333 -52.166 -29.333 -80.499 -36s-57.5 -10 -87.5 -10c-28 0 -53.333 4.16699 -76 12.5s-42.334 20.333 -59.001 36s-29.5 34.167 -38.5 55.5s-13.5 45 -13.5 71c0 32.667 7.16699 61.167 21.5 85.5
s33.833 44.666 58.5 60.999s53.5 28.5 86.5 36.5s68.5 12 106.5 12h83c0 34 -11 61 -33 81s-53.667 30 -95 30c-20 0 -40.667 -3.66699 -62 -11s-42.666 -20.666 -63.999 -39.999l-85 86c30.667 29.333 66.167 52 106.5 68s81.833 24 124.5 24c40 0 75.667 -6.33301 107 -19
s56.666 -29 75.999 -49c25.333 -25.333 43.166 -53.666 53.499 -84.999s15.5 -71.333 15.5 -120v-320zM385.001 143.999l-0.000976562 106.999h-66c-20 0 -38.833 -1.33301 -56.5 -4s-33 -7.16699 -46 -13.5s-23.333 -14.5 -31 -24.5s-11.5 -22 -11.5 -36
c0 -20 7.83301 -36.333 23.5 -49s35.834 -19 60.501 -19c21.333 0 42.5 3.33301 63.5 10s42.167 16.334 63.5 29.001z" />
    <glyph glyph-name="b" unicode="b" horiz-adv-x="646" 
d="M616 289c0 -40.667 -6.83105 -79.332 -20.498 -115.999s-32.834 -68.834 -57.501 -96.501s-54 -49.667 -88 -66s-71.333 -24.5 -112 -24.5c-25.333 0 -49 3.5 -71 10.5s-42.667 18.167 -62 33.5v-30h-145v830h146v-280c16.667 13.333 36.5 24 59.5 32s47.167 12 72.5 12
c35.333 0 69.666 -7.83301 102.999 -23.5s63 -37.167 89 -64.5s46.833 -59.5 62.5 -96.5s23.5 -77.167 23.5 -120.5zM470.002 289.002c0 26.667 -4 50.998 -12 72.998s-19.167 40.833 -33.5 56.5s-31.333 27.667 -51 36s-41.5 12.5 -65.5 12.5
c-15.333 0 -33 -3.16699 -53 -9.5s-36.667 -14.5 -50 -24.5v-278c31.333 -28.667 66.666 -43 105.999 -43c22.667 0 43.834 4.33301 63.501 13s36.5 20.834 50.5 36.501s25 34.334 33 56.001s12 45.5 12 71.5z" />
    <glyph glyph-name="c" unicode="c" horiz-adv-x="592" 
d="M582 87c-29.333 -33.333 -64.668 -58.666 -106.001 -75.999s-84.666 -26 -129.999 -26c-42 0 -81.667 7.66699 -119 23s-69.833 36.5 -97.5 63.5s-49.5 59.167 -65.5 96.5s-24 77.666 -24 120.999c0 42.667 8 82.5 24 119.5s37.667 69.167 65 96.5
s59.666 48.833 96.999 64.5s77.333 23.5 120 23.5c44 0 85.833 -8 125.5 -24s74.167 -40.333 103.5 -73l-97 -99c-14.667 19.333 -32.5 35.333 -53.5 48s-46.5 19 -76.5 19c-22 0 -42.833 -4.66699 -62.5 -14s-37 -21.833 -52 -37.5s-26.833 -34.167 -35.5 -55.5
s-13 -44 -13 -68s4.33301 -46.667 13 -68s20.334 -39.833 35.001 -55.5s32 -28.167 52 -37.5s41 -14 63 -14c28.667 0 54.667 6.83301 78 20.5s42 31.167 56 52.5z" />
    <glyph glyph-name="d" unicode="d" horiz-adv-x="656" 
d="M596 0l-146.998 -0.00195312v30c-18.667 -15.333 -39 -26.5 -61 -33.5s-45.333 -10.5 -70 -10.5c-40.667 0 -78 8.16699 -112 24.5s-63.333 38.333 -88 66s-43.834 59.834 -57.501 96.501s-20.5 75.334 -20.5 116.001c0 43.333 7.83301 83.5 23.5 120.5
s36.5 69.167 62.5 96.5s55.667 48.833 89 64.5s67.666 23.5 102.999 23.5c24.667 0 48.667 -3.33301 72 -10s43.333 -16 60 -28v274h146v-830zM451.002 154.998v278.002c-6.66699 4.66699 -14.334 9.16699 -23.001 13.5s-17.667 8 -27 11s-18.666 5.33301 -27.999 7
s-17.666 2.5 -24.999 2.5c-24 0 -45.833 -4.16699 -65.5 -12.5s-36.834 -20.333 -51.501 -36s-26 -34.5 -34 -56.5s-12 -46.333 -12 -73c0 -26 4 -49.833 12 -71.5s19 -40.334 33 -56.001s30.833 -27.834 50.5 -36.501s41.167 -13 64.5 -13c38 0 73.333 14.333 106 43z" />
    <glyph glyph-name="e" unicode="e" 
d="M657 290c0 -9.33301 -0.5 -19 -1.5 -29s-2.16699 -20.333 -3.5 -31h-462c5.33301 -16.667 12.833 -32.5 22.5 -47.5s21.5 -28 35.5 -39s29.833 -19.667 47.5 -26s37.167 -9.5 58.5 -9.5c26 0 52 4.5 78 13.5s47.667 21.167 65 36.5l91 -91
c-40 -30 -79.167 -51.167 -117.5 -63.5s-78.833 -18.5 -121.5 -18.5c-43.333 0 -83.833 8 -121.5 24s-70.334 37.667 -98.001 65s-49.5 59.5 -65.5 96.5s-24 76.5 -24 118.5s8 81.5 24 118.5s38 69.167 66 96.5s60.667 49 98 65s77.333 24 120 24
c40.667 0 79.667 -7.5 117 -22.5s70.333 -35.833 99 -62.5s51.334 -58.5 68.001 -95.5s25 -77.833 25 -122.5zM506 346c-11.333 36.667 -31.5 66.167 -60.5 88.5s-61.833 33.5 -98.5 33.5c-36 0 -68.333 -11.167 -97 -33.5s-48.667 -51.833 -60 -88.5h316z" />
    <glyph glyph-name="f" unicode="f" horiz-adv-x="367" 
d="M382 698c-14 5.33301 -26.332 8.83301 -36.999 10.5s-22.334 2.5 -35.001 2.5c-28 0 -47.833 -6.33301 -59.5 -19s-17.5 -35.667 -17.5 -69v-46h91v-126h-91v-451h-143v451h-70v126h70v44c0 72.667 13.5 128 40.5 166s74.5 57 142.5 57c38.667 0 75 -4.66699 109 -14
v-132z" />
    <glyph glyph-name="g" unicode="g" horiz-adv-x="601" 
d="M591 464h-60.998c15.333 -30 23 -62 23 -96c0 -26 -4.83301 -51.167 -14.5 -75.5s-23.5 -46.5 -41.5 -66.5s-39.833 -37 -65.5 -51s-54.5 -23.333 -86.5 -28c-22 -3.33301 -38.5 -8.5 -49.5 -15.5s-16.5 -14 -16.5 -21s5.5 -13.5 16.5 -19.5s27.5 -10 49.5 -12
c74.667 -6.66699 132.5 -25.334 173.5 -56.001s61.5 -71.334 61.5 -122.001c0 -26 -6.33301 -50 -19 -72s-30.834 -41 -54.501 -57s-52.167 -28.333 -85.5 -37s-70.666 -13 -111.999 -13c-42 0 -79.833 4.33301 -113.5 13s-62.5 20.834 -86.5 36.501s-42.333 34.5 -55 56.5
s-19 46.333 -19 73c0 40 11.5 73.5 34.5 100.5s60.5 47.167 112.5 60.5c-16 6 -27.5 14.167 -34.5 24.5s-10.167 20.833 -9.5 31.5s5.16699 20.834 13.5 30.501s20.166 17.167 35.499 22.5c-17.333 8 -33.833 18.333 -49.5 31s-29.834 27.334 -42.501 44.001
s-22.667 35.334 -30 56.001s-11 42.667 -11 66c0 31.333 6.66699 60.666 20 87.999s31.333 51.166 54 71.499s49 36.333 79 48s61.667 17.5 95 17.5c32.667 0 63 -5 91 -15h198v-114zM410.002 368c0 14.667 -2.83301 28.334 -8.5 41.001s-13.334 23.834 -23.001 33.501
s-21 17.334 -34 23.001s-26.833 8.5 -41.5 8.5s-28.334 -2.83301 -41.001 -8.5s-23.834 -13.334 -33.501 -23.001s-17.334 -20.834 -23.001 -33.501s-8.5 -26.334 -8.5 -41.001s2.83301 -28.5 8.5 -41.5s13.334 -24.333 23.001 -34s20.834 -17.334 33.501 -23.001
s26.334 -8.5 41.001 -8.5s28.5 2.83301 41.5 8.5s24.333 13.334 34 23.001s17.334 21 23.001 34s8.5 26.833 8.5 41.5zM436.002 -99c0 23.333 -11.833 40.333 -35.5 51s-54.167 16 -91.5 16c-40 0 -71.5 -5.66699 -94.5 -17s-34.5 -28 -34.5 -50
c0 -22.667 12 -39.667 36 -51s55 -17 93 -17c38.667 0 69.5 5.5 92.5 16.5s34.5 28.167 34.5 51.5z" />
    <glyph glyph-name="h" unicode="h" horiz-adv-x="633" 
d="M583 0l-144.001 0.00195312v346c0 20.667 -3.16699 38.834 -9.5 54.501s-14.666 28.667 -24.999 39s-22.333 18 -36 23s-27.834 7.5 -42.501 7.5c-22 0 -43 -3.33301 -63 -10s-39.333 -16 -58 -28v-432h-145v829h145v-284c21.333 16.667 46 29 74 37s55 12 81 12
c30 0 58.333 -4.83301 85 -14.5s50.334 -24.334 71.001 -44.001s37 -44.334 49 -74.001s18 -64.834 18 -105.501v-356z" />
    <glyph glyph-name="i" unicode="i" horiz-adv-x="280" 
d="M210 679h-150v150h150v-150zM208 0h-146v579h146v-579z" />
    <glyph glyph-name="j" unicode="j" horiz-adv-x="292" 
d="M222 679h-150v150h150v-150zM220 -30c0 -38 -5.16699 -71.832 -15.5 -101.499s-25 -54 -44 -73s-42.333 -32.333 -70 -40s-58.5 -8.5 -92.5 -2.5l-48 135c14.667 -4.66699 29.5 -7.33398 44.5 -8.00098s28.333 1.83301 40 7.5s21.167 15.167 28.5 28.5s11 32 11 56v607
h146v-609z" />
    <glyph glyph-name="k" unicode="k" horiz-adv-x="600" 
d="M610 0h-171l-232 259v-259h-147v829h147v-496l202 245h168l-237 -281z" />
    <glyph glyph-name="l" unicode="l" horiz-adv-x="314" 
d="M304 3c-11.333 -5.33301 -24.166 -9.66797 -38.499 -13.001s-29.166 -5 -44.499 -5c-21.333 0 -41.833 2.83301 -61.5 8.5s-36.834 14.834 -51.501 27.501s-26.334 29.167 -35.001 49.5s-13 44.833 -13 73.5v686h147v-661c0 -24 4.83301 -40.5 14.5 -49.5
s21.167 -13.5 34.5 -13.5c16.667 0 32.667 5 48 15v-118z" />
    <glyph glyph-name="m" unicode="m" horiz-adv-x="965" 
d="M915 0h-142.997v345c0 40.667 -9.83301 71.5 -29.5 92.5s-43.834 31.5 -72.501 31.5c-22 0 -42.833 -3.5 -62.5 -10.5s-38.834 -18.5 -57.501 -34.5c6 -23.333 9 -49.666 9 -78.999v-345h-144v345c0 40.667 -9.83301 71.5 -29.5 92.5s-43.5 31.5 -71.5 31.5
c-22 0 -41.333 -3.83301 -58 -11.5s-34 -19.834 -52 -36.501v-421h-144v578h144v-43c18 17.333 39.167 31.333 63.5 42s49.166 16 74.499 16c28 0 56.167 -6.33301 84.5 -19s53.166 -31 74.499 -55c30 26.667 60.333 45.667 91 57s64.334 17 101.001 17
c30 0 58.5 -4.5 85.5 -13.5s50.5 -23.333 70.5 -43s36 -44.667 48 -75s18 -66.833 18 -109.5v-352z" />
    <glyph glyph-name="n" unicode="n" horiz-adv-x="636" 
d="M586 0l-144 -0.000976562v345c0 20.667 -3.16699 38.834 -9.5 54.501s-14.833 28.667 -25.5 39s-22.834 18 -36.501 23s-27.834 7.5 -42.501 7.5c-22 0 -43.667 -3.83301 -65 -11.5s-40.666 -19.834 -57.999 -36.501v-421h-145v578h145v-43
c8.66699 8.66699 19.334 16.667 32.001 24s25.834 13.5 39.501 18.5s27.667 8.83301 42 11.5s28.166 4 41.499 4c29.333 0 57.5 -4.66699 84.5 -14s51 -23.666 72 -42.999s37.833 -44.333 50.5 -75s19 -67 19 -109v-352z" />
    <glyph glyph-name="o" unicode="o" 
d="M657 289c0 -43.333 -8 -83.501 -24 -120.501s-38 -69 -66 -96s-60.833 -48.333 -98.5 -64s-77.834 -23.5 -120.501 -23.5s-82.667 7.83301 -120 23.5s-70 37.167 -98 64.5s-50 59.5 -66 96.5s-24 76.833 -24 119.5c0 42 8.16699 81.5 24.5 118.5s38.5 69.333 66.5 97
s60.667 49.334 98 65.001s77 23.5 119 23.5c42.667 0 82.834 -7.83301 120.501 -23.5s70.5 -37 98.5 -64s50 -59.167 66 -96.5s24 -77.333 24 -120zM513 288.999c0 24.667 -4.33301 47.667 -13 69s-20.5 40 -35.5 56s-32.5 28.5 -52.5 37.5s-41.333 13.5 -64 13.5
s-44 -4.5 -64 -13.5s-37.5 -21.5 -52.5 -37.5s-26.833 -34.667 -35.5 -56s-13 -44.333 -13 -69s4.33301 -47.667 13 -69s20.5 -40 35.5 -56s32.5 -28.5 52.5 -37.5s41.333 -13.5 64 -13.5s44 4.5 64 13.5s37.5 21.5 52.5 37.5s26.833 34.667 35.5 56s13 44.333 13 69z" />
    <glyph glyph-name="p" unicode="p" horiz-adv-x="646" 
d="M616 288c0 -40.667 -6.83105 -79.332 -20.498 -115.999s-32.834 -68.834 -57.501 -96.501s-54 -49.667 -88 -66s-71.333 -24.5 -112 -24.5c-25.333 0 -49 3.5 -71 10.5s-42.667 18.167 -62 33.5l1 -280h-146v830h146v-30c16.667 13.333 36.5 24 59.5 32
s47.167 12 72.5 12c35.333 0 69.666 -7.83301 102.999 -23.5s63 -37.167 89 -64.5s46.833 -59.5 62.5 -96.5s23.5 -77.167 23.5 -120.5zM469.002 287.002c0 27.333 -4.00098 51.998 -12.001 73.998s-19.167 40.833 -33.5 56.5s-31.333 27.667 -51 36s-41.5 12.5 -65.5 12.5
c-15.333 0 -32.833 -3.16699 -52.5 -9.5s-36.167 -14.833 -49.5 -25.5v-277c31.333 -28.667 66.333 -43 105 -43c22.667 0 43.834 4.33301 63.501 13s36.5 20.834 50.5 36.501s25 34.334 33 56.001s12 45.167 12 70.5z" />
    <glyph glyph-name="q" unicode="q" horiz-adv-x="655" 
d="M595 -251l-144.998 -0.00195312v280c-18.667 -15.333 -39.167 -26.5 -61.5 -33.5s-45.833 -10.5 -70.5 -10.5c-40.667 0 -78 8.16699 -112 24.5s-63.333 38.333 -88 66s-43.834 59.834 -57.501 96.501s-20.5 75.334 -20.5 116.001c0 43.333 7.83301 83.5 23.5 120.5
s36.5 69.167 62.5 96.5s55.667 48.833 89 64.5s67.666 23.5 102.999 23.5c24.667 0 48.667 -3.33301 72 -10s43.333 -16 60 -28v24h145v-830zM451.002 153.998l0.000976562 277.002c-13.333 10.667 -30 19.167 -50 25.5s-37.667 9.5 -53 9.5
c-24 0 -45.833 -4.16699 -65.5 -12.5s-36.834 -20.333 -51.501 -36s-26 -34.5 -34 -56.5s-12 -46.667 -12 -74c0 -25.333 4 -48.833 12 -70.5s19 -40.334 33 -56.001s30.833 -27.834 50.5 -36.501s41.167 -13 64.5 -13c38 0 73.333 14.333 106 43z" />
    <glyph glyph-name="r" unicode="r" horiz-adv-x="466" 
d="M476 518l-76.9971 -121.999c-14 15.333 -29.5 28.833 -46.5 40.5s-34.167 17.5 -51.5 17.5c-9.33301 0 -19.5 -2.16699 -30.5 -6.5s-21.333 -11.5 -31 -21.5s-17.834 -23.167 -24.501 -39.5s-10 -36.5 -10 -60.5v-326h-145v578h145v-62
c17.333 24.667 36.5 43.667 57.5 57s44.5 20 70.5 20c25.333 0 50.166 -6.83301 74.499 -20.5s47.166 -31.834 68.499 -54.501z" />
    <glyph glyph-name="s" unicode="s" horiz-adv-x="513" 
d="M483 162c0 -28.667 -6.66992 -54.1699 -20.0029 -76.5029s-30.666 -41 -51.999 -56s-45.333 -26.333 -72 -34s-53 -11.5 -79 -11.5c-44 0 -84.5 8.16699 -121.5 24.5s-69.5 42.5 -97.5 78.5l87 88c17.333 -22 37.333 -39.167 60 -51.5s47 -18.5 73 -18.5
c22.667 0 41.5 4.16699 56.5 12.5s22.5 20.833 22.5 37.5c0 17.333 -10.667 31.833 -32 43.5s-51.333 23.167 -90 34.5c-22.667 6.66699 -44.667 15.167 -66 25.5s-40.333 23 -57 38s-30 32.167 -40 51.5s-15 41.666 -15 66.999c0 28 6.5 53.167 19.5 75.5s30 41 51 56
s44.833 26.5 71.5 34.5s53.667 12 81 12c88 0 160 -33.333 216 -100l-86 -87c-16.667 20.667 -35.667 37 -57 49s-44.666 18 -69.999 18c-8.66699 0 -17.834 -1.16699 -27.501 -3.5s-18.667 -5.66602 -27 -9.99902s-15.166 -10 -20.499 -17s-8 -14.833 -8 -23.5
c0 -15.333 10.167 -28.666 30.5 -39.999s49.5 -22.666 87.5 -33.999c24.667 -7.33301 48 -16.666 70 -27.999s41.333 -24.5 58 -39.5s29.834 -32 39.501 -51s14.5 -40.5 14.5 -64.5z" />
    <glyph glyph-name="t" unicode="t" horiz-adv-x="407" 
d="M382 13c-14.667 -9.33301 -31.6689 -16.333 -51.002 -21s-38.666 -7 -57.999 -7c-34 0 -62.667 4.16699 -86 12.5s-42 21.166 -56 38.499s-24.167 39.333 -30.5 66s-9.5 58 -9.5 94v253h-76v65c46.667 19.333 84.5 48 113.5 86s48.833 87.333 59.5 148h47v-169h146v-130
h-146v-263c0 -14.667 1.83301 -26.667 5.5 -36s8.5 -16.666 14.5 -21.999s12.833 -9 20.5 -11s15.834 -3 24.501 -3c11.333 0 25 2 41 6s29.667 10.667 41 20v-127z" />
    <glyph glyph-name="u" unicode="u" horiz-adv-x="632" 
d="M572 0l-144.001 0.00195312v44c-9.33301 -9.33301 -20.166 -17.5 -32.499 -24.5s-25.333 -13 -39 -18s-27.667 -8.83301 -42 -11.5s-27.833 -4 -40.5 -4c-29.333 0 -57.5 4.66699 -84.5 14s-50.833 23.666 -71.5 42.999s-37.167 44.333 -49.5 75s-18.5 67 -18.5 109v351
h144v-344c0 -20.667 3.16699 -38.834 9.5 -54.501s14.666 -28.667 24.999 -39s22.333 -18 36 -23s27.834 -7.5 42.501 -7.5c46.667 0 87 16 121 48v420h144v-578z" />
    <glyph glyph-name="v" unicode="v" horiz-adv-x="597" 
d="M592 578l-217 -579h-142l-218 579h158l131 -388l131 388h157z" />
    <glyph glyph-name="w" unicode="w" horiz-adv-x="889" 
d="M884 579l-194 -580h-125l-115 345l-115 -345h-125l-195 580h152l109 -362l109 362h128l110 -362l109 362h152z" />
    <glyph glyph-name="x" unicode="x" horiz-adv-x="591" 
d="M586 -1h-165l-120 185l-121 -185h-165l206 303l-189 277h163l106 -162l105 162h164l-190 -277z" />
    <glyph glyph-name="y" unicode="y" horiz-adv-x="590" 
d="M585 579l-260.003 -687c-19.333 -51.333 -44.666 -88.333 -75.999 -111s-68.666 -34 -111.999 -34c-6.66699 0 -14 0.5 -22 1.5s-15.667 2.5 -23 4.5l-48 134c11.333 -5.33301 23 -9.5 35 -12.5s23.333 -4.5 34 -4.5c22.667 0 43.334 5.16699 62.001 15.5
s33 29.5 43 57.5l20 58l-223 578h157l133 -372l125 372h155z" />
    <glyph glyph-name="z" unicode="z" horiz-adv-x="557" 
d="M542 579l-287 -450h276v-129h-511l281 450h-254v129h495z" />
    <glyph glyph-name="braceleft" unicode="{" horiz-adv-x="404" 
d="M389 -276l-60.0039 -0.00292969c-43.333 0 -77.333 7.33301 -102 22s-43 34 -55 58s-19.667 51.167 -23 81.5s-5 61.5 -5 93.5v93.5c0 30.333 -3.33301 57.5 -10 81.5s-17.834 43.167 -33.501 57.5s-39.167 21.5 -70.5 21.5v113c30.667 0 53.667 7.16699 69 21.5
s26 33.5 32 57.5s9.16699 51.167 9.5 81.5s0.833008 61.333 1.5 93s2.83398 62.834 6.50098 93.501s12 57.834 25 81.501s32.333 42.834 58 57.501s60.834 22 105.501 22h52v-133h-39c-30 0 -49.5 -14.5 -58.5 -43.5s-13.5 -70.167 -13.5 -123.5c0 -24 -0.333008 -49 -1 -75
s-3.66699 -51.167 -9 -75.5s-14.166 -46.5 -26.499 -66.5s-30.166 -35.667 -53.499 -47c22.667 -10 40.334 -23.833 53.001 -41.5s21.667 -37.667 27 -60s8.5 -46.333 9.5 -72s1.5 -51.5 1.5 -77.5c0 -60 5 -105.167 15 -135.5s28.667 -45.5 56 -45.5h39v-134z" />
    <glyph glyph-name="bar" unicode="|" horiz-adv-x="267" 
d="M205 -195h-123v1066h123v-1066z" />
    <glyph glyph-name="braceright" unicode="}" horiz-adv-x="404" 
d="M374 233c-31.333 0 -54.834 -7.16406 -70.501 -21.4971s-26.834 -33.5 -33.501 -57.5s-10 -51.167 -10 -81.5v-93.5c0 -32 -1.66699 -63.167 -5 -93.5s-11 -57.5 -23 -81.5s-30.333 -43.333 -55 -58s-58.667 -22 -102 -22h-60v134h39c27.333 0 46 15.167 56 45.5
s15 75.5 15 135.5c0 26 0.5 51.833 1.5 77.5s4.16699 49.667 9.5 72s14.166 42.333 26.499 60s30.166 31.5 53.499 41.5c-23.333 11.333 -41.166 27 -53.499 47s-21.166 42.167 -26.499 66.5s-8.33301 49.5 -9 75.5s-1 51 -1 75c0 53.333 -4.5 94.5 -13.5 123.5
s-28.5 43.5 -58.5 43.5h-39v133h52c44.667 0 79.834 -7.33301 105.501 -22s45 -33.834 58 -57.501s21.333 -50.834 25 -81.501s5.83398 -61.834 6.50098 -93.501s1.16699 -62.667 1.5 -93s3.5 -57.5 9.5 -81.5s16.667 -43.167 32 -57.5s38.333 -21.5 69 -21.5v-113z" />
    <glyph glyph-name="asciitilde" unicode="~" horiz-adv-x="651" 
d="M626 342c-25.333 -21.333 -51.332 -38.333 -77.999 -51s-58 -19 -94 -19c-28 0 -53.667 3.83301 -77 11.5s-45.5 16.167 -66.5 25.5s-41.5 17.833 -61.5 25.5s-40.333 11.5 -61 11.5c-17.333 0 -33.166 -2.33301 -47.499 -7s-28 -10.667 -41 -18
s-25.5 -15.833 -37.5 -25.5l-37 -30.5v156c48 49.333 105.667 74 173 74c25.333 0 49.666 -3.83301 72.999 -11.5s46 -16 68 -25s43.333 -17.167 64 -24.5s41 -11 61 -11c16.667 0 32.167 2.33301 46.5 7s28.166 11 41.499 19s26 17 38 27l36 30v-164z" />
    <glyph glyph-name="DEL" horiz-adv-x="321" 
 />
    <glyph glyph-name="nonbreakingspace" unicode="&#xa0;" horiz-adv-x="315" 
 />
    <glyph glyph-name="exclamdown" unicode="&#xa1;" horiz-adv-x="273" 
d="M201 651h-149v149h149v-149zM213 0h-173l42 578h89z" />
    <glyph glyph-name="cent" unicode="&#xa2;" horiz-adv-x="597" 
d="M567 87c-23.333 -26.667 -50.667 -48.5029 -82 -65.5029s-65 -28.167 -101 -33.5v-93h-91v94c-36 6 -69.333 17.833 -100 35.5s-57.334 39.834 -80.001 66.501s-40.5 56.834 -53.5 90.501s-19.5 69.5 -19.5 107.5s6.5 73.833 19.5 107.5s30.833 63.834 53.5 90.501
s49.334 48.834 80.001 66.501s64 29.5 100 35.5v65h91v-64c35.333 -5.33301 68 -16 98 -32s56.333 -36.333 79 -61l-94 -94c-10.667 14 -23.5 26.167 -38.5 36.5s-31.5 17.833 -49.5 22.5v-346c19.333 5.33301 37 13.666 53 24.999s29.333 25 40 41zM297.999 116.997
v344.001c-17.333 -5.33301 -33.333 -13.5 -48 -24.5s-27.5 -24 -38.5 -39s-19.667 -31.667 -26 -50s-9.5 -37.833 -9.5 -58.5s3 -40.334 9 -59.001s14.5 -35.5 25.5 -50.5s24 -28 39 -39s31.167 -18.833 48.5 -23.5z" />
    <glyph glyph-name="sterling" unicode="&#xa3;" horiz-adv-x="636" 
d="M586 5c-20.667 -5.33301 -41.3379 -9.33691 -62.0049 -12.0039s-46 -4 -76 -4c-23.333 0 -48.333 2.16699 -75 6.5s-50.667 8.5 -72 12.5c-6.66699 1.33301 -14.667 2.5 -24 3.5s-18.833 1.83301 -28.5 2.5s-18.667 1.16699 -27 1.5s-15.166 0.5 -20.499 0.5
c-11.333 0 -23.666 -0.833008 -36.999 -2.5s-26.833 -4 -40.5 -7s-26.834 -6.33301 -39.501 -10s-24 -7.83398 -34 -12.501c25.333 45.333 45.833 92.5 61.5 141.5s27.167 104.5 34.5 166.5h-80l1 136h93c0 2 0.5 6.16699 1.5 12.5s1.83301 13 2.5 20s1.5 13.667 2.5 20
s1.5 10.833 1.5 13.5c2.66699 28.667 5.5 52.334 8.5 71.001s5.83301 34.5 8.5 47.5s5.33398 24.167 8.00098 33.5s5.66699 18.666 9 27.999c7.33301 22.667 17.5 42.667 30.5 60s27.833 32 44.5 44s34.834 21.167 54.501 27.5s40.167 9.5 61.5 9.5
c40 0 75.833 -7.66699 107.5 -23s58.834 -37.666 81.501 -66.999l-99 -97c-19.333 32 -45.666 48 -78.999 48c-17.333 0 -32.333 -4.5 -45 -13.5s-22.334 -20.167 -29.001 -33.5c-5.33301 -11.333 -9.66602 -27.166 -12.999 -47.499s-6.33301 -40.166 -9 -59.499
c-1.33301 -13.333 -3.16602 -28.666 -5.49902 -45.999s-4.16602 -33.333 -5.49902 -48h170l1 -136h-185c-1.33301 -10 -3 -21.5 -5 -34.5s-4.5 -26.167 -7.5 -39.5l-9 -38.5c-3 -12.333 -6.16699 -22.833 -9.5 -31.5c5.33301 0.666992 11.5 1.33398 18.5 2.00098
s13.167 1 18.5 1c12 0 25.333 -0.833008 40 -2.5s27.667 -3.5 39 -5.5l44.5 -8.5c11.667 -2.33301 27.5 -3.5 47.5 -3.5c13.333 0 25.166 0.5 35.499 1.5s20.166 2.66699 29.499 5s18.833 5.33301 28.5 9s20.5 8.16699 32.5 13.5v-155z" />
    <glyph glyph-name="currency" unicode="&#xa4;" horiz-adv-x="807" 
d="M767 40c-30.667 -17.333 -64.165 -30.833 -100.498 -40.5s-74.833 -14.5 -115.5 -14.5c-48 0 -93.5 6.83301 -136.5 20.5s-82.167 32.667 -117.5 57s-66.333 53.166 -93 86.499s-47.334 69.666 -62.001 108.999h-112l59 101h30
c-0.666992 6.66699 -1.16699 13.167 -1.5 19.5s-0.5 12.5 -0.5 18.5v18c0 6 0.333008 12 1 18h-88l59 101h50c14 41.333 34 79.333 60 114s56.833 64.334 92.5 89.001s75.5 43.834 119.5 57.501s90.667 20.5 140 20.5c40 0 77.833 -5 113.5 -15s69.5 -23.667 101.5 -41
l-74 -129c-20.667 12 -42.834 21.333 -66.501 28s-48.5 10 -74.5 10c-54 0 -102.167 -12 -144.5 -36s-75.166 -56.667 -98.499 -98h335l-59 -101h-309c-0.666992 -5.33301 -1 -10.666 -1 -15.999v-17c0 -14.667 1 -28.334 3 -41.001l269 -1l-58 -101h-174
c23.333 -38 55.5 -68.167 96.5 -90.5s87.833 -33.5 140.5 -33.5c24.667 0 49.667 3 75 9s47.666 15.333 66.999 28z" />
    <glyph glyph-name="yen" unicode="&#xa5;" horiz-adv-x="778" 
d="M768 796l-174 -270h84v-133h-170l-39 -60v-30h209v-133h-209v-173h-154v173h-211v133h211v29l-40 61h-171v133h85l-174 270h186l191 -308l194 308h182z" />
    <glyph glyph-name="brokenbar" unicode="&#xa6;" horiz-adv-x="287" 
d="M205 411h-123v460h123v-460zM205 -195h-123v461h123v-461z" />
    <glyph glyph-name="section" unicode="&#xa7;" horiz-adv-x="1166" 
d="M1062 386c0 -4.66699 -1.66797 -8.66699 -5.00098 -12s-7.33301 -5 -12 -5s-8.66699 1.66699 -12 5s-5 7.33301 -5 12s1.5 8.66699 4.5 12s6.83301 5 11.5 5s8.83398 -1.66699 12.501 -5s5.5 -7.33301 5.5 -12zM1024 425c0 -5.33301 -2 -10 -6 -14s-8.66699 -6 -14 -6
s-10 2 -14 6s-6 8.66699 -6 14s2 10 6 14s8.66699 6 14 6s10 -2 14 -6s6 -8.66699 6 -14zM973.999 461c0 -6 -2 -11 -6 -15s-8.66699 -6 -14 -6s-10.166 2 -14.499 6s-6.5 9 -6.5 15c0 5.33301 2 10 6 14s8.66699 6 14 6s10.166 -2 14.499 -6s6.5 -8.66699 6.5 -14z
M921.999 496c0 -6.66699 -2.16602 -12.334 -6.49902 -17.001s-9.83301 -7 -16.5 -7s-12.334 2.33301 -17.001 7s-7 10.334 -7 17.001c0 6 2.16699 11.333 6.5 16s9.83301 7 16.5 7c6 0 11.5 -2.33301 16.5 -7s7.5 -10 7.5 -16zM864 526
c0 -7.33301 -2.33398 -13.5 -7.00098 -18.5s-10.667 -7.5 -18 -7.5s-13.666 2.5 -18.999 7.5s-8 11.167 -8 18.5s2.5 13.5 7.5 18.5s11.167 7.5 18.5 7.5s13.5 -2.5 18.5 -7.5s7.5 -11.167 7.5 -18.5zM794.999 554c0 -7.33301 -2.66895 -13.666 -8.00195 -18.999
s-11.666 -8 -18.999 -8s-13.666 2.66699 -18.999 8s-8 11.666 -8 18.999s2.5 13.666 7.5 18.999s11.167 8 18.5 8s13.833 -2.66699 19.5 -8s8.5 -11.666 8.5 -18.999zM719.997 575c0 -7.33301 -2.66797 -13.833 -8.00098 -19.5s-11.666 -8.5 -18.999 -8.5
s-14 2.83301 -20 8.5s-9 12.167 -9 19.5s2.66699 13.833 8 19.5s12 8.5 20 8.5c7.33301 0 13.833 -2.83301 19.5 -8.5s8.5 -12.167 8.5 -19.5zM1030 353l-1.00098 -2.5c-0.666992 -1.66699 -1.5 -3.33398 -2.5 -5.00098s-2.16699 -3.16699 -3.5 -4.5
s-2.33301 -1.66602 -3 -0.999023c-5.33301 3.33301 -11 7.33301 -17 12c-50 39.333 -103.333 72.5 -160 99.5s-114.667 48.167 -174 63.5c-8 -16.667 -15.167 -36 -21.5 -58s-10.5 -40.333 -12.5 -55c-0.666992 -3.33301 -3.66699 -5 -9 -5s-8.5 0.166992 -9.5 0.5
s-1.16699 1.83301 -0.5 4.5c1.33301 9.33301 3.33301 20.333 6 33s5.66699 25.334 9 38.001s7 25 11 37s7.66699 22.333 11 31c39.333 -10 75 -20.667 107 -32s62.167 -24 90.5 -38s55.5 -29.333 81.5 -46s52.667 -35.334 80 -56.001
c2.66699 -2 5.83398 -4.66699 9.50098 -8s6.5 -6 8.5 -8zM647.995 749l-1 -61.999l-54 19v-36c14 -1.33301 26 -8 36 -20s15 -25.333 15 -40c0 -16.667 -6 -30.834 -18 -42.501s-26.333 -17.5 -43 -17.5c-18 0 -33.167 5.83301 -45.5 17.5s-18.5 26.167 -18.5 43.5
c0 14.667 5 27.667 15 39s22.333 18 37 20v36l-53 -19l-3 62l49 -13l-21 65h76l-19 -65zM606.995 513.001c0 -7.33301 -2.5 -13.5 -7.5 -18.5s-11.167 -7.5 -18.5 -7.5c-6.66699 0 -12.5 2.5 -17.5 7.5s-7.5 11.167 -7.5 18.5s2.5 13.5 7.5 18.5s11.167 7.5 18.5 7.5
c6.66699 0 12.5 -2.66699 17.5 -8s7.5 -11.333 7.5 -18zM494.995 578.001c0 -7.33301 -2.66797 -13.833 -8.00098 -19.5s-11.666 -8.5 -18.999 -8.5s-14 2.83301 -20 8.5s-9 12.167 -9 19.5s2.66699 13.833 8 19.5s12 8.5 20 8.5c7.33301 0 13.833 -2.83301 19.5 -8.5
s8.5 -12.167 8.5 -19.5zM602.994 456.001c0 -6 -2.16797 -11 -6.50098 -15s-9.16602 -6 -14.499 -6s-10.5 2 -15.5 6s-7.5 9 -7.5 15s2.33301 11 7 15s9.66699 6 15 6s10.333 -2 15 -6s7 -9 7 -15zM599.993 408.001c0 -5.33301 -1.83301 -9.66602 -5.5 -12.999
s-7.83398 -5 -12.501 -5s-9 1.66699 -13 5s-6 7.66602 -6 12.999c0 4.66699 1.83301 8.66699 5.5 12s7.83398 5 12.501 5s9 -1.66699 13 -5s6 -7.33301 6 -12zM420.993 558.001c0 -7.33301 -2.66895 -13.666 -8.00195 -18.999s-11.666 -8 -18.999 -8
s-13.666 2.66699 -18.999 8s-8 11.666 -8 18.999s2.5 13.666 7.5 18.999s11.167 8 18.5 8s13.833 -2.66699 19.5 -8s8.5 -11.666 8.5 -18.999zM348.991 530.001c0 -7.33301 -2.33398 -13.5 -7.00098 -18.5s-10.667 -7.5 -18 -7.5s-13.666 2.5 -18.999 7.5s-8 11.167 -8 18.5
s2.5 13.5 7.5 18.5s11.167 7.5 18.5 7.5s13.5 -2.5 18.5 -7.5s7.5 -11.167 7.5 -18.5zM544.99 402.001c0.666992 -3.33301 -2 -4.99902 -8 -4.99902s-9.33301 0.666992 -10 2c-3.33301 16.667 -8 35.834 -14 57.501s-13 40.834 -21 57.501c-28 -6 -56.5 -14.167 -85.5 -24.5
s-57.5 -22.166 -85.5 -35.499s-54.833 -27.833 -80.5 -43.5s-48.834 -31.834 -69.501 -48.501c-3.33301 -2.66699 -7 -5.83398 -11 -9.50098s-7.33301 -6.16699 -10 -7.5c-1.33301 -0.666992 -3.5 1.16602 -6.5 5.49902s-4.16699 7.16602 -3.5 8.49902
c1.33301 2.66699 4.33301 6.16699 9 10.5s8.33398 7.5 11.001 9.5c24.667 19.333 49.667 36.833 75 52.5s52 30 80 43s57.833 24.833 89.5 35.5s66.5 20.667 104.5 30c3.33301 -8 6.83301 -18 10.5 -30s7.16699 -24.333 10.5 -37s6.33301 -25.167 9 -37.5
s4.66699 -23.5 6 -33.5zM287.99 500.002c0 -6.66699 -2.16602 -12.334 -6.49902 -17.001s-9.83301 -7 -16.5 -7s-12.334 2.33301 -17.001 7s-7 10.334 -7 17.001c0 6 2.16699 11.333 6.5 16s9.83301 7 16.5 7c6 0 11.5 -2.33301 16.5 -7s7.5 -10 7.5 -16zM1145.99 320.002
c-2.66699 -6.66699 -5.5127 -14.4961 -8.5127 -23.4961s-6.16699 -17.833 -9.5 -26.5c-3.33301 -10 -7 -20.333 -11 -31c2.66699 -11.333 2.83398 -21.833 0.500977 -31.5s-5.16602 -17.167 -8.49902 -22.5c-1.33301 -2.66699 -3.5 -5.83398 -6.5 -9.50098
s-7.16699 -6.83398 -12.5 -9.50098l-43 -101c2.66699 -8.66699 5.5 -20 8.5 -34s5.16699 -25.333 6.5 -34s-0.666992 -16 -6 -22l-57 -71c-32 14.667 -65.5 27 -100.5 37s-70.167 18 -105.5 24s-70.5 10.333 -105.5 13s-68.833 4 -101.5 4
c-31.333 0 -65.5 -1.33301 -102.5 -4s-74.167 -7.16699 -111.5 -13.5s-73.333 -14.333 -108 -24s-65.667 -21.5 -93 -35.5c-6.66699 5.33301 -13.834 11.5 -21.501 18.5s-15.167 13.5 -22.5 19.5c-8 7.33301 -16.667 14.333 -26 21
c-5.33301 4.66699 -8.66602 9.66699 -9.99902 15c-0.666992 1.33301 -1 3.16602 -1 5.49902v5.5c0 3.33301 0.333008 9 1 17l2 25c0.666992 8.66699 1.5 16.834 2.5 24.501s1.5 13.5 1.5 17.5l-30 96c-5.33301 2.66699 -9.66602 6 -12.999 10
c-9.33301 8.66699 -15.166 19.834 -17.499 33.501s-0.166016 26.834 6.50098 39.501l-23 67c10 3.33301 23.833 7.16602 41.5 11.499s32.5 7.5 44.5 9.5l-8 -21.5l-10 -27.5l-9 -25c-2.66699 -7.33301 -4 -11.666 -4 -12.999c0 -3.33301 0.666992 -4.33301 2 -3
c8.66699 2 18.834 8.16699 30.501 18.5s20.5 19.5 26.5 27.5c4.66699 -21.333 8.83398 -42.333 12.501 -63s7.83398 -41.667 12.501 -63c-7.33301 6 -15 10.667 -23 14s-17.333 6.66602 -28 9.99902c-5.33301 1.33301 -9.66602 2 -12.999 2c4 -14 9.33301 -27.5 16 -40.5
s14.667 -24.5 24 -34.5s20.166 -18 32.499 -24s26.833 -9 43.5 -9c12 0 23.833 2 35.5 6s22.334 9.66699 32.001 17s17.334 16.5 23.001 27.5s8.5 23.167 8.5 36.5c0 12.667 -4.16699 25 -12.5 37s-19.5 18 -33.5 18c-17.333 0 -29.666 -5 -36.999 -15s-11 -23 -11 -39
c0 -7.33301 1 -15 3 -23c-16.667 2.66699 -28.5 11.334 -35.5 26.001s-10.5 29.334 -10.5 44.001c0 23.333 7.16699 43.333 21.5 60s33.833 25 58.5 25c9.33301 0 16.833 -1.33301 22.5 -4s12.167 -6.66699 19.5 -12c-7.33301 11.333 -12.166 21.666 -14.499 30.999
s-3.5 20.666 -3.5 33.999c0 14 2.83301 27.333 8.5 40s12.167 24.334 19.5 35.001c17.333 -12 30.5 -25.667 39.5 -41s13.5 -33.666 13.5 -54.999c0 -7.33301 -0.833008 -14.333 -2.5 -21l-5.5 -21c8 8 17.167 15.5 27.5 22.5s21.5 10.5 33.5 10.5
c16.667 0 30.834 -7 42.501 -21s17.5 -29 17.5 -45c0 -27.333 -12.667 -48.333 -38 -63c0.666992 1.33301 1 3.33301 1 6c0 12 -4 22.5 -12 31.5s-18.667 13.5 -32 13.5s-23.5 -4.83301 -30.5 -14.5s-10.5 -20.834 -10.5 -33.501c0 -12 3.16699 -22.667 9.5 -32
s14.333 -17.333 24 -24s20.334 -11.667 32.001 -15s22.5 -5 32.5 -5c13.333 0 26.833 1.66699 40.5 5s26 8.66602 37 15.999s19.833 16.833 26.5 28.5s10 25.834 10 42.501c0 3.33301 -0.166992 6.16602 -0.5 8.49902s-0.833008 5.16602 -1.5 8.49902l-31.5 -14l-33.5 -16
l-4 122l32 -21c9.33301 -6 19.333 -11.667 30 -17c2.66699 -1.33301 3.66699 -0.333008 3 3c-4.66699 16.667 -9.83398 31.667 -15.501 45l-18.5 43h116c-8 -17.333 -14.5 -33.833 -19.5 -49.5l-12.5 -39.5c-1.33301 -4 -0.666016 -5.33301 2.00098 -4
c9.33301 5.33301 19.666 11.666 30.999 18.999s21.666 14.666 30.999 21.999l-3 -123c-10.667 6 -20.667 11.167 -30 15.5l-31 14.5v-18c0 -29.333 8.16699 -52.166 24.5 -68.499s38.833 -24.5 67.5 -24.5c12 0 23.667 1.66699 35 5s21.666 8.16602 30.999 14.499
s16.833 14.333 22.5 24s8.5 21.167 8.5 34.5c0 11.333 -3.5 21.166 -10.5 29.499s-16.5 12.5 -28.5 12.5c-10 0 -18.5 -4.66699 -25.5 -14s-12.167 -17.666 -15.5 -24.999c-7.33301 7.33301 -13.333 15.666 -18 24.999s-7 19 -7 29c0 19.333 4.83301 35.666 14.5 48.999
s25.167 20 46.5 20c11.333 0 22.166 -4 32.499 -12s19.166 -16 26.499 -24c-2 12 -3 23.667 -3 35c0 21.333 5 40.333 15 57s22.667 31 38 43c8.66699 -10.667 15.5 -21.667 20.5 -33s7.5 -23.666 7.5 -36.999c0 -14.667 -2.16699 -28.667 -6.5 -42
s-10.166 -26.333 -17.499 -39c7.33301 6.66699 15.333 12.667 24 18s18.334 8 29.001 8c17.333 0 32.666 -6.5 45.999 -19.5s20 -28.167 20 -45.5c0 -9.33301 -2 -18.666 -6 -27.999s-9.33301 -18.166 -16 -26.499s-14.167 -15.5 -22.5 -21.5s-16.833 -10.333 -25.5 -13
c4 4.66699 6.83301 11.334 8.5 20.001s2.5 15.667 2.5 21c0 23.333 -11.667 35 -35 35c-7.33301 0 -13.5 -1.83301 -18.5 -5.5s-9.16699 -8.5 -12.5 -14.5s-5.83301 -12.333 -7.5 -19s-2.5 -13 -2.5 -19c0 -25.333 7 -43.333 21 -54s31.667 -18.667 53 -24
c4.66699 -1.33301 9.33398 -2.33301 14.001 -3s9.33398 -0.666992 14.001 0c32.667 1.33301 57 11.166 73 29.499s28.667 46.5 38 84.5l-36 -13c-11.333 -4 -23 -9.33301 -35 -16l17.5 66.5c6.33301 25 12.166 46.5 17.499 64.5l23 -26c8 -8.66699 16.333 -16.667 25 -24
c3.33301 -2.66699 5 -1.33398 5 3.99902c-0.666992 11.333 -1.66699 22.333 -3 33c-1.33301 9.33301 -2.5 18.5 -3.5 27.5s-2.16699 16.833 -3.5 23.5c14.667 -2 28.834 -4.5 42.501 -7.5s25.834 -6.83301 36.501 -11.5zM229.979 465.006c0 -6 -2 -11 -6 -15
s-8.66699 -6 -14 -6s-10.166 2 -14.499 6s-6.5 9 -6.5 15c0 5.33301 2 10 6 14s8.66699 6 14 6s10.166 -2 14.499 -6s6.5 -8.66699 6.5 -14zM180.979 429.006c0 -5.33301 -1.99902 -10 -5.99902 -14s-8.66699 -6 -14 -6s-10 2 -14 6s-6 8.66699 -6 14s1.83301 10 5.5 14
s8.16699 6 13.5 6s10.166 -2 14.499 -6s6.5 -8.66699 6.5 -14zM138.979 390.006c0 -4.66699 -1.66797 -8.66699 -5.00098 -12s-7.33301 -5 -12 -5s-8.66699 1.66699 -12 5s-5 7.33301 -5 12s1.5 8.66699 4.5 12s6.83301 5 11.5 5s8.83398 -1.66699 12.501 -5
s5.5 -7.33301 5.5 -12zM967.979 -112.994c0 -5.33301 -4.33203 -9.33398 -12.999 -12.001c-57.333 -22 -113.5 -36.5 -168.5 -43.5s-114.5 -10.5 -178.5 -10.5c-71.333 0 -139.166 3.83301 -203.499 11.5s-129.833 22.834 -196.5 45.501c-7.33301 2 -11 5 -11 9
c0 3.33301 3.33301 6.33301 10 9c27.333 11.333 57.166 21 89.499 29s65.166 14.5 98.499 19.5s66.5 8.5 99.5 10.5s63.833 3 92.5 3c27.333 0 56.833 -1.16699 88.5 -3.5s63.667 -5.83301 96 -10.5s64 -10.667 95 -18s59.833 -16.333 86.5 -27
c10 -3.33301 15 -7.33301 15 -12zM1102.98 223.005c0 2.66699 -0.5 5.5 -1.5 8.5s-3.16699 4.5 -6.5 4.5s-6.33301 -1.5 -9 -4.5s-5 -6.5 -7 -10.5s-3.5 -8.16699 -4.5 -12.5s-1.5 -7.83301 -1.5 -10.5s0.5 -5.5 1.5 -8.5s3.16699 -4.5 6.5 -4.5s6.33301 1.5 9 4.5
s5 6.5 7 10.5s3.5 8.16699 4.5 12.5s1.5 7.83301 1.5 10.5zM623.979 619.005c-1.33301 8 -4.83203 14.6699 -10.499 20.0029s-12.5 9.66602 -20.5 12.999c-0.666992 -1.33301 -0.833984 -4 -0.500977 -8s0.5 -8.66699 0.5 -14v-19
c5.33301 -0.666992 10.333 -0.333984 15 0.999023s10 3.66602 16 6.99902zM571.98 611.008l-0.999023 40.999c-16.667 -5.33301 -27.667 -16.666 -33 -33.999c9.33301 -4.66699 20.666 -7 33.999 -7zM617.981 587.007c-9.33301 6 -21.3311 8.99902 -35.998 8.99902
c-6 0 -12.333 -0.666992 -19 -2s-12.667 -3.66602 -18 -6.99902c4 -6.66699 10 -11.5 18 -14.5s14.667 -4.5 20 -4.5s11.666 1.83301 18.999 5.5s12.666 8.16699 15.999 13.5zM1042.98 -5.99414c0 3.33301 -1.16699 9.16797 -3.5 17.501s-4.83301 15.166 -7.5 20.499
l-31 -31l19 -41c4 6 8.83301 12.333 14.5 19s8.5 11.667 8.5 15zM955.983 39.0078c0 5.33301 -2 9.83301 -6 13.5s-8.66699 5.5 -14 5.5s-9.83301 -1.83301 -13.5 -5.5s-5.5 -8.16699 -5.5 -13.5s2 -10 6 -14s8.66699 -6 14 -6s9.83301 2 13.5 6s5.5 8.66699 5.5 14z
M939.983 -14.9922c0 5.33301 -2.16699 10 -6.5 14s-9.16602 6 -14.499 6s-10 -2 -14 -6s-6 -8.66699 -6 -14s2.16699 -10 6.5 -14s9.16602 -6 14.499 -6s10 2 14 6s6 8.66699 6 14zM863.983 36.0078c2 13.333 -2.33301 25.334 -13 36.001s-24.667 17.667 -42 21
c-17.333 2.66699 -32.833 0.5 -46.5 -6.5s-21.5 -17.167 -23.5 -30.5c-2 -12.667 2.33301 -24.334 13 -35.001s24.667 -17.667 42 -21s32.833 -1.33301 46.5 6s21.5 17.333 23.5 30zM598.983 263.009c0 4.66699 -1.66797 8.66699 -5.00098 12s-7.66602 5 -12.999 5
c-4.66699 0 -8.5 -1.66699 -11.5 -5s-4.5 -7.33301 -4.5 -12s1.66699 -8.66699 5 -12s7.33301 -5 12 -5s8.66699 1.66699 12 5s5 7.33301 5 12zM698.982 81.0088c0 5.33301 -2 9.83301 -6 13.5s-8.66699 5.5 -14 5.5s-9.83301 -1.83301 -13.5 -5.5s-5.5 -8.16699 -5.5 -13.5
s2 -10 6 -14s8.66699 -6 14 -6s9.83301 2 13.5 6s5.5 8.66699 5.5 14zM692.982 25.0088c0 5.33301 -2.16797 10 -6.50098 14s-9.16602 6 -14.499 6c-6 0 -10.833 -2 -14.5 -6s-5.5 -8.66699 -5.5 -14c0 -6 2 -11 6 -15s8.66699 -6 14 -6c6 0 11 2 15 6s6 9 6 15z
M611.981 69.0088l-13.998 22c-3.33301 5.33301 -6.83301 10.5 -10.5 15.5s-6.16699 7.5 -7.5 7.5c-2 0 -4.66699 -2.5 -8 -7.5l-10 -15.5c-4 -6.66699 -8 -14 -12 -22c4.66699 -8.66699 9 -16.334 13 -23.001c3.33301 -6 6.66602 -11.333 9.99902 -16s6 -7 8 -7
s4.66699 2.33301 8 7s6.66602 10 9.99902 16c4 6.66699 8.33301 14.334 13 23.001zM498.983 81.0088c0 5.33301 -2 9.83301 -6 13.5s-8.66699 5.5 -14 5.5s-9.83301 -1.83301 -13.5 -5.5s-5.5 -8.16699 -5.5 -13.5s2 -10 6 -14s8.66699 -6 14 -6s9.83301 2 13.5 6
s5.5 8.66699 5.5 14zM505.983 24.0088c0 5.33301 -2.16699 10 -6.5 14s-9.16602 6 -14.499 6s-10 -2 -14 -6s-6 -8.66699 -6 -14c0 -6 2.16699 -11 6.5 -15s9.16602 -6 14.499 -6s10 2 14 6s6 9 6 15zM414.983 57.0088c-2 12.667 -9.66699 22.667 -23 30
s-28.666 9.33301 -45.999 6c-17.333 -2.66699 -31.333 -9.5 -42 -20.5s-15 -22.833 -13 -35.5c2 -13.333 9.66699 -23.5 23 -30.5s28.666 -9.16699 45.999 -6.5c17.333 3.33301 31.5 10.333 42.5 21s15.167 22.667 12.5 36zM81.9834 202.009
c0 2.66699 -0.666992 6.16699 -2 10.5s-3 8.5 -5 12.5s-4.33301 7.5 -7 10.5s-5.66699 4.5 -9 4.5s-5.33301 -2 -6 -6s-1 -7.33301 -1 -10s0.5 -6 1.5 -10s2.5 -8 4.5 -12s4.33301 -7.33301 7 -10s5.66699 -4 9 -4s5.5 1.66699 6.5 5s1.5 6.33301 1.5 9zM229.983 36.0088
c0 5.33301 -2 10 -6 14s-8.66699 6 -14 6s-9.83301 -2 -13.5 -6s-5.5 -8.66699 -5.5 -14s2 -9.83301 6 -13.5s8.66699 -5.5 14 -5.5c12.667 0 19 6.33301 19 19zM249.983 -16.9912c0 5.33301 -2.16699 10 -6.5 14s-9.16602 6 -14.499 6s-10 -2 -14 -6s-6 -8.66699 -6 -14
s2.16699 -10 6.5 -14s9.16602 -6 14.499 -6s10 2 14 6s6 8.66699 6 14zM147.983 1.00879l-33 26.998c-1.33301 -7.33301 -2.5 -15.666 -3.5 -24.999s-1.5 -14.666 -1.5 -15.999c0 -3.33301 4.16699 -8.5 12.5 -15.5l22.5 -18.5c2 6 3 15.333 3 28v20z" />
    <glyph glyph-name="dieresis" unicode="&#xa8;" horiz-adv-x="580" 
d="M462 650h-130v130h130v-130zM232 650h-130v130h130v-130z" />
    <glyph glyph-name="copyright" unicode="&#xa9;" horiz-adv-x="646" 
d="M586 -5c0 -40 -5.16797 -74 -15.501 -102s-23.666 -51.333 -39.999 -70s-34.5 -33.334 -54.5 -44.001s-39.667 -18.5 -59 -23.5s-37 -8.16699 -53 -9.5s-28 -2 -36 -2c-56.667 0 -106.667 11.667 -150 35l-47 131c29.333 -15.333 59.166 -26.666 89.499 -33.999
s56.166 -11 77.499 -11c10.667 0 24.334 1 41.001 3s32.5 7.83301 47.5 17.5s28 24.5 39 44.5s16.5 48 16.5 84v59c-17.333 -13.333 -37.833 -24.166 -61.5 -32.499s-48.167 -12.5 -73.5 -12.5c-36.667 0 -71.167 7.5 -103.5 22.5s-60.666 35.333 -84.999 61
s-43.5 55.5 -57.5 89.5s-21 70 -21 108c0 36.667 7.16699 72.167 21.5 106.5s33.833 64.666 58.5 90.999s53 47.333 85 63s66 23.5 102 23.5c25.333 0 50 -3.5 74 -10.5s44.333 -16.833 61 -29.5v26h144v-584zM442.999 189l0.000976562 242.999
c-14 12 -30.333 21.167 -49 27.5s-36.334 9.5 -53.001 9.5c-22 0 -42.833 -4.16699 -62.5 -12.5s-36.667 -19.833 -51 -34.5s-25.666 -31.667 -33.999 -51s-12.5 -40.333 -12.5 -63c0 -21.333 4.16699 -41.5 12.5 -60.5s19.833 -35.667 34.5 -50s31.667 -25.666 51 -33.999
s39.666 -12.5 60.999 -12.5c20 0 38.333 3.16699 55 9.5s32.667 15.833 48 28.5z" />
    <glyph glyph-name="ordfeminine" unicode="&#xaa;" horiz-adv-x="392" 
d="M342 439l-105.001 0.00390625v12c-14 -8 -28.5 -13.5 -43.5 -16.5s-31.833 -4.5 -50.5 -4.5c-35.333 0 -64.666 10.5 -87.999 31.5s-35 48.833 -35 83.5c0 24.667 6.16699 45.667 18.5 63s28.666 31.166 48.999 41.499s43.333 17.166 69 20.499s52.167 3 79.5 -1
c-4 34.667 -26.667 52 -68 52c-11.333 0 -23 -2.33301 -35 -7s-25.667 -13.667 -41 -27l-63 64c22.667 21.333 46.834 37.333 72.501 48s52.167 16 79.5 16c25.333 0 47.833 -4 67.5 -12s36.167 -18.667 49.5 -32c16.667 -16.667 28.167 -34.834 34.5 -54.501
s9.5 -44.834 9.5 -75.501v-202zM235.999 540.004l-0.000976562 49c-14 1.33301 -27.5 2 -40.5 2s-24.5 -1.16699 -34.5 -3.5s-18 -6.33301 -24 -12s-9 -13.167 -9 -22.5c0 -8.66699 3.66699 -16.167 11 -22.5s17 -9.5 29 -9.5c22.667 0 45.334 6.33301 68.001 19z" />
    <glyph glyph-name="guillemotleft" unicode="&#xab;" horiz-adv-x="616" 
d="M596 545l-180 -272l180 -273h-149l-178 273l178 272h149zM349 545l-180 -272l179 -273h-148l-180 273l180 272h149z" />
    <glyph glyph-name="logicalnot" unicode="&#xac;" horiz-adv-x="672" 
d="M612 193h-134v244h-438v134h572v-378z" />
    <glyph glyph-name="softhyphen" unicode="&#xad;" horiz-adv-x="374" 
d="M344 260h-314v134h314v-134z" />
    <glyph glyph-name="registered" unicode="&#xae;" horiz-adv-x="908" 
d="M883 415c0 -59.333 -11.167 -115 -33.5 -167s-53 -97.5 -92 -136.5s-84.5 -69.667 -136.5 -92s-107.667 -33.5 -167 -33.5s-115 11.167 -167 33.5s-97.5 53 -136.5 92s-69.667 84.5 -92 136.5s-33.5 107.667 -33.5 167s11.167 115 33.5 167s53 97.5 92 136.5
s84.5 69.667 136.5 92s107.667 33.5 167 33.5s115 -11.167 167 -33.5s97.5 -53 136.5 -92s69.667 -84.5 92 -136.5s33.5 -107.667 33.5 -167zM801 415c0 48 -9.16699 93 -27.5 135s-43.166 78.667 -74.499 110s-68 56.166 -110 74.499s-87 27.5 -135 27.5
s-93 -9.16699 -135 -27.5s-78.667 -43.166 -110 -74.499s-56.166 -68 -74.499 -110s-27.5 -87 -27.5 -135s9.16699 -93 27.5 -135s43.166 -78.667 74.499 -110s68 -56.166 110 -74.499s87 -27.5 135 -27.5s93 9.16699 135 27.5s78.667 43.166 110 74.499
s56.166 68 74.499 110s27.5 87 27.5 135zM663 155h-109.999l-37 119c-8 26 -19.5 47.333 -34.5 64s-38.167 25 -69.5 25h-40v-208h-99v522h99h105c22 0 42.667 -3.66699 62 -11s36.166 -17.833 50.499 -31.5s25.666 -30.167 33.999 -49.5s12.5 -41 12.5 -65
c0 -26 -8.83301 -51.5 -26.5 -76.5s-40.5 -44.5 -68.5 -58.5c15.333 -7.33301 27.5 -15.833 36.5 -25.5s16.5 -22.5 22.5 -38.5c6 -15.333 11.667 -30.5 17 -45.5l20 -57.5l13.5 -37c3.66699 -10 7.83398 -18.667 12.501 -26zM535.001 520c0 24.667 -8.66699 44.5 -26 59.5
s-38.333 22.5 -63 22.5h-74v-162h74c24.667 0 45.667 7.16699 63 21.5s26 33.833 26 58.5z" />
    <glyph glyph-name="macron" unicode="&#xaf;" horiz-adv-x="632" 
d="M528 650h-434v115h434v-115z" />
    <glyph glyph-name="degree" unicode="&#xb0;" horiz-adv-x="436" 
d="M396 623c0 -24 -4.5 -46.666 -13.5 -67.999s-21.333 -39.833 -37 -55.5s-34 -28 -55 -37s-43.5 -13.5 -67.5 -13.5c-23.333 0 -45.5 4.5 -66.5 13.5s-39.333 21.333 -55 37s-28.167 34.167 -37.5 55.5s-14 44 -14 68s4.5 46.5 13.5 67.5s21.333 39.167 37 54.5
s34 27.5 55 36.5s43.5 13.5 67.5 13.5s46.5 -4.5 67.5 -13.5s39.333 -21.333 55 -37s28 -33.834 37 -54.501s13.5 -43 13.5 -67zM294 623.001c0 19.333 -6.99902 36 -20.999 50s-30.667 21 -50 21c-20 0 -37 -7 -51 -21s-21 -30.667 -21 -50c0 -20 7.16699 -37 21.5 -51
s31.166 -21 50.499 -21s36 7 50 21s21 31 21 51z" />
    <glyph glyph-name="plusminus" unicode="&#xb1;" horiz-adv-x="1166" 
d="M1062 386c0 -4.66699 -1.66797 -8.66699 -5.00098 -12s-7.33301 -5 -12 -5s-8.66699 1.66699 -12 5s-5 7.33301 -5 12s1.5 8.66699 4.5 12s6.83301 5 11.5 5s8.83398 -1.66699 12.501 -5s5.5 -7.33301 5.5 -12zM1024 425c0 -5.33301 -2 -10 -6 -14s-8.66699 -6 -14 -6
s-10 2 -14 6s-6 8.66699 -6 14s2 10 6 14s8.66699 6 14 6s10 -2 14 -6s6 -8.66699 6 -14zM973.999 461c0 -6 -2 -11 -6 -15s-8.66699 -6 -14 -6s-10.166 2 -14.499 6s-6.5 9 -6.5 15c0 5.33301 2 10 6 14s8.66699 6 14 6s10.166 -2 14.499 -6s6.5 -8.66699 6.5 -14z
M921.999 496c0 -6.66699 -2.16602 -12.334 -6.49902 -17.001s-9.83301 -7 -16.5 -7s-12.334 2.33301 -17.001 7s-7 10.334 -7 17.001c0 6 2.16699 11.333 6.5 16s9.83301 7 16.5 7c6 0 11.5 -2.33301 16.5 -7s7.5 -10 7.5 -16zM864 526
c0 -7.33301 -2.33398 -13.5 -7.00098 -18.5s-10.667 -7.5 -18 -7.5s-13.666 2.5 -18.999 7.5s-8 11.167 -8 18.5s2.5 13.5 7.5 18.5s11.167 7.5 18.5 7.5s13.5 -2.5 18.5 -7.5s7.5 -11.167 7.5 -18.5zM794.999 554c0 -7.33301 -2.66895 -13.666 -8.00195 -18.999
s-11.666 -8 -18.999 -8s-13.666 2.66699 -18.999 8s-8 11.666 -8 18.999s2.5 13.666 7.5 18.999s11.167 8 18.5 8s13.833 -2.66699 19.5 -8s8.5 -11.666 8.5 -18.999zM719.997 575c0 -7.33301 -2.66797 -13.833 -8.00098 -19.5s-11.666 -8.5 -18.999 -8.5
s-14 2.83301 -20 8.5s-9 12.167 -9 19.5s2.66699 13.833 8 19.5s12 8.5 20 8.5c7.33301 0 13.833 -2.83301 19.5 -8.5s8.5 -12.167 8.5 -19.5zM1030 353l-1.00098 -2.5c-0.666992 -1.66699 -1.5 -3.33398 -2.5 -5.00098s-2.16699 -3.16699 -3.5 -4.5
s-2.33301 -1.66602 -3 -0.999023c-5.33301 3.33301 -11 7.33301 -17 12c-50 39.333 -103.333 72.5 -160 99.5s-114.667 48.167 -174 63.5c-8 -16.667 -15.167 -36 -21.5 -58s-10.5 -40.333 -12.5 -55c-0.666992 -3.33301 -3.66699 -5 -9 -5s-8.5 0.166992 -9.5 0.5
s-1.16699 1.83301 -0.5 4.5c1.33301 9.33301 3.33301 20.333 6 33s5.66699 25.334 9 38.001s7 25 11 37s7.66699 22.333 11 31c39.333 -10 75 -20.667 107 -32s62.167 -24 90.5 -38s55.5 -29.333 81.5 -46s52.667 -35.334 80 -56.001
c2.66699 -2 5.83398 -4.66699 9.50098 -8s6.5 -6 8.5 -8zM647.995 749l-1 -61.999l-54 19v-36c14 -1.33301 26 -8 36 -20s15 -25.333 15 -40c0 -16.667 -6 -30.834 -18 -42.501s-26.333 -17.5 -43 -17.5c-18 0 -33.167 5.83301 -45.5 17.5s-18.5 26.167 -18.5 43.5
c0 14.667 5 27.667 15 39s22.333 18 37 20v36l-53 -19l-3 62l49 -13l-21 65h76l-19 -65zM606.995 513.001c0 -7.33301 -2.5 -13.5 -7.5 -18.5s-11.167 -7.5 -18.5 -7.5c-6.66699 0 -12.5 2.5 -17.5 7.5s-7.5 11.167 -7.5 18.5s2.5 13.5 7.5 18.5s11.167 7.5 18.5 7.5
c6.66699 0 12.5 -2.66699 17.5 -8s7.5 -11.333 7.5 -18zM494.995 578.001c0 -7.33301 -2.66797 -13.833 -8.00098 -19.5s-11.666 -8.5 -18.999 -8.5s-14 2.83301 -20 8.5s-9 12.167 -9 19.5s2.66699 13.833 8 19.5s12 8.5 20 8.5c7.33301 0 13.833 -2.83301 19.5 -8.5
s8.5 -12.167 8.5 -19.5zM602.994 456.001c0 -6 -2.16797 -11 -6.50098 -15s-9.16602 -6 -14.499 -6s-10.5 2 -15.5 6s-7.5 9 -7.5 15s2.33301 11 7 15s9.66699 6 15 6s10.333 -2 15 -6s7 -9 7 -15zM599.993 408.001c0 -5.33301 -1.83301 -9.66602 -5.5 -12.999
s-7.83398 -5 -12.501 -5s-9 1.66699 -13 5s-6 7.66602 -6 12.999c0 4.66699 1.83301 8.66699 5.5 12s7.83398 5 12.501 5s9 -1.66699 13 -5s6 -7.33301 6 -12zM420.993 558.001c0 -7.33301 -2.66895 -13.666 -8.00195 -18.999s-11.666 -8 -18.999 -8
s-13.666 2.66699 -18.999 8s-8 11.666 -8 18.999s2.5 13.666 7.5 18.999s11.167 8 18.5 8s13.833 -2.66699 19.5 -8s8.5 -11.666 8.5 -18.999zM348.991 530.001c0 -7.33301 -2.33398 -13.5 -7.00098 -18.5s-10.667 -7.5 -18 -7.5s-13.666 2.5 -18.999 7.5s-8 11.167 -8 18.5
s2.5 13.5 7.5 18.5s11.167 7.5 18.5 7.5s13.5 -2.5 18.5 -7.5s7.5 -11.167 7.5 -18.5zM544.99 402.001c0.666992 -3.33301 -2 -4.99902 -8 -4.99902s-9.33301 0.666992 -10 2c-3.33301 16.667 -8 35.834 -14 57.501s-13 40.834 -21 57.501c-28 -6 -56.5 -14.167 -85.5 -24.5
s-57.5 -22.166 -85.5 -35.499s-54.833 -27.833 -80.5 -43.5s-48.834 -31.834 -69.501 -48.501c-3.33301 -2.66699 -7 -5.83398 -11 -9.50098s-7.33301 -6.16699 -10 -7.5c-1.33301 -0.666992 -3.5 1.16602 -6.5 5.49902s-4.16699 7.16602 -3.5 8.49902
c1.33301 2.66699 4.33301 6.16699 9 10.5s8.33398 7.5 11.001 9.5c24.667 19.333 49.667 36.833 75 52.5s52 30 80 43s57.833 24.833 89.5 35.5s66.5 20.667 104.5 30c3.33301 -8 6.83301 -18 10.5 -30s7.16699 -24.333 10.5 -37s6.33301 -25.167 9 -37.5
s4.66699 -23.5 6 -33.5zM287.99 500.002c0 -6.66699 -2.16602 -12.334 -6.49902 -17.001s-9.83301 -7 -16.5 -7s-12.334 2.33301 -17.001 7s-7 10.334 -7 17.001c0 6 2.16699 11.333 6.5 16s9.83301 7 16.5 7c6 0 11.5 -2.33301 16.5 -7s7.5 -10 7.5 -16zM1145.99 320.002
c-2.66699 -6.66699 -5.5127 -14.4961 -8.5127 -23.4961s-6.16699 -17.833 -9.5 -26.5c-3.33301 -10 -7 -20.333 -11 -31c2.66699 -11.333 2.83398 -21.833 0.500977 -31.5s-5.16602 -17.167 -8.49902 -22.5c-1.33301 -2.66699 -3.5 -5.83398 -6.5 -9.50098
s-7.16699 -6.83398 -12.5 -9.50098l-43 -101c2.66699 -8.66699 5.5 -20 8.5 -34s5.16699 -25.333 6.5 -34s-0.666992 -16 -6 -22l-57 -71c-32 14.667 -65.5 27 -100.5 37s-70.167 18 -105.5 24s-70.5 10.333 -105.5 13s-68.833 4 -101.5 4
c-31.333 0 -65.5 -1.33301 -102.5 -4s-74.167 -7.16699 -111.5 -13.5s-73.333 -14.333 -108 -24s-65.667 -21.5 -93 -35.5c-6.66699 5.33301 -13.834 11.5 -21.501 18.5s-15.167 13.5 -22.5 19.5c-8 7.33301 -16.667 14.333 -26 21
c-5.33301 4.66699 -8.66602 9.66699 -9.99902 15c-0.666992 1.33301 -1 3.16602 -1 5.49902v5.5c0 3.33301 0.333008 9 1 17l2 25c0.666992 8.66699 1.5 16.834 2.5 24.501s1.5 13.5 1.5 17.5l-30 96c-5.33301 2.66699 -9.66602 6 -12.999 10
c-9.33301 8.66699 -15.166 19.834 -17.499 33.501s-0.166016 26.834 6.50098 39.501l-23 67c10 3.33301 23.833 7.16602 41.5 11.499s32.5 7.5 44.5 9.5l-8 -21.5l-10 -27.5l-9 -25c-2.66699 -7.33301 -4 -11.666 -4 -12.999c0 -3.33301 0.666992 -4.33301 2 -3
c8.66699 2 18.834 8.16699 30.501 18.5s20.5 19.5 26.5 27.5c4.66699 -21.333 8.83398 -42.333 12.501 -63s7.83398 -41.667 12.501 -63c-7.33301 6 -15 10.667 -23 14s-17.333 6.66602 -28 9.99902c-5.33301 1.33301 -9.66602 2 -12.999 2c4 -14 9.33301 -27.5 16 -40.5
s14.667 -24.5 24 -34.5s20.166 -18 32.499 -24s26.833 -9 43.5 -9c12 0 23.833 2 35.5 6s22.334 9.66699 32.001 17s17.334 16.5 23.001 27.5s8.5 23.167 8.5 36.5c0 12.667 -4.16699 25 -12.5 37s-19.5 18 -33.5 18c-17.333 0 -29.666 -5 -36.999 -15s-11 -23 -11 -39
c0 -7.33301 1 -15 3 -23c-16.667 2.66699 -28.5 11.334 -35.5 26.001s-10.5 29.334 -10.5 44.001c0 23.333 7.16699 43.333 21.5 60s33.833 25 58.5 25c9.33301 0 16.833 -1.33301 22.5 -4s12.167 -6.66699 19.5 -12c-7.33301 11.333 -12.166 21.666 -14.499 30.999
s-3.5 20.666 -3.5 33.999c0 14 2.83301 27.333 8.5 40s12.167 24.334 19.5 35.001c17.333 -12 30.5 -25.667 39.5 -41s13.5 -33.666 13.5 -54.999c0 -7.33301 -0.833008 -14.333 -2.5 -21l-5.5 -21c8 8 17.167 15.5 27.5 22.5s21.5 10.5 33.5 10.5
c16.667 0 30.834 -7 42.501 -21s17.5 -29 17.5 -45c0 -27.333 -12.667 -48.333 -38 -63c0.666992 1.33301 1 3.33301 1 6c0 12 -4 22.5 -12 31.5s-18.667 13.5 -32 13.5s-23.5 -4.83301 -30.5 -14.5s-10.5 -20.834 -10.5 -33.501c0 -12 3.16699 -22.667 9.5 -32
s14.333 -17.333 24 -24s20.334 -11.667 32.001 -15s22.5 -5 32.5 -5c13.333 0 26.833 1.66699 40.5 5s26 8.66602 37 15.999s19.833 16.833 26.5 28.5s10 25.834 10 42.501c0 3.33301 -0.166992 6.16602 -0.5 8.49902s-0.833008 5.16602 -1.5 8.49902l-31.5 -14l-33.5 -16
l-4 122l32 -21c9.33301 -6 19.333 -11.667 30 -17c2.66699 -1.33301 3.66699 -0.333008 3 3c-4.66699 16.667 -9.83398 31.667 -15.501 45l-18.5 43h116c-8 -17.333 -14.5 -33.833 -19.5 -49.5l-12.5 -39.5c-1.33301 -4 -0.666016 -5.33301 2.00098 -4
c9.33301 5.33301 19.666 11.666 30.999 18.999s21.666 14.666 30.999 21.999l-3 -123c-10.667 6 -20.667 11.167 -30 15.5l-31 14.5v-18c0 -29.333 8.16699 -52.166 24.5 -68.499s38.833 -24.5 67.5 -24.5c12 0 23.667 1.66699 35 5s21.666 8.16602 30.999 14.499
s16.833 14.333 22.5 24s8.5 21.167 8.5 34.5c0 11.333 -3.5 21.166 -10.5 29.499s-16.5 12.5 -28.5 12.5c-10 0 -18.5 -4.66699 -25.5 -14s-12.167 -17.666 -15.5 -24.999c-7.33301 7.33301 -13.333 15.666 -18 24.999s-7 19 -7 29c0 19.333 4.83301 35.666 14.5 48.999
s25.167 20 46.5 20c11.333 0 22.166 -4 32.499 -12s19.166 -16 26.499 -24c-2 12 -3 23.667 -3 35c0 21.333 5 40.333 15 57s22.667 31 38 43c8.66699 -10.667 15.5 -21.667 20.5 -33s7.5 -23.666 7.5 -36.999c0 -14.667 -2.16699 -28.667 -6.5 -42
s-10.166 -26.333 -17.499 -39c7.33301 6.66699 15.333 12.667 24 18s18.334 8 29.001 8c17.333 0 32.666 -6.5 45.999 -19.5s20 -28.167 20 -45.5c0 -9.33301 -2 -18.666 -6 -27.999s-9.33301 -18.166 -16 -26.499s-14.167 -15.5 -22.5 -21.5s-16.833 -10.333 -25.5 -13
c4 4.66699 6.83301 11.334 8.5 20.001s2.5 15.667 2.5 21c0 23.333 -11.667 35 -35 35c-7.33301 0 -13.5 -1.83301 -18.5 -5.5s-9.16699 -8.5 -12.5 -14.5s-5.83301 -12.333 -7.5 -19s-2.5 -13 -2.5 -19c0 -25.333 7 -43.333 21 -54s31.667 -18.667 53 -24
c4.66699 -1.33301 9.33398 -2.33301 14.001 -3s9.33398 -0.666992 14.001 0c32.667 1.33301 57 11.166 73 29.499s28.667 46.5 38 84.5l-36 -13c-11.333 -4 -23 -9.33301 -35 -16l17.5 66.5c6.33301 25 12.166 46.5 17.499 64.5l23 -26c8 -8.66699 16.333 -16.667 25 -24
c3.33301 -2.66699 5 -1.33398 5 3.99902c-0.666992 11.333 -1.66699 22.333 -3 33c-1.33301 9.33301 -2.5 18.5 -3.5 27.5s-2.16699 16.833 -3.5 23.5c14.667 -2 28.834 -4.5 42.501 -7.5s25.834 -6.83301 36.501 -11.5zM229.979 465.006c0 -6 -2 -11 -6 -15
s-8.66699 -6 -14 -6s-10.166 2 -14.499 6s-6.5 9 -6.5 15c0 5.33301 2 10 6 14s8.66699 6 14 6s10.166 -2 14.499 -6s6.5 -8.66699 6.5 -14zM180.979 429.006c0 -5.33301 -1.99902 -10 -5.99902 -14s-8.66699 -6 -14 -6s-10 2 -14 6s-6 8.66699 -6 14s1.83301 10 5.5 14
s8.16699 6 13.5 6s10.166 -2 14.499 -6s6.5 -8.66699 6.5 -14zM138.979 390.006c0 -4.66699 -1.66797 -8.66699 -5.00098 -12s-7.33301 -5 -12 -5s-8.66699 1.66699 -12 5s-5 7.33301 -5 12s1.5 8.66699 4.5 12s6.83301 5 11.5 5s8.83398 -1.66699 12.501 -5
s5.5 -7.33301 5.5 -12zM967.979 -112.994c0 -5.33301 -4.33203 -9.33398 -12.999 -12.001c-57.333 -22 -113.5 -36.5 -168.5 -43.5s-114.5 -10.5 -178.5 -10.5c-71.333 0 -139.166 3.83301 -203.499 11.5s-129.833 22.834 -196.5 45.501c-7.33301 2 -11 5 -11 9
c0 3.33301 3.33301 6.33301 10 9c27.333 11.333 57.166 21 89.499 29s65.166 14.5 98.499 19.5s66.5 8.5 99.5 10.5s63.833 3 92.5 3c27.333 0 56.833 -1.16699 88.5 -3.5s63.667 -5.83301 96 -10.5s64 -10.667 95 -18s59.833 -16.333 86.5 -27
c10 -3.33301 15 -7.33301 15 -12zM1102.98 223.005c0 2.66699 -0.5 5.5 -1.5 8.5s-3.16699 4.5 -6.5 4.5s-6.33301 -1.5 -9 -4.5s-5 -6.5 -7 -10.5s-3.5 -8.16699 -4.5 -12.5s-1.5 -7.83301 -1.5 -10.5s0.5 -5.5 1.5 -8.5s3.16699 -4.5 6.5 -4.5s6.33301 1.5 9 4.5
s5 6.5 7 10.5s3.5 8.16699 4.5 12.5s1.5 7.83301 1.5 10.5zM623.979 619.005c-1.33301 8 -4.83203 14.6699 -10.499 20.0029s-12.5 9.66602 -20.5 12.999c-0.666992 -1.33301 -0.833984 -4 -0.500977 -8s0.5 -8.66699 0.5 -14v-19
c5.33301 -0.666992 10.333 -0.333984 15 0.999023s10 3.66602 16 6.99902zM571.98 611.008l-0.999023 40.999c-16.667 -5.33301 -27.667 -16.666 -33 -33.999c9.33301 -4.66699 20.666 -7 33.999 -7zM617.981 587.007c-9.33301 6 -21.3311 8.99902 -35.998 8.99902
c-6 0 -12.333 -0.666992 -19 -2s-12.667 -3.66602 -18 -6.99902c4 -6.66699 10 -11.5 18 -14.5s14.667 -4.5 20 -4.5s11.666 1.83301 18.999 5.5s12.666 8.16699 15.999 13.5zM1042.98 -5.99414c0 3.33301 -1.16699 9.16797 -3.5 17.501s-4.83301 15.166 -7.5 20.499
l-31 -31l19 -41c4 6 8.83301 12.333 14.5 19s8.5 11.667 8.5 15zM955.983 39.0078c0 5.33301 -2 9.83301 -6 13.5s-8.66699 5.5 -14 5.5s-9.83301 -1.83301 -13.5 -5.5s-5.5 -8.16699 -5.5 -13.5s2 -10 6 -14s8.66699 -6 14 -6s9.83301 2 13.5 6s5.5 8.66699 5.5 14z
M939.983 -14.9922c0 5.33301 -2.16699 10 -6.5 14s-9.16602 6 -14.499 6s-10 -2 -14 -6s-6 -8.66699 -6 -14s2.16699 -10 6.5 -14s9.16602 -6 14.499 -6s10 2 14 6s6 8.66699 6 14zM863.983 36.0078c2 13.333 -2.33301 25.334 -13 36.001s-24.667 17.667 -42 21
c-17.333 2.66699 -32.833 0.5 -46.5 -6.5s-21.5 -17.167 -23.5 -30.5c-2 -12.667 2.33301 -24.334 13 -35.001s24.667 -17.667 42 -21s32.833 -1.33301 46.5 6s21.5 17.333 23.5 30zM598.983 263.009c0 4.66699 -1.66797 8.66699 -5.00098 12s-7.66602 5 -12.999 5
c-4.66699 0 -8.5 -1.66699 -11.5 -5s-4.5 -7.33301 -4.5 -12s1.66699 -8.66699 5 -12s7.33301 -5 12 -5s8.66699 1.66699 12 5s5 7.33301 5 12zM698.982 81.0088c0 5.33301 -2 9.83301 -6 13.5s-8.66699 5.5 -14 5.5s-9.83301 -1.83301 -13.5 -5.5s-5.5 -8.16699 -5.5 -13.5
s2 -10 6 -14s8.66699 -6 14 -6s9.83301 2 13.5 6s5.5 8.66699 5.5 14zM692.982 25.0088c0 5.33301 -2.16797 10 -6.50098 14s-9.16602 6 -14.499 6c-6 0 -10.833 -2 -14.5 -6s-5.5 -8.66699 -5.5 -14c0 -6 2 -11 6 -15s8.66699 -6 14 -6c6 0 11 2 15 6s6 9 6 15z
M611.981 69.0088l-13.998 22c-3.33301 5.33301 -6.83301 10.5 -10.5 15.5s-6.16699 7.5 -7.5 7.5c-2 0 -4.66699 -2.5 -8 -7.5l-10 -15.5c-4 -6.66699 -8 -14 -12 -22c4.66699 -8.66699 9 -16.334 13 -23.001c3.33301 -6 6.66602 -11.333 9.99902 -16s6 -7 8 -7
s4.66699 2.33301 8 7s6.66602 10 9.99902 16c4 6.66699 8.33301 14.334 13 23.001zM498.983 81.0088c0 5.33301 -2 9.83301 -6 13.5s-8.66699 5.5 -14 5.5s-9.83301 -1.83301 -13.5 -5.5s-5.5 -8.16699 -5.5 -13.5s2 -10 6 -14s8.66699 -6 14 -6s9.83301 2 13.5 6
s5.5 8.66699 5.5 14zM505.983 24.0088c0 5.33301 -2.16699 10 -6.5 14s-9.16602 6 -14.499 6s-10 -2 -14 -6s-6 -8.66699 -6 -14c0 -6 2.16699 -11 6.5 -15s9.16602 -6 14.499 -6s10 2 14 6s6 9 6 15zM414.983 57.0088c-2 12.667 -9.66699 22.667 -23 30
s-28.666 9.33301 -45.999 6c-17.333 -2.66699 -31.333 -9.5 -42 -20.5s-15 -22.833 -13 -35.5c2 -13.333 9.66699 -23.5 23 -30.5s28.666 -9.16699 45.999 -6.5c17.333 3.33301 31.5 10.333 42.5 21s15.167 22.667 12.5 36zM81.9834 202.009
c0 2.66699 -0.666992 6.16699 -2 10.5s-3 8.5 -5 12.5s-4.33301 7.5 -7 10.5s-5.66699 4.5 -9 4.5s-5.33301 -2 -6 -6s-1 -7.33301 -1 -10s0.5 -6 1.5 -10s2.5 -8 4.5 -12s4.33301 -7.33301 7 -10s5.66699 -4 9 -4s5.5 1.66699 6.5 5s1.5 6.33301 1.5 9zM229.983 36.0088
c0 5.33301 -2 10 -6 14s-8.66699 6 -14 6s-9.83301 -2 -13.5 -6s-5.5 -8.66699 -5.5 -14s2 -9.83301 6 -13.5s8.66699 -5.5 14 -5.5c12.667 0 19 6.33301 19 19zM249.983 -16.9912c0 5.33301 -2.16699 10 -6.5 14s-9.16602 6 -14.499 6s-10 -2 -14 -6s-6 -8.66699 -6 -14
s2.16699 -10 6.5 -14s9.16602 -6 14.499 -6s10 2 14 6s6 8.66699 6 14zM147.983 1.00879l-33 26.998c-1.33301 -7.33301 -2.5 -15.666 -3.5 -24.999s-1.5 -14.666 -1.5 -15.999c0 -3.33301 4.16699 -8.5 12.5 -15.5l22.5 -18.5c2 6 3 15.333 3 28v20z" />
    <glyph glyph-name="twosuperior" unicode="&#xb2;" horiz-adv-x="443" 
d="M402 326l-361.996 0.000976562l188 226c14 17.333 26.833 35.166 38.5 53.499s17.5 35.166 17.5 50.499c0 19.333 -6 33.833 -18 43.5s-24.667 14.5 -38 14.5c-38.667 0 -72.334 -20.333 -101.001 -61l-73 72c24 28 50 50 78 66s62 24 102 24
c22 0 42.667 -3.16699 62 -9.5s36.166 -15.666 50.499 -27.999s25.666 -28 33.999 -47s12.5 -41.167 12.5 -66.5c0 -16 -2.16699 -31.333 -6.5 -46s-10.333 -28.667 -18 -42s-16.334 -26.5 -26.001 -39.5l-29.5 -38.5l-53 -67h142v-105z" />
    <glyph glyph-name="threesuperior" unicode="&#xb3;" horiz-adv-x="455" 
d="M415 474c0 -26 -4.83301 -48.832 -14.5 -68.499s-22.5 -36 -38.5 -49s-34.5 -22.833 -55.5 -29.5s-43.167 -10 -66.5 -10c-40 0 -76.333 8 -109 24s-63 41.667 -91 77l73 75c19.333 -21.333 39.166 -39 59.499 -53s41.833 -21 64.5 -21
c19.333 0 35.666 4.83301 48.999 14.5s20 24.167 20 43.5c0 13.333 -3.83301 23.5 -11.5 30.5s-17.334 12.167 -29.001 15.5s-24.167 5.33301 -37.5 6s-26 1 -38 1l-1 83c11.333 0 23.333 0.333008 36 1s24.334 2.66699 35.001 6s19.5 8.33301 26.5 15
s10.5 16.334 10.5 29.001c0 16.667 -5.66699 29 -17 37s-25.333 12 -42 12c-22 0 -41.667 -4.83301 -59 -14.5s-33.666 -26.167 -48.999 -49.5l-75 76c26 32 53.167 55 81.5 69s60.833 21 97.5 21c20 0 40.167 -3.16699 60.5 -9.5s38.833 -15.5 55.5 -27.5
s30.334 -26.833 41.001 -44.5s16 -38.167 16 -61.5c0 -20.667 -5.5 -39.334 -16.5 -56.001s-24.167 -30.334 -39.5 -41.001c18 -10 33.167 -23.667 45.5 -41s18.5 -37.333 18.5 -60z" />
    <glyph glyph-name="acute" unicode="&#xb4;" horiz-adv-x="590" 
d="M446 843l-144 -193h-106l90 193h160z" />
    <glyph glyph-name="mu" unicode="&#xb5;" horiz-adv-x="637" 
d="M577 0l-143 -0.000976562v48c-9.33301 -10 -20.333 -18.833 -33 -26.5s-26 -14.167 -40 -19.5s-28.5 -9.33301 -43.5 -12s-28.833 -4 -41.5 -4c-29.333 0 -57 4.33301 -83 13v-250h-143v830h144v-345c0 -18 2.5 -34.667 7.5 -50s12.5 -28.666 22.5 -39.999
s22.167 -20.333 36.5 -27s30.833 -10 49.5 -10c48 0 89.333 16.333 124 49v423h143v-579z" />
    <glyph glyph-name="paragraph" unicode="&#xb6;" horiz-adv-x="631" 
d="M651 717l-67 -0.00195312v-995h-102v995h-74v-995h-108v617c-26 2 -46.5 4 -61.5 6s-28.833 5.33301 -41.5 10c-23.333 7.33301 -44.666 18.333 -63.999 33s-35.833 31.834 -49.5 51.501s-24.334 41.334 -32.001 65.001s-11.5 48.5 -11.5 74.5c0 42.667 10.333 81 31 115
s49 59.667 85 77c40.667 19.333 96.667 29 168 29h327v-83z" />
    <glyph glyph-name="periodcentered" unicode="&#xb7;" horiz-adv-x="268" 
d="M213 300h-153v153h153v-153z" />
    <glyph glyph-name="cedilla" unicode="&#xb8;" horiz-adv-x="644" 
d="M467 -160c0 -11.333 -2.49805 -22.667 -7.49805 -34s-12.333 -21.666 -22 -30.999s-21 -17 -34 -23s-27.5 -9 -43.5 -9c-20.667 0 -38.834 2.33301 -54.501 7s-30.5 12.667 -44.5 24l7 34c5.33301 -3.33301 11.666 -6.16602 18.999 -8.49902s14.333 -3.5 21 -3.5
c17.333 0 31.666 5.16699 42.999 15.5s17 22.166 17 35.499c0 15.333 -5.5 28.333 -16.5 39s-25.5 16 -43.5 16c-4 0 -8.16699 -0.333008 -12.5 -1s-8.16602 -1.33398 -11.499 -2.00098l19 97h79l-12 -53c33.333 -5.33301 57.833 -18 73.5 -38s23.5 -41.667 23.5 -65z" />
    <glyph glyph-name="onesuperior" unicode="&#xb9;" horiz-adv-x="252" 
d="M212 329h-102v357l-70 -28v96l172 68v-493z" />
    <glyph glyph-name="ordmasculine" unicode="&#xba;" horiz-adv-x="452" 
d="M402 623c0 -26.667 -5 -51.667 -15 -75s-23.667 -43.833 -41 -61.5s-37.666 -31.5 -60.999 -41.5s-48 -15 -74 -15c-26.667 0 -51.5 5 -74.5 15s-43.167 23.833 -60.5 41.5s-31 38.167 -41 61.5s-15 48.333 -15 75s5 51.667 15 75s23.667 43.666 41 60.999
s37.5 31 60.5 41s47.833 15 74.5 15c26 0 50.667 -5 74 -15s43.666 -23.667 60.999 -41s31 -37.666 41 -60.999s15 -48.333 15 -75zM301 623c0 13.333 -2.49902 26 -7.49902 38s-11.5 22.333 -19.5 31s-17.5 15.5 -28.5 20.5s-22.5 7.5 -34.5 7.5
c-24.667 0 -45.834 -9.33301 -63.501 -28s-26.5 -41.667 -26.5 -69c0 -14 2.33301 -26.833 7 -38.5s11.167 -22 19.5 -31s18 -16 29 -21s22.5 -7.5 34.5 -7.5s23.5 2.5 34.5 7.5s20.5 12 28.5 21s14.5 19.333 19.5 31s7.5 24.5 7.5 38.5z" />
    <glyph glyph-name="guillemotright" unicode="&#xbb;" horiz-adv-x="616" 
d="M596 273l-180 -273h-149l180 273l-180 272h149zM347 273l-178 -273h-149l180 273l-180 272h149z" />
    <glyph glyph-name="onequarter" unicode="&#xbc;" horiz-adv-x="834" 
d="M794 100h-65v-100h-105v100h-211v75l227 305h89v-285h65v-95zM703 795l-536 -846h-125l537 846h124zM212 329h-102v357l-70 -28v96l172 68v-493zM624 195v118l-89 -117z" />
    <glyph glyph-name="onehalf" unicode="&#xbd;" horiz-adv-x="912" 
d="M872 0l-361.998 0.000976562l188 226c14 17.333 26.833 35.166 38.5 53.499s17.5 35.166 17.5 50.499c0 19.333 -6 33.833 -18 43.5s-24.667 14.5 -38 14.5c-38.667 0 -72.334 -20.333 -101.001 -61l-73 72c24 28 50 50 78 66s62 24 102 24c22 0 42.667 -3.16699 62 -9.5
s36.166 -15.666 50.499 -27.999s25.5 -28 33.5 -47s12 -41.167 12 -66.5c0 -32.667 -8 -62 -24 -88s-34.333 -52 -55 -78l-53 -68l142 1v-105zM703.002 795.001l-536 -846h-125l537 846h124zM212.002 329.001h-102v357l-70 -28v96l172 68v-493z" />
    <glyph glyph-name="threequarters" unicode="&#xbe;" horiz-adv-x="967" 
d="M927 100h-64v-100h-106v100h-211v75l227 305h90v-285h64v-95zM837 795l-537 -846h-124l536 846h125zM415 474c0 -26 -4.83301 -48.832 -14.5 -68.499s-22.5 -36 -38.5 -49s-34.5 -22.833 -55.5 -29.5s-43.167 -10 -66.5 -10c-40 0 -76.333 8 -109 24s-63 41.667 -91 77
l73 75c19.333 -21.333 39.166 -39 59.499 -53s41.833 -21 64.5 -21c19.333 0 35.666 4.83301 48.999 14.5s20 24.167 20 43.5c0 13.333 -3.83301 23.5 -11.5 30.5s-17.334 12.167 -29.001 15.5s-24.167 5.33301 -37.5 6s-26 1 -38 1l-1 83c11.333 0 23.333 0.333008 36 1
s24.334 2.66699 35.001 6s19.5 8.33301 26.5 15s10.5 16.334 10.5 29.001c0 16.667 -5.66699 29 -17 37s-25.333 12 -42 12c-22 0 -41.667 -4.83301 -59 -14.5s-33.666 -26.167 -48.999 -49.5l-75 76c26 32 53.167 55 81.5 69s60.833 21 97.5 21
c20 0 40.167 -3.16699 60.5 -9.5s38.833 -15.5 55.5 -27.5s30.334 -26.833 41.001 -44.5s16 -38.167 16 -61.5c0 -20.667 -5.5 -39.334 -16.5 -56.001s-24.167 -30.334 -39.5 -41.001c18 -10 33.167 -23.667 45.5 -41s18.5 -37.333 18.5 -60zM757 195.001v118l-88 -117z" />
    <glyph glyph-name="questiondown" unicode="&#xbf;" horiz-adv-x="564" 
d="M435 651h-149v149h149v-149zM524 73c-27.333 -27.333 -60.6689 -49 -100.002 -65s-83.666 -24 -132.999 -24c-35.333 0 -68.166 5.16699 -98.499 15.5s-56.833 25.166 -79.5 44.499s-40.5 42.333 -53.5 69s-19.5 56.667 -19.5 90c0 51.333 14 95.833 42 133.5
s63 66.167 105 85.5l52 24c16.667 7.33301 29.167 17 37.5 29s12.5 30.333 12.5 55v48h143v-49c0 -31.333 -2 -57.333 -6 -78s-10 -38.334 -18 -53.001s-18.333 -26.667 -31 -36s-27.667 -18 -45 -26l-46 -21c-38 -17.333 -63.333 -35.5 -76 -54.5s-19 -37.833 -19 -56.5
c0 -11.333 2.66699 -22.166 8 -32.499s12.666 -19.5 21.999 -27.5s20.833 -14.5 34.5 -19.5s28.834 -7.5 45.501 -7.5c25.333 0 49.5 4.33301 72.5 13s44.167 23.334 63.5 44.001z" />
    <glyph glyph-name="Agrave" unicode="&#xc0;" horiz-adv-x="887" 
d="M542 871h-106l-144 193h161zM887 0h-170l-74 160h-388l-75 -160h-170l378 800h121zM582 289l-133 288l-135 -288h268z" />
    <glyph glyph-name="Aacute" unicode="&#xc1;" horiz-adv-x="887" 
d="M600 1064l-144 -193h-106l90 193h160zM887 0h-170l-74 160h-388l-75 -160h-170l378 800h121zM582 289l-133 288l-135 -288h268z" />
    <glyph glyph-name="Acircumflex" unicode="&#xc2;" horiz-adv-x="887" 
d="M642 871h-108l-85 85l-86 -85h-108l129 193h129zM887 0h-170l-74 160h-388l-75 -160h-170l378 800h121zM582 289l-133 288l-135 -288h268z" />
    <glyph glyph-name="Atilde" unicode="&#xc3;" horiz-adv-x="887" 
d="M655 1042c-0.666992 -20.667 -3.33691 -41.166 -8.00391 -61.499s-12.334 -38.666 -23.001 -54.999s-24.167 -29.5 -40.5 -39.5s-36.5 -15 -60.5 -15c-15.333 0 -29.666 2.33301 -42.999 7s-26.166 9.66699 -38.499 15s-24.666 10.333 -36.999 15s-24.5 7 -36.5 7
s-21 -4.66699 -27 -14s-9.66699 -19.333 -11 -30h-86c0 20 2.5 40.167 7.5 60.5s12.667 38.666 23 54.999s23.833 29.666 40.5 39.999s36.667 15.5 60 15.5c14.667 0 28.834 -2.33301 42.501 -7s26.834 -9.66699 39.501 -15l36.5 -15c11.667 -4.66699 22.5 -7 32.5 -7
c13.333 0 23.333 4.33301 30 13s11 19 13 31h86zM886.997 0.000976562h-170l-74 160h-388l-75 -160h-170l378 800h121zM581.997 289.001l-133 288l-135 -288h268z" />
    <glyph glyph-name="Adieresis" unicode="&#xc4;" horiz-adv-x="887" 
d="M628 871h-130v130h130v-130zM398 871h-130v130h130v-130zM887 0h-170l-74 160h-388l-75 -160h-170l378 800h121zM582 289l-133 288l-135 -288h268z" />
    <glyph glyph-name="Aring" unicode="&#xc5;" horiz-adv-x="887" 
d="M568 990c0 -16.667 -3.16699 -32.167 -9.5 -46.5s-14.833 -26.833 -25.5 -37.5s-23.334 -19.167 -38.001 -25.5s-30 -9.5 -46 -9.5s-31.167 3.16699 -45.5 9.5s-26.833 14.833 -37.5 25.5s-19.167 23.167 -25.5 37.5s-9.5 29.833 -9.5 46.5c0 16 3.16699 31.167 9.5 45.5
s14.833 26.833 25.5 37.5s23.167 19.167 37.5 25.5s29.5 9.5 45.5 9.5s31.333 -3.16699 46 -9.5s27.334 -14.833 38.001 -25.5s19.167 -23.167 25.5 -37.5s9.5 -29.5 9.5 -45.5zM887 0h-170l-74 160h-388l-75 -160h-170l378 800h121zM493 990c0 12 -4.33301 22.167 -13 30.5
s-19 12.5 -31 12.5s-22.333 -4.16699 -31 -12.5s-13 -18.5 -13 -30.5c0 -12.667 4.33301 -23.167 13 -31.5s19 -12.5 31 -12.5s22.333 4.16699 31 12.5s13 18.833 13 31.5zM582 289l-133 288l-135 -288h268z" />
    <glyph glyph-name="AE" unicode="&#xc6;" horiz-adv-x="1085" 
d="M1075 0h-368h-160l-17 160h-268l-92 -160h-170l463 800h120v-1h408l14 -128h-376l19 -191h372l13 -125h-371l23 -220h376zM517 289l-29 269l-153 -269h182z" />
    <glyph glyph-name="Ccedilla" unicode="&#xc7;" horiz-adv-x="812" 
d="M812 144c-36.667 -44 -80.1641 -79.8379 -130.497 -107.505s-105.833 -44.167 -166.5 -49.5l-10 -44c33.333 -5.33301 57.833 -18 73.5 -38s23.5 -41.667 23.5 -65c0 -11.333 -2.5 -22.666 -7.5 -33.999s-12.333 -21.666 -22 -30.999s-21 -17 -34 -23s-27.5 -9 -43.5 -9
c-20.667 0 -38.834 2.33301 -54.501 7s-30.5 12.667 -44.5 24l7 34c5.33301 -3.33301 11.666 -6.16602 18.999 -8.49902s14.333 -3.5 21 -3.5c17.333 0 31.666 5.16699 42.999 15.5s17 22.166 17 35.499c0 15.333 -5.5 28.333 -16.5 39s-25.5 16 -43.5 16
c-4 0 -8.16699 -0.333008 -12.5 -1s-8.16602 -1.33398 -11.499 -2.00098l17 88c-54.667 4.66699 -105.5 18.667 -152.5 42s-87.833 53.5 -122.5 90.5s-61.834 79.5 -81.501 127.5s-29.5 99 -29.5 153c0 58 11.167 112.167 33.5 162.5s52.833 94.333 91.5 132
s84 67.167 136 88.5s107.667 32 167 32c68.667 0 131.5 -14.333 188.5 -43s104.5 -66 142.5 -112l-107 -110c-24.667 35.333 -56.5 63.833 -95.5 85.5s-81.833 32.5 -128.5 32.5c-37.333 0 -72.5 -7.16699 -105.5 -21.5s-61.833 -33.666 -86.5 -57.999
s-44.167 -52.666 -58.5 -84.999s-21.5 -66.833 -21.5 -103.5c0 -36 7.16699 -70.167 21.5 -102.5s33.833 -60.666 58.5 -84.999s53.5 -43.666 86.5 -57.999s68.167 -21.5 105.5 -21.5c49.333 0 93 11.167 131 33.5s69.667 51.833 95 88.5z" />
    <glyph glyph-name="Egrave" unicode="&#xc8;" horiz-adv-x="648" 
d="M432 871h-106l-144 193h161zM608 0h-528v799h528v-128h-376v-191h371v-125h-371v-220h376v-135z" />
    <glyph glyph-name="Eacute" unicode="&#xc9;" horiz-adv-x="648" 
d="M517 1064l-144 -193h-106l90 193h160zM608 0h-528v799h528v-128h-376v-191h371v-125h-371v-220h376v-135z" />
    <glyph glyph-name="Ecircumflex" unicode="&#xca;" horiz-adv-x="648" 
d="M540 871h-108l-85 85l-86 -85h-108l129 193h129zM608 0h-528v799h528v-128h-376v-191h371v-125h-371v-220h376v-135z" />
    <glyph glyph-name="Edieresis" unicode="&#xcb;" horiz-adv-x="648" 
d="M522 871h-130v130h130v-130zM292 871h-130v130h130v-130zM608 0h-528v799h528v-128h-376v-191h371v-125h-371v-220h376v-135z" />
    <glyph glyph-name="Igrave" unicode="&#xcc;" horiz-adv-x="305" 
d="M252 871h-106l-144 193h161zM235 0h-155v799h155v-799z" />
    <glyph glyph-name="Iacute" unicode="&#xcd;" horiz-adv-x="305" 
d="M300 1064l-144 -193h-106l90 193h160zM235 0h-155v799h155v-799z" />
    <glyph glyph-name="Icircumflex" unicode="&#xce;" horiz-adv-x="305" 
d="M352 871h-108l-85 85l-86 -85h-108l129 193h129zM235 0h-155v799h155v-799z" />
    <glyph glyph-name="Idieresis" unicode="&#xcf;" horiz-adv-x="305" 
d="M337 871h-130v130h130v-130zM107 871h-130v130h130v-130zM235 0h-155v799h155v-799z" />
    <glyph glyph-name="Eth" unicode="&#xd0;" horiz-adv-x="831" 
d="M791 400c0 -55.333 -9.33301 -107.167 -28 -155.5s-44.667 -90.666 -78 -126.999s-73.166 -65 -119.499 -86s-96.833 -31.5 -151.5 -31.5h-334v336h-60v134h60v330h334c54.667 0 105.167 -10.667 151.5 -32s86.166 -50 119.499 -86s59.333 -78.333 78 -127
s28 -100.334 28 -155.001zM633 403.999c0 34 -5.66602 67.499 -16.999 100.499s-28 62.333 -50 88s-49.333 46.334 -82 62.001s-70.334 23.5 -113.001 23.5h-136v-208h130v-134h-130v-204h136c41.333 0 78.166 7.33301 110.499 22s59.833 34.5 82.5 59.5
s39.834 54 51.501 87s17.5 67.5 17.5 103.5z" />
    <glyph glyph-name="Ntilde" unicode="&#xd1;" horiz-adv-x="815" 
d="M619 1042c-0.666992 -20.667 -3.33691 -41.166 -8.00391 -61.499s-12.334 -38.666 -23.001 -54.999s-24.167 -29.5 -40.5 -39.5s-36.5 -15 -60.5 -15c-15.333 0 -29.666 2.33301 -42.999 7s-26.166 9.66699 -38.499 15s-24.666 10.333 -36.999 15s-24.5 7 -36.5 7
s-21 -4.66699 -27 -14s-9.66699 -19.333 -11 -30h-86c0 20 2.5 40.167 7.5 60.5s12.667 38.666 23 54.999s23.833 29.666 40.5 39.999s36.667 15.5 60 15.5c14.667 0 28.834 -2.33301 42.501 -7s26.834 -9.66699 39.501 -15l36.5 -15c11.667 -4.66699 22.5 -7 32.5 -7
c13.333 0 23.333 4.33301 30 13s11 19 13 31h86zM744.997 0.000976562h-152l-361 561v-561h-152v800h174l339 -522v522h152v-800z" />
    <glyph glyph-name="Ograve" unicode="&#xd2;" horiz-adv-x="939" 
d="M567 871h-106l-144 193h161zM899 400c0 -57.333 -11.167 -111.331 -33.5 -161.998s-52.833 -94.667 -91.5 -132s-83.667 -66.833 -135 -88.5s-106 -32.5 -164 -32.5s-112.833 10.833 -164.5 32.5s-96.834 51.167 -135.501 88.5s-69.167 81.166 -91.5 131.499
s-33.5 104.5 -33.5 162.5s11.167 112.333 33.5 163s52.833 94.667 91.5 132s83.834 66.666 135.501 87.999s106.5 32 164.5 32s112.667 -10.667 164 -32s96.333 -50.833 135 -88.5s69.167 -81.667 91.5 -132s33.5 -104.5 33.5 -162.5zM743 400.002
c0 36.667 -7 71.167 -21 103.5s-33.167 60.666 -57.5 84.999s-52.833 43.666 -85.5 57.999s-67.334 21.5 -104.001 21.5c-37.333 0 -72.333 -7.16699 -105 -21.5s-61.167 -33.666 -85.5 -57.999s-43.5 -52.666 -57.5 -84.999s-21 -66.833 -21 -103.5
c0 -36 7 -70.333 21 -103s33.167 -61.167 57.5 -85.5s52.833 -43.666 85.5 -57.999s67.667 -21.5 105 -21.5c36.667 0 71.334 7.16699 104.001 21.5s61.167 33.666 85.5 57.999s43.5 52.833 57.5 85.5s21 67 21 103z" />
    <glyph glyph-name="Oacute" unicode="&#xd3;" horiz-adv-x="939" 
d="M635 1064l-144 -193h-106l90 193h160zM899 400c0 -57.333 -11.167 -111.331 -33.5 -161.998s-52.833 -94.667 -91.5 -132s-83.667 -66.833 -135 -88.5s-106 -32.5 -164 -32.5s-112.833 10.833 -164.5 32.5s-96.834 51.167 -135.501 88.5s-69.167 81.166 -91.5 131.499
s-33.5 104.5 -33.5 162.5s11.167 112.333 33.5 163s52.833 94.667 91.5 132s83.834 66.666 135.501 87.999s106.5 32 164.5 32s112.667 -10.667 164 -32s96.333 -50.833 135 -88.5s69.167 -81.667 91.5 -132s33.5 -104.5 33.5 -162.5zM743 400.002
c0 36.667 -7 71.167 -21 103.5s-33.167 60.666 -57.5 84.999s-52.833 43.666 -85.5 57.999s-67.334 21.5 -104.001 21.5c-37.333 0 -72.333 -7.16699 -105 -21.5s-61.167 -33.666 -85.5 -57.999s-43.5 -52.666 -57.5 -84.999s-21 -66.833 -21 -103.5
c0 -36 7 -70.333 21 -103s33.167 -61.167 57.5 -85.5s52.833 -43.666 85.5 -57.999s67.667 -21.5 105 -21.5c36.667 0 71.334 7.16699 104.001 21.5s61.167 33.666 85.5 57.999s43.5 52.833 57.5 85.5s21 67 21 103z" />
    <glyph glyph-name="Ocircumflex" unicode="&#xd4;" horiz-adv-x="939" 
d="M668 871h-108l-85 85l-86 -85h-108l129 193h129zM899 400c0 -57.333 -11.167 -111.331 -33.5 -161.998s-52.833 -94.667 -91.5 -132s-83.667 -66.833 -135 -88.5s-106 -32.5 -164 -32.5s-112.833 10.833 -164.5 32.5s-96.834 51.167 -135.501 88.5
s-69.167 81.166 -91.5 131.499s-33.5 104.5 -33.5 162.5s11.167 112.333 33.5 163s52.833 94.667 91.5 132s83.834 66.666 135.501 87.999s106.5 32 164.5 32s112.667 -10.667 164 -32s96.333 -50.833 135 -88.5s69.167 -81.667 91.5 -132s33.5 -104.5 33.5 -162.5z
M743 400.002c0 36.667 -7 71.167 -21 103.5s-33.167 60.666 -57.5 84.999s-52.833 43.666 -85.5 57.999s-67.334 21.5 -104.001 21.5c-37.333 0 -72.333 -7.16699 -105 -21.5s-61.167 -33.666 -85.5 -57.999s-43.5 -52.666 -57.5 -84.999s-21 -66.833 -21 -103.5
c0 -36 7 -70.333 21 -103s33.167 -61.167 57.5 -85.5s52.833 -43.666 85.5 -57.999s67.667 -21.5 105 -21.5c36.667 0 71.334 7.16699 104.001 21.5s61.167 33.666 85.5 57.999s43.5 52.833 57.5 85.5s21 67 21 103z" />
    <glyph glyph-name="Otilde" unicode="&#xd5;" horiz-adv-x="939" 
d="M680 1042c-0.666992 -20.667 -3.33691 -41.166 -8.00391 -61.499s-12.334 -38.666 -23.001 -54.999s-24.167 -29.5 -40.5 -39.5s-36.5 -15 -60.5 -15c-15.333 0 -29.666 2.33301 -42.999 7s-26.166 9.66699 -38.499 15s-24.666 10.333 -36.999 15s-24.5 7 -36.5 7
s-21 -4.66699 -27 -14s-9.66699 -19.333 -11 -30h-86c0 20 2.5 40.167 7.5 60.5s12.667 38.666 23 54.999s23.833 29.666 40.5 39.999s36.667 15.5 60 15.5c14.667 0 28.834 -2.33301 42.501 -7s26.834 -9.66699 39.501 -15l36.5 -15c11.667 -4.66699 22.5 -7 32.5 -7
c13.333 0 23.333 4.33301 30 13s11 19 13 31h86zM898.997 400.001c0 -57.333 -11.167 -111.331 -33.5 -161.998s-52.833 -94.667 -91.5 -132s-83.667 -66.833 -135 -88.5s-106 -32.5 -164 -32.5s-112.833 10.833 -164.5 32.5s-96.834 51.167 -135.501 88.5
s-69.167 81.166 -91.5 131.499s-33.5 104.5 -33.5 162.5s11.167 112.333 33.5 163s52.833 94.667 91.5 132s83.834 66.666 135.501 87.999s106.5 32 164.5 32s112.667 -10.667 164 -32s96.333 -50.833 135 -88.5s69.167 -81.667 91.5 -132s33.5 -104.5 33.5 -162.5z
M742.997 400.003c0 36.667 -7 71.167 -21 103.5s-33.167 60.666 -57.5 84.999s-52.833 43.666 -85.5 57.999s-67.334 21.5 -104.001 21.5c-37.333 0 -72.333 -7.16699 -105 -21.5s-61.167 -33.666 -85.5 -57.999s-43.5 -52.666 -57.5 -84.999s-21 -66.833 -21 -103.5
c0 -36 7 -70.333 21 -103s33.167 -61.167 57.5 -85.5s52.833 -43.666 85.5 -57.999s67.667 -21.5 105 -21.5c36.667 0 71.334 7.16699 104.001 21.5s61.167 33.666 85.5 57.999s43.5 52.833 57.5 85.5s21 67 21 103z" />
    <glyph glyph-name="Odieresis" unicode="&#xd6;" horiz-adv-x="939" 
d="M651 871h-130v130h130v-130zM421 871h-130v130h130v-130zM899 400c0 -57.333 -11.167 -111.331 -33.5 -161.998s-52.833 -94.667 -91.5 -132s-83.667 -66.833 -135 -88.5s-106 -32.5 -164 -32.5s-112.833 10.833 -164.5 32.5s-96.834 51.167 -135.501 88.5
s-69.167 81.166 -91.5 131.499s-33.5 104.5 -33.5 162.5s11.167 112.333 33.5 163s52.833 94.667 91.5 132s83.834 66.666 135.501 87.999s106.5 32 164.5 32s112.667 -10.667 164 -32s96.333 -50.833 135 -88.5s69.167 -81.667 91.5 -132s33.5 -104.5 33.5 -162.5z
M743 400.002c0 36.667 -7 71.167 -21 103.5s-33.167 60.666 -57.5 84.999s-52.833 43.666 -85.5 57.999s-67.334 21.5 -104.001 21.5c-37.333 0 -72.333 -7.16699 -105 -21.5s-61.167 -33.666 -85.5 -57.999s-43.5 -52.666 -57.5 -84.999s-21 -66.833 -21 -103.5
c0 -36 7 -70.333 21 -103s33.167 -61.167 57.5 -85.5s52.833 -43.666 85.5 -57.999s67.667 -21.5 105 -21.5c36.667 0 71.334 7.16699 104.001 21.5s61.167 33.666 85.5 57.999s43.5 52.833 57.5 85.5s21 67 21 103z" />
    <glyph glyph-name="multiply" unicode="&#xd7;" horiz-adv-x="659" 
d="M599 216l-105 -105l-159 159l-150 -151l-107 105l151 152l-159 159l105 105l160 -159l151 151l105 -105l-150 -151z" />
    <glyph glyph-name="Oslash" unicode="&#xd8;" horiz-adv-x="939" 
d="M899 400c0 -57.333 -11.166 -111.332 -33.499 -161.999s-52.833 -94.667 -91.5 -132s-83.667 -66.833 -135 -88.5s-106 -32.5 -164 -32.5c-38 0 -74.167 4.5 -108.5 13.5s-66.833 21.833 -97.5 38.5l-45 -60h-124l87 118c-42 38 -75.333 83.167 -100 135.5
s-37 108.833 -37 169.5c0 58 11.167 112.333 33.5 163s52.833 94.667 91.5 132s83.834 66.666 135.501 87.999s106.5 32 164.5 32c37.333 0 73.166 -4.5 107.499 -13.5s67.166 -21.833 98.499 -38.5l44 60h124l-86 -118c42 -38 75.167 -83 99.5 -135
s36.5 -108.667 36.5 -170zM743.001 400.001c0 35.333 -6.33301 68.501 -19 99.501s-30.334 58.5 -53.001 82.5l-313 -424c36.667 -17.333 75.667 -26 117 -26c36.667 0 71.334 7.16699 104.001 21.5s61.167 33.666 85.5 57.999s43.5 52.833 57.5 85.5s21 67 21 103z
M591.001 642.002c-36 17.333 -74.668 25.998 -116.001 25.998c-37.333 0 -72.333 -7.16699 -105 -21.5s-61.167 -33.666 -85.5 -57.999s-43.5 -52.666 -57.5 -84.999s-21 -66.833 -21 -103.5c0 -34.667 6.33301 -67.5 19 -98.5s30.334 -58.833 53.001 -83.5z" />
    <glyph glyph-name="Ugrave" unicode="&#xd9;" horiz-adv-x="831" 
d="M518 871h-106l-144 193h161zM781 800v-434.003c0 -53.333 -8 -103 -24 -149s-39.167 -86.167 -69.5 -120.5s-67.333 -61.333 -111 -81s-93.5 -29.5 -149.5 -29.5c-54.667 0 -104 9.66699 -148 29s-81.5 45.833 -112.5 79.5s-54.833 73.334 -71.5 119.001
s-25 94.834 -25 147.501v439h155v-440c0 -30.667 4.33301 -59.5 13 -86.5s21.334 -50.5 38.001 -70.5s37.5 -35.833 62.5 -47.5s53.5 -17.5 85.5 -17.5c34 0 63.5 5.5 88.5 16.5s45.667 26.333 62 46s28.666 42.834 36.999 69.501s12.5 56 12.5 88v442h157z" />
    <glyph glyph-name="Uacute" unicode="&#xda;" horiz-adv-x="831" 
d="M580 1064l-144 -193h-106l90 193h160zM781 800v-434.003c0 -53.333 -8 -103 -24 -149s-39.167 -86.167 -69.5 -120.5s-67.333 -61.333 -111 -81s-93.5 -29.5 -149.5 -29.5c-54.667 0 -104 9.66699 -148 29s-81.5 45.833 -112.5 79.5s-54.833 73.334 -71.5 119.001
s-25 94.834 -25 147.501v439h155v-440c0 -30.667 4.33301 -59.5 13 -86.5s21.334 -50.5 38.001 -70.5s37.5 -35.833 62.5 -47.5s53.5 -17.5 85.5 -17.5c34 0 63.5 5.5 88.5 16.5s45.667 26.333 62 46s28.666 42.834 36.999 69.501s12.5 56 12.5 88v442h157z" />
    <glyph glyph-name="Ucircumflex" unicode="&#xdb;" horiz-adv-x="831" 
d="M619 871h-108l-85 85l-86 -85h-108l129 193h129zM781 800v-434.003c0 -53.333 -8 -103 -24 -149s-39.167 -86.167 -69.5 -120.5s-67.333 -61.333 -111 -81s-93.5 -29.5 -149.5 -29.5c-54.667 0 -104 9.66699 -148 29s-81.5 45.833 -112.5 79.5
s-54.833 73.334 -71.5 119.001s-25 94.834 -25 147.501v439h155v-440c0 -30.667 4.33301 -59.5 13 -86.5s21.334 -50.5 38.001 -70.5s37.5 -35.833 62.5 -47.5s53.5 -17.5 85.5 -17.5c34 0 63.5 5.5 88.5 16.5s45.667 26.333 62 46s28.666 42.834 36.999 69.501
s12.5 56 12.5 88v442h157z" />
    <glyph glyph-name="Udieresis" unicode="&#xdc;" horiz-adv-x="831" 
d="M604 871h-130v130h130v-130zM374 871h-130v130h130v-130zM781 800v-434.003c0 -53.333 -8 -103 -24 -149s-39.167 -86.167 -69.5 -120.5s-67.333 -61.333 -111 -81s-93.5 -29.5 -149.5 -29.5c-54.667 0 -104 9.66699 -148 29s-81.5 45.833 -112.5 79.5
s-54.833 73.334 -71.5 119.001s-25 94.834 -25 147.501v439h155v-440c0 -30.667 4.33301 -59.5 13 -86.5s21.334 -50.5 38.001 -70.5s37.5 -35.833 62.5 -47.5s53.5 -17.5 85.5 -17.5c34 0 63.5 5.5 88.5 16.5s45.667 26.333 62 46s28.666 42.834 36.999 69.501
s12.5 56 12.5 88v442h157z" />
    <glyph glyph-name="Yacute" unicode="&#xdd;" horiz-adv-x="812" 
d="M567 1064l-144 -193h-106l90 193h160zM807 799l-326 -472v-328h-157v330l-309 470h180l208 -336l217 336h187z" />
    <glyph glyph-name="Thorn" unicode="&#xde;" horiz-adv-x="628" 
d="M608 400c0 -37.333 -7 -71.5 -21 -102.5s-33.333 -57.5 -58 -79.5s-53.334 -39.167 -86.001 -51.5s-67.667 -18.5 -105 -18.5h-103v-148h-155v799h155v-148h103c37.333 0 72.333 -6.16699 105 -18.5s61.334 -29.5 86.001 -51.5s44 -48.333 58 -79s21 -64.667 21 -102z
M456 402c0 20.667 -3.83301 39 -11.5 55s-18.167 29.667 -31.5 41s-29 20 -47 26s-37.333 9 -58 9h-73v-261h73c20.667 0 40 3 58 9s33.667 14.5 47 25.5s23.833 24.667 31.5 41s11.5 34.5 11.5 54.5z" />
    <glyph glyph-name="germandbls" unicode="&#xdf;" horiz-adv-x="605" 
d="M575 244c0 -80.667 -20.6699 -144.005 -62.0029 -190.005s-102.333 -69 -183 -69c-12.667 0 -24.667 0.833008 -36 2.5s-23.333 4.5 -36 8.5v127c12.667 -4.66699 23.667 -7.66699 33 -9s19.333 -2 30 -2c18.667 0 34.834 3.83301 48.501 11.5
s24.834 17.834 33.501 30.501s15.167 27.334 19.5 44.001s6.5 34.334 6.5 53.001c0 26.667 -4.33301 48.834 -13 66.501s-20.5 31.834 -35.5 42.501s-32.667 17.667 -53 21s-41.833 3.66602 -64.5 0.999023v116c45.333 -2 77.833 7.83301 97.5 29.5s29.5 49.5 29.5 83.5
c0 30 -7.16699 54.833 -21.5 74.5s-37.5 29.5 -69.5 29.5c-36.667 0 -61.667 -13 -75 -39s-20 -66.667 -20 -122v-554h-144v577c0 40.667 4.5 77.5 13.5 110.5s23.5 60.833 43.5 83.5s45.667 40.167 77 52.5s69 18.5 113 18.5c30.667 0 59.667 -5 87 -15
s51.5 -24.333 72.5 -43s37.667 -41.167 50 -67.5s18.5 -55.833 18.5 -88.5c0 -42 -9.66699 -77.667 -29 -107s-45 -51.666 -77 -66.999c18 -6.66699 35.667 -15.834 53 -27.501s32.833 -26.167 46.5 -43.5s24.834 -37.666 33.501 -60.999s13 -49.333 13 -78z" />
    <glyph glyph-name="agrave" unicode="&#xe0;" horiz-adv-x="580" 
d="M369 650h-106l-144 193h161zM530 0l-144.999 -0.000976562v31c-25.333 -17.333 -52.166 -29.333 -80.499 -36s-57.5 -10 -87.5 -10c-28 0 -53.333 4.16699 -76 12.5s-42.334 20.333 -59.001 36s-29.5 34.167 -38.5 55.5s-13.5 45 -13.5 71
c0 32.667 7.16699 61.167 21.5 85.5s33.833 44.666 58.5 60.999s53.5 28.5 86.5 36.5s68.5 12 106.5 12h83c0 34 -11 61 -33 81s-53.667 30 -95 30c-20 0 -40.667 -3.66699 -62 -11s-42.666 -20.666 -63.999 -39.999l-85 86c30.667 29.333 66.167 52 106.5 68
s81.833 24 124.5 24c40 0 75.667 -6.33301 107 -19s56.666 -29 75.999 -49c25.333 -25.333 43.166 -53.666 53.499 -84.999s15.5 -71.333 15.5 -120v-320zM385.001 143.999l-0.000976562 106.999h-66c-20 0 -38.833 -1.33301 -56.5 -4s-33 -7.16699 -46 -13.5
s-23.333 -14.5 -31 -24.5s-11.5 -22 -11.5 -36c0 -20 7.83301 -36.333 23.5 -49s35.834 -19 60.501 -19c21.333 0 42.5 3.33301 63.5 10s42.167 16.334 63.5 29.001z" />
    <glyph glyph-name="aacute" unicode="&#xe1;" horiz-adv-x="580" 
d="M456 843l-144 -193h-106l90 193h160zM530 0l-144.999 -0.000976562v31c-25.333 -17.333 -52.166 -29.333 -80.499 -36s-57.5 -10 -87.5 -10c-28 0 -53.333 4.16699 -76 12.5s-42.334 20.333 -59.001 36s-29.5 34.167 -38.5 55.5s-13.5 45 -13.5 71
c0 32.667 7.16699 61.167 21.5 85.5s33.833 44.666 58.5 60.999s53.5 28.5 86.5 36.5s68.5 12 106.5 12h83c0 34 -11 61 -33 81s-53.667 30 -95 30c-20 0 -40.667 -3.66699 -62 -11s-42.666 -20.666 -63.999 -39.999l-85 86c30.667 29.333 66.167 52 106.5 68
s81.833 24 124.5 24c40 0 75.667 -6.33301 107 -19s56.666 -29 75.999 -49c25.333 -25.333 43.166 -53.666 53.499 -84.999s15.5 -71.333 15.5 -120v-320zM385.001 143.999l-0.000976562 106.999h-66c-20 0 -38.833 -1.33301 -56.5 -4s-33 -7.16699 -46 -13.5
s-23.333 -14.5 -31 -24.5s-11.5 -22 -11.5 -36c0 -20 7.83301 -36.333 23.5 -49s35.834 -19 60.501 -19c21.333 0 42.5 3.33301 63.5 10s42.167 16.334 63.5 29.001z" />
    <glyph glyph-name="acircumflex" unicode="&#xe2;" horiz-adv-x="580" 
d="M478 650h-108l-85 85l-86 -85h-108l129 193h129zM530 0l-144.999 -0.00390625v31c-25.333 -17.333 -52.166 -29.333 -80.499 -36s-57.5 -10 -87.5 -10c-28 0 -53.333 4.16699 -76 12.5s-42.334 20.333 -59.001 36s-29.5 34.167 -38.5 55.5s-13.5 45 -13.5 71
c0 32.667 7.16699 61.334 21.5 86.001s33.833 45.167 58.5 61.5s53.5 28.5 86.5 36.5s68.5 11.667 106.5 11h83c0 34.667 -10.833 61.834 -32.5 81.501s-53.5 29.5 -95.5 29.5c-20 0 -40.667 -3.66699 -62 -11s-42.666 -20.666 -63.999 -39.999l-85 86
c30.667 29.333 66.167 52 106.5 68s81.833 24 124.5 24c40 0 75.667 -6.33301 107 -19s56.666 -29 75.999 -49c25.333 -25.333 43.166 -53.666 53.499 -84.999s15.5 -71.333 15.5 -120v-320zM385.001 143.996l-0.000976562 106.999h-66c-20 0 -38.833 -1.33301 -56.5 -4
s-33 -7.16699 -46 -13.5s-23.333 -14.5 -31 -24.5s-11.5 -22 -11.5 -36c0 -20 7.83301 -36.333 23.5 -49s35.834 -19 60.501 -19c21.333 0 42.5 3.33301 63.5 10s42.167 16.334 63.5 29.001z" />
    <glyph glyph-name="atilde" unicode="&#xe3;" horiz-adv-x="580" 
d="M498 821c-0.666992 -20.667 -3.33496 -41.166 -8.00195 -61.499s-12.334 -38.666 -23.001 -54.999s-24.167 -29.5 -40.5 -39.5s-36.5 -15 -60.5 -15c-15.333 0 -29.666 2.33301 -42.999 7s-26.333 9.66699 -39 15l-37 15c-12 4.66699 -24 7 -36 7s-21 -4.66699 -27 -14
s-9.66699 -19.333 -11 -30h-86c0 20 2.5 40.167 7.5 60.5s12.667 38.666 23 54.999s23.833 29.666 40.5 39.999s36.667 15.5 60 15.5c14.667 0 28.834 -2.33301 42.501 -7s26.834 -9.66699 39.501 -15l36.5 -15c11.667 -4.66699 22.5 -7 32.5 -7
c13.333 0 23.333 4.33301 30 13s11 19 13 31h86zM529.999 0.000976562l-144.999 -0.000976562v31c-25.333 -17.333 -52.166 -29.333 -80.499 -36s-57.5 -10 -87.5 -10c-28 0 -53.333 4.16699 -76 12.5s-42.334 20.333 -59.001 36s-29.5 34.167 -38.5 55.5s-13.5 45 -13.5 71
c0 32.667 7.16699 61.167 21.5 85.5s33.833 44.666 58.5 60.999s53.5 28.5 86.5 36.5s68.5 12 106.5 12h83c0 34 -11 61 -33 81s-53.667 30 -95 30c-20 0 -40.667 -3.66699 -62 -11s-42.666 -20.666 -63.999 -39.999l-85 86c30.667 29.333 66.167 52 106.5 68
s81.833 24 124.5 24c40 0 75.667 -6.33301 107 -19s56.666 -29 75.999 -49c25.333 -25.333 43.166 -53.666 53.499 -84.999s15.5 -71.333 15.5 -120v-320zM385 144l-0.000976562 106.999h-66c-20 0 -38.833 -1.33301 -56.5 -4s-33 -7.16699 -46 -13.5
s-23.333 -14.5 -31 -24.5s-11.5 -22 -11.5 -36c0 -20 7.83301 -36.333 23.5 -49s35.834 -19 60.501 -19c21.333 0 42.5 3.33301 63.5 10s42.167 16.334 63.5 29.001z" />
    <glyph glyph-name="adieresis" unicode="&#xe4;" horiz-adv-x="580" 
d="M462 650h-130v130h130v-130zM232 650h-130v130h130v-130zM530 0l-144.999 -0.000976562v31c-25.333 -17.333 -52.166 -29.333 -80.499 -36s-57.5 -10 -87.5 -10c-28 0 -53.333 4.16699 -76 12.5s-42.334 20.333 -59.001 36s-29.5 34.167 -38.5 55.5s-13.5 45 -13.5 71
c0 32.667 7.16699 61.167 21.5 85.5s33.833 44.666 58.5 60.999s53.5 28.5 86.5 36.5s68.5 12 106.5 12h83c0 34 -11 61 -33 81s-53.667 30 -95 30c-20 0 -40.667 -3.66699 -62 -11s-42.666 -20.666 -63.999 -39.999l-85 86c30.667 29.333 66.167 52 106.5 68
s81.833 24 124.5 24c40 0 75.667 -6.33301 107 -19s56.666 -29 75.999 -49c25.333 -25.333 43.166 -53.666 53.499 -84.999s15.5 -71.333 15.5 -120v-320zM385.001 143.999l-0.000976562 106.999h-66c-20 0 -38.833 -1.33301 -56.5 -4s-33 -7.16699 -46 -13.5
s-23.333 -14.5 -31 -24.5s-11.5 -22 -11.5 -36c0 -20 7.83301 -36.333 23.5 -49s35.834 -19 60.501 -19c21.333 0 42.5 3.33301 63.5 10s42.167 16.334 63.5 29.001z" />
    <glyph glyph-name="aring" unicode="&#xe5;" horiz-adv-x="580" 
d="M406 769c0 -16.667 -3.16699 -32.167 -9.5 -46.5s-14.833 -26.833 -25.5 -37.5s-23.334 -19.167 -38.001 -25.5s-30 -9.5 -46 -9.5s-31.167 3.16699 -45.5 9.5s-26.833 14.833 -37.5 25.5s-19.167 23.167 -25.5 37.5s-9.5 29.833 -9.5 46.5c0 16 3.16699 31.167 9.5 45.5
s14.833 26.833 25.5 37.5s23.167 19.167 37.5 25.5s29.5 9.5 45.5 9.5s31.333 -3.16699 46 -9.5s27.334 -14.833 38.001 -25.5s19.167 -23.167 25.5 -37.5s9.5 -29.5 9.5 -45.5zM530 0l-144.999 -0.00390625v31c-25.333 -17.333 -52.166 -29.333 -80.499 -36
s-57.5 -10 -87.5 -10c-28 0 -53.333 4.16699 -76 12.5s-42.334 20.333 -59.001 36s-29.5 34.167 -38.5 55.5s-13.5 45 -13.5 71c0 32.667 7.16699 61.334 21.5 86.001s33.833 45.167 58.5 61.5s53.5 28.5 86.5 36.5s68.5 11.667 106.5 11h83
c0 34.667 -10.833 61.834 -32.5 81.501s-53.5 29.5 -95.5 29.5c-20 0 -40.667 -3.66699 -62 -11s-42.666 -20.666 -63.999 -39.999l-85 86c30.667 29.333 66.167 52 106.5 68s81.833 24 124.5 24c40 0 75.667 -6.33301 107 -19s56.666 -29 75.999 -49
c25.333 -25.333 43.166 -53.666 53.499 -84.999s15.5 -71.333 15.5 -120v-320zM331.001 768.996c0 12 -4.33301 22.167 -13 30.5s-19 12.5 -31 12.5s-22.333 -4.16699 -31 -12.5s-13 -18.5 -13 -30.5c0 -12.667 4.33301 -23.167 13 -31.5s19 -12.5 31 -12.5
s22.333 4.16699 31 12.5s13 18.833 13 31.5zM385.001 143.996l-0.000976562 106.999h-66c-20 0 -38.833 -1.33301 -56.5 -4s-33 -7.16699 -46 -13.5s-23.333 -14.5 -31 -24.5s-11.5 -22 -11.5 -36c0 -20 7.83301 -36.333 23.5 -49s35.834 -19 60.501 -19
c21.333 0 42.5 3.33301 63.5 10s42.167 16.334 63.5 29.001z" />
    <glyph glyph-name="ae" unicode="&#xe6;" horiz-adv-x="1017" 
d="M987 290c0 -9.33301 -0.501953 -18.998 -1.50195 -28.998s-2.16699 -20.333 -3.5 -31h-462c5.33301 -16.667 12.833 -32.5 22.5 -47.5s21.5 -28 35.5 -39s29.833 -19.667 47.5 -26s37.167 -9.5 58.5 -9.5c26 0 52 4.5 78 13.5s47.667 21.167 65 36.5l91 -91
c-40 -30 -79.167 -51.167 -117.5 -63.5s-78.833 -18.5 -121.5 -18.5c-30 0 -58.167 3.66699 -84.5 11s-51.166 17.666 -74.499 30.999v-27h-135v31c-25.333 -17.333 -51.166 -29.333 -77.499 -36s-56.5 -10 -90.5 -10c-28 0 -53.333 4.16699 -76 12.5
s-42.334 20.333 -59.001 36s-29.5 34.167 -38.5 55.5s-13.5 45 -13.5 71c0 32.667 7.16699 61.167 21.5 85.5s33.833 44.666 58.5 60.999s53.5 28.5 86.5 36.5s68.5 12 106.5 12h83c0 74 -42.667 111 -128 111c-20 0 -40.667 -3.66699 -62 -11
s-42.666 -20.666 -63.999 -39.999l-85 86c30.667 29.333 66.167 52 106.5 68s81.833 24 124.5 24c40 0 75.667 -6.33301 107 -19s56.666 -29 75.999 -49c4.66699 -4.66699 8 -8.33398 10 -11.001c28 24.667 59.5 44 94.5 58s72.5 21 112.5 21
c40.667 0 79.667 -7.5 117 -22.5s70.333 -35.833 99 -62.5s51.334 -58.5 68.001 -95.5s25 -77.833 25 -122.5zM835.998 346.002c-11.333 36.667 -31.5 66.167 -60.5 88.5s-61.833 33.5 -98.5 33.5c-36 0 -68.333 -11.167 -97 -33.5s-48.667 -51.833 -60 -88.5h316z
M384.998 144.002l-0.000976562 106.999h-66c-20 0 -38.833 -1.33301 -56.5 -4s-33 -7.16699 -46 -13.5s-23.333 -14.5 -31 -24.5s-11.5 -22 -11.5 -36c0 -20 7.83301 -36.333 23.5 -49s35.834 -19 60.501 -19c21.333 0 42.5 3.33301 63.5 10s42.167 16.334 63.5 29.001z" />
    <glyph glyph-name="ccedilla" unicode="&#xe7;" horiz-adv-x="592" 
d="M582 87c-25.333 -28 -54.999 -50.502 -88.999 -67.502s-70 -27.833 -108 -32.5l-10 -44c33.333 -5.33301 57.833 -18 73.5 -38s23.5 -41.667 23.5 -65c0 -11.333 -2.5 -22.666 -7.5 -33.999s-12.333 -21.666 -22 -30.999s-21 -17 -34 -23s-27.5 -9 -43.5 -9
c-20.667 0 -38.834 2.33301 -54.501 7s-30.5 12.667 -44.5 24l7 34c5.33301 -3.33301 11.666 -6.16602 18.999 -8.49902s14.333 -3.5 21 -3.5c17.333 0 31.666 5.16699 42.999 15.5s17 22.166 17 35.499c0 15.333 -5.5 28.333 -16.5 39s-25.5 16 -43.5 16
c-4 0 -8.16699 -0.333008 -12.5 -1s-8.16602 -1.33398 -11.499 -2.00098l17 88c-37.333 4.66699 -72.166 15.5 -104.499 32.5s-60.5 38.833 -84.5 65.5s-42.833 57.334 -56.5 92.001s-20.5 72 -20.5 112c0 42.667 8 82.5 24 119.5s37.667 69.167 65 96.5
s59.666 48.833 96.999 64.5s77.333 23.5 120 23.5c44 0 85.833 -8 125.5 -24s74.167 -40.333 103.5 -73l-97 -99c-14.667 19.333 -32.5 35.333 -53.5 48s-46.5 19 -76.5 19c-22 0 -42.833 -4.66699 -62.5 -14s-37 -21.833 -52 -37.5s-26.833 -34.167 -35.5 -55.5
s-13 -44 -13 -68s4.33301 -46.667 13 -68s20.334 -39.833 35.001 -55.5s32 -28.167 52 -37.5s41 -14 63 -14c28.667 0 54.667 6.83301 78 20.5s42 31.167 56 52.5z" />
    <glyph glyph-name="egrave" unicode="&#xe8;" 
d="M436 650h-106l-144 193h161zM657 290c0 -9.33301 -0.5 -19 -1.5 -29s-2.16699 -20.333 -3.5 -31h-462c5.33301 -16.667 12.833 -32.5 22.5 -47.5s21.5 -28 35.5 -39s29.833 -19.667 47.5 -26s37.167 -9.5 58.5 -9.5c26 0 52 4.5 78 13.5s47.667 21.167 65 36.5l91 -91
c-40 -30 -79.167 -51.167 -117.5 -63.5s-78.833 -18.5 -121.5 -18.5c-43.333 0 -83.833 8 -121.5 24s-70.334 37.667 -98.001 65s-49.5 59.5 -65.5 96.5s-24 76.5 -24 118.5s8 81.5 24 118.5s38 69.167 66 96.5s60.667 49 98 65s77.333 24 120 24
c40.667 0 79.667 -7.5 117 -22.5s70.333 -35.833 99 -62.5s51.334 -58.5 68.001 -95.5s25 -77.833 25 -122.5zM506 346c-11.333 36.667 -31.5 66.167 -60.5 88.5s-61.833 33.5 -98.5 33.5c-36 0 -68.333 -11.167 -97 -33.5s-48.667 -51.833 -60 -88.5h316z" />
    <glyph glyph-name="eacute" unicode="&#xe9;" 
d="M507 843l-144 -193h-106l90 193h160zM657 290c0 -9.33301 -0.5 -19 -1.5 -29s-2.16699 -20.333 -3.5 -31h-462c5.33301 -16.667 12.833 -32.5 22.5 -47.5s21.5 -28 35.5 -39s29.833 -19.667 47.5 -26s37.167 -9.5 58.5 -9.5c26 0 52 4.5 78 13.5s47.667 21.167 65 36.5
l91 -91c-40 -30 -79.167 -51.167 -117.5 -63.5s-78.833 -18.5 -121.5 -18.5c-43.333 0 -83.833 8 -121.5 24s-70.334 37.667 -98.001 65s-49.5 59.5 -65.5 96.5s-24 76.5 -24 118.5s8 81.5 24 118.5s38 69.167 66 96.5s60.667 49 98 65s77.333 24 120 24
c40.667 0 79.667 -7.5 117 -22.5s70.333 -35.833 99 -62.5s51.334 -58.5 68.001 -95.5s25 -77.833 25 -122.5zM506 346c-11.333 36.667 -31.5 66.167 -60.5 88.5s-61.833 33.5 -98.5 33.5c-36 0 -68.333 -11.167 -97 -33.5s-48.667 -51.833 -60 -88.5h316z" />
    <glyph glyph-name="ecircumflex" unicode="&#xea;" 
d="M540 650h-108l-85 85l-86 -85h-108l129 193h129zM657 290c0 -9.33301 -0.5 -19 -1.5 -29s-2.16699 -20.333 -3.5 -31h-462c5.33301 -16.667 12.833 -32.5 22.5 -47.5s21.5 -28 35.5 -39s29.833 -19.667 47.5 -26s37.167 -9.5 58.5 -9.5c26 0 52 4.5 78 13.5
s47.667 21.167 65 36.5l91 -91c-40 -30 -79.167 -51.167 -117.5 -63.5s-78.833 -18.5 -121.5 -18.5c-43.333 0 -83.833 8 -121.5 24s-70.334 37.667 -98.001 65s-49.5 59.5 -65.5 96.5s-24 76.5 -24 118.5s8 81.5 24 118.5s38 69.167 66 96.5s60.667 49 98 65
s77.333 24 120 24c40.667 0 79.667 -7.5 117 -22.5s70.333 -35.833 99 -62.5s51.334 -58.5 68.001 -95.5s25 -77.833 25 -122.5zM506 346c-11.333 36.667 -31.5 66.167 -60.5 88.5s-61.833 33.5 -98.5 33.5c-36 0 -68.333 -11.167 -97 -33.5s-48.667 -51.833 -60 -88.5h316z
" />
    <glyph glyph-name="edieresis" unicode="&#xeb;" 
d="M525 650h-130v130h130v-130zM295 650h-130v130h130v-130zM657 290c0 -9.33301 -0.5 -19 -1.5 -29s-2.16699 -20.333 -3.5 -31h-462c5.33301 -16.667 12.833 -32.5 22.5 -47.5s21.5 -28 35.5 -39s29.833 -19.667 47.5 -26s37.167 -9.5 58.5 -9.5c26 0 52 4.5 78 13.5
s47.667 21.167 65 36.5l91 -91c-40 -30 -79.167 -51.167 -117.5 -63.5s-78.833 -18.5 -121.5 -18.5c-43.333 0 -83.833 8 -121.5 24s-70.334 37.667 -98.001 65s-49.5 59.5 -65.5 96.5s-24 76.5 -24 118.5s8 81.5 24 118.5s38 69.167 66 96.5s60.667 49 98 65
s77.333 24 120 24c40.667 0 79.667 -7.5 117 -22.5s70.333 -35.833 99 -62.5s51.334 -58.5 68.001 -95.5s25 -77.833 25 -122.5zM506 346c-11.333 36.667 -31.5 66.167 -60.5 88.5s-61.833 33.5 -98.5 33.5c-36 0 -68.333 -11.167 -97 -33.5s-48.667 -51.833 -60 -88.5h316z
" />
    <glyph glyph-name="igrave" unicode="&#xec;" horiz-adv-x="280" 
d="M240 650h-106l-144 193h161zM208 0h-146v579h146v-579z" />
    <glyph glyph-name="iacute" unicode="&#xed;" horiz-adv-x="280" 
d="M280 843l-144 -193h-106l90 193h160zM208 0h-146v579h146v-579z" />
    <glyph glyph-name="icircumflex" unicode="&#xee;" horiz-adv-x="280" 
d="M328 650h-108l-85 85l-86 -85h-108l129 193h129zM208 0h-146v579h146v-579z" />
    <glyph glyph-name="idieresis" unicode="&#xef;" horiz-adv-x="280" 
d="M316 650h-130v130h130v-130zM86 650h-130v130h130v-130zM208 0h-146v579h146v-579z" />
    <glyph glyph-name="eth" unicode="&#xf0;" horiz-adv-x="674" 
d="M644 314c0 -63.333 -8.50293 -116.001 -25.5029 -158.001s-39.667 -75.667 -68 -101s-61.166 -43.333 -98.499 -54s-76 -16 -116 -16c-42 0 -81 7.33301 -117 22s-67.167 34.334 -93.5 59.001s-47.166 52.834 -62.499 84.501s-23 64.5 -23 98.5c0 40 8 76.5 24 109.5
s37.667 61.333 65 85s59 42.167 95 55.5s74 20 114 20c34.667 0 65.334 -5.66699 92.001 -17c-8.66699 20.667 -21.5 41.167 -38.5 61.5s-37.167 39.166 -60.5 56.499l-112 -82l-59 82l78 57c-18 8 -36.333 14.667 -55 20s-37.334 8.66602 -56.001 9.99902l109 108
c43.333 -8 86 -23.333 128 -46l98 72l60 -82l-70 -50c26.667 -22 51.834 -47.167 75.501 -75.5s44 -59.166 61 -92.499s30.5 -69 40.5 -107s15 -78 15 -120zM489.997 256.999c0 18 -4 35 -12 51s-18.833 29.833 -32.5 41.5s-29.667 21 -48 28s-37.5 10.5 -57.5 10.5
c-20.667 0 -39.834 -3.5 -57.501 -10.5s-33 -16.333 -46 -28s-23.167 -25.5 -30.5 -41.5s-11 -33 -11 -51s3.66699 -35 11 -51s17.5 -30 30.5 -42s28.333 -21.5 46 -28.5s36.834 -10.5 57.501 -10.5c20 0 39.167 3.5 57.5 10.5s34.333 16.5 48 28.5s24.5 26 32.5 42
s12 33 12 51z" />
    <glyph glyph-name="ntilde" unicode="&#xf1;" horiz-adv-x="636" 
d="M532 821c-0.666992 -20.667 -3.33496 -41.166 -8.00195 -61.499s-12.334 -38.666 -23.001 -54.999s-24.167 -29.5 -40.5 -39.5s-36.5 -15 -60.5 -15c-15.333 0 -29.666 2.33301 -42.999 7s-26.333 9.66699 -39 15l-37 15c-12 4.66699 -24 7 -36 7s-21 -4.66699 -27 -14
s-9.66699 -19.333 -11 -30h-86c0 20 2.5 40.167 7.5 60.5s12.667 38.666 23 54.999s23.833 29.666 40.5 39.999s36.667 15.5 60 15.5c14.667 0 28.834 -2.33301 42.501 -7s26.834 -9.66699 39.501 -15l36.5 -15c11.667 -4.66699 22.5 -7 32.5 -7
c13.333 0 23.333 4.33301 30 13s11 19 13 31h86zM585.999 0.000976562l-144 -0.000976562v345c0 20.667 -3.16699 38.834 -9.5 54.501s-14.833 28.667 -25.5 39s-22.834 18 -36.501 23s-27.834 7.5 -42.501 7.5c-22 0 -43.667 -3.83301 -65 -11.5
s-40.666 -19.834 -57.999 -36.501v-421h-145v578h145v-43c8.66699 8.66699 19.334 16.667 32.001 24s25.834 13.5 39.501 18.5s27.667 8.83301 42 11.5s28.166 4 41.499 4c29.333 0 57.5 -4.66699 84.5 -14s51 -23.666 72 -42.999s37.833 -44.333 50.5 -75s19 -67 19 -109
v-352z" />
    <glyph glyph-name="ograve" unicode="&#xf2;" 
d="M443 650h-106l-144 193h161zM657 289c0 -43.333 -8 -83.501 -24 -120.501s-38 -69 -66 -96s-60.833 -48.333 -98.5 -64s-77.834 -23.5 -120.501 -23.5s-82.667 7.83301 -120 23.5s-70 37.167 -98 64.5s-50 59.5 -66 96.5s-24 76.833 -24 119.5
c0 42 8.16699 81.5 24.5 118.5s38.5 69.333 66.5 97s60.667 49.334 98 65.001s77 23.5 119 23.5c42.667 0 82.834 -7.83301 120.501 -23.5s70.5 -37 98.5 -64s50 -59.167 66 -96.5s24 -77.333 24 -120zM513 288.999c0 24.667 -4.33301 47.667 -13 69s-20.5 40 -35.5 56
s-32.5 28.5 -52.5 37.5s-41.333 13.5 -64 13.5s-44 -4.5 -64 -13.5s-37.5 -21.5 -52.5 -37.5s-26.833 -34.667 -35.5 -56s-13 -44.333 -13 -69s4.33301 -47.667 13 -69s20.5 -40 35.5 -56s32.5 -28.5 52.5 -37.5s41.333 -13.5 64 -13.5s44 4.5 64 13.5s37.5 21.5 52.5 37.5
s26.833 34.667 35.5 56s13 44.333 13 69z" />
    <glyph glyph-name="oacute" unicode="&#xf3;" 
d="M506 843l-144 -193h-106l90 193h160zM657 289c0 -43.333 -8 -83.501 -24 -120.501s-38 -69 -66 -96s-60.833 -48.333 -98.5 -64s-77.834 -23.5 -120.501 -23.5s-82.667 7.83301 -120 23.5s-70 37.167 -98 64.5s-50 59.5 -66 96.5s-24 76.833 -24 119.5
c0 42 8.16699 81.5 24.5 118.5s38.5 69.333 66.5 97s60.667 49.334 98 65.001s77 23.5 119 23.5c42.667 0 82.834 -7.83301 120.501 -23.5s70.5 -37 98.5 -64s50 -59.167 66 -96.5s24 -77.333 24 -120zM513 288.999c0 24.667 -4.33301 47.667 -13 69s-20.5 40 -35.5 56
s-32.5 28.5 -52.5 37.5s-41.333 13.5 -64 13.5s-44 -4.5 -64 -13.5s-37.5 -21.5 -52.5 -37.5s-26.833 -34.667 -35.5 -56s-13 -44.333 -13 -69s4.33301 -47.667 13 -69s20.5 -40 35.5 -56s32.5 -28.5 52.5 -37.5s41.333 -13.5 64 -13.5s44 4.5 64 13.5s37.5 21.5 52.5 37.5
s26.833 34.667 35.5 56s13 44.333 13 69z" />
    <glyph glyph-name="ocircumflex" unicode="&#xf4;" 
d="M542 650h-108l-85 85l-86 -85h-108l129 193h129zM657 289c0 -43.333 -8 -83.501 -24 -120.501s-38 -69 -66 -96s-60.833 -48.333 -98.5 -64s-77.834 -23.5 -120.501 -23.5s-82.667 7.83301 -120 23.5s-70 37.167 -98 64.5s-50 59.5 -66 96.5s-24 76.833 -24 119.5
c0 42 8.16699 81.5 24.5 118.5s38.5 69.333 66.5 97s60.667 49.334 98 65.001s77 23.5 119 23.5c42.667 0 82.834 -7.83301 120.501 -23.5s70.5 -37 98.5 -64s50 -59.167 66 -96.5s24 -77.333 24 -120zM513 288.999c0 24.667 -4.33301 47.667 -13 69s-20.5 40 -35.5 56
s-32.5 28.5 -52.5 37.5s-41.333 13.5 -64 13.5s-44 -4.5 -64 -13.5s-37.5 -21.5 -52.5 -37.5s-26.833 -34.667 -35.5 -56s-13 -44.333 -13 -69s4.33301 -47.667 13 -69s20.5 -40 35.5 -56s32.5 -28.5 52.5 -37.5s41.333 -13.5 64 -13.5s44 4.5 64 13.5s37.5 21.5 52.5 37.5
s26.833 34.667 35.5 56s13 44.333 13 69z" />
    <glyph glyph-name="otilde" unicode="&#xf5;" 
d="M555 821c-0.666992 -20.667 -3.33496 -41.166 -8.00195 -61.499s-12.334 -38.666 -23.001 -54.999s-24.167 -29.5 -40.5 -39.5s-36.5 -15 -60.5 -15c-15.333 0 -29.666 2.33301 -42.999 7s-26.333 9.66699 -39 15l-37 15c-12 4.66699 -24 7 -36 7s-21 -4.66699 -27 -14
s-9.66699 -19.333 -11 -30h-86c0 20 2.5 40.167 7.5 60.5s12.667 38.666 23 54.999s23.833 29.666 40.5 39.999s36.667 15.5 60 15.5c14.667 0 28.834 -2.33301 42.501 -7s26.834 -9.66699 39.501 -15l36.5 -15c11.667 -4.66699 22.5 -7 32.5 -7
c13.333 0 23.333 4.33301 30 13s11 19 13 31h86zM656.999 289.001c0 -43.333 -8 -83.501 -24 -120.501s-38 -69 -66 -96s-60.833 -48.333 -98.5 -64s-77.834 -23.5 -120.501 -23.5s-82.667 7.83301 -120 23.5s-70 37.167 -98 64.5s-50 59.5 -66 96.5s-24 76.833 -24 119.5
c0 42 8.16699 81.5 24.5 118.5s38.5 69.333 66.5 97s60.667 49.334 98 65.001s77 23.5 119 23.5c42.667 0 82.834 -7.83301 120.501 -23.5s70.5 -37 98.5 -64s50 -59.167 66 -96.5s24 -77.333 24 -120zM512.999 289c0 24.667 -4.33301 47.667 -13 69s-20.5 40 -35.5 56
s-32.5 28.5 -52.5 37.5s-41.333 13.5 -64 13.5s-44 -4.5 -64 -13.5s-37.5 -21.5 -52.5 -37.5s-26.833 -34.667 -35.5 -56s-13 -44.333 -13 -69s4.33301 -47.667 13 -69s20.5 -40 35.5 -56s32.5 -28.5 52.5 -37.5s41.333 -13.5 64 -13.5s44 4.5 64 13.5s37.5 21.5 52.5 37.5
s26.833 34.667 35.5 56s13 44.333 13 69z" />
    <glyph glyph-name="odieresis" unicode="&#xf6;" 
d="M528 650h-130v130h130v-130zM298 650h-130v130h130v-130zM657 289c0 -43.333 -8 -83.501 -24 -120.501s-38 -69 -66 -96s-60.833 -48.333 -98.5 -64s-77.834 -23.5 -120.501 -23.5s-82.667 7.83301 -120 23.5s-70 37.167 -98 64.5s-50 59.5 -66 96.5
s-24 76.833 -24 119.5c0 42 8.16699 81.5 24.5 118.5s38.5 69.333 66.5 97s60.667 49.334 98 65.001s77 23.5 119 23.5c42.667 0 82.834 -7.83301 120.501 -23.5s70.5 -37 98.5 -64s50 -59.167 66 -96.5s24 -77.333 24 -120zM513 288.999c0 24.667 -4.33301 47.667 -13 69
s-20.5 40 -35.5 56s-32.5 28.5 -52.5 37.5s-41.333 13.5 -64 13.5s-44 -4.5 -64 -13.5s-37.5 -21.5 -52.5 -37.5s-26.833 -34.667 -35.5 -56s-13 -44.333 -13 -69s4.33301 -47.667 13 -69s20.5 -40 35.5 -56s32.5 -28.5 52.5 -37.5s41.333 -13.5 64 -13.5s44 4.5 64 13.5
s37.5 21.5 52.5 37.5s26.833 34.667 35.5 56s13 44.333 13 69z" />
    <glyph glyph-name="divide" unicode="&#xf7;" horiz-adv-x="641" 
d="M399 523h-149v149h149v-149zM591 301h-531v151h531v-151zM399 83h-149v149h149v-149z" />
    <glyph glyph-name="oslash" unicode="&#xf8;" 
d="M657 289c0 -43.333 -8 -83.501 -24 -120.501s-38 -69 -66 -96s-60.833 -48.333 -98.5 -64s-77.834 -23.5 -120.501 -23.5c-51.333 0 -98.666 11.333 -141.999 34l-32 -42h-112l70 95c-28.667 28 -51.167 60.333 -67.5 97s-24.5 76.667 -24.5 120
c0 42 8.16699 81.5 24.5 118.5s38.5 69.333 66.5 97s60.667 49.334 98 65.001s77 23.5 119 23.5c52 0 100 -11.333 144 -34l30 42h113l-69 -94c28 -28 50.167 -60.333 66.5 -97s24.5 -77 24.5 -121zM513 288.999c0 19.333 -2.83301 37.832 -8.5 55.499
s-13.5 33.834 -23.5 48.501l-196 -267c20.667 -8.66699 41.667 -13 63 -13c22.667 0 44 4.5 64 13.5s37.5 21.5 52.5 37.5s26.833 34.667 35.5 56s13 44.333 13 69zM412 450.998c-20.667 9.33301 -42 14.001 -64 14.001c-22.667 0 -44 -4.5 -64 -13.5
s-37.5 -21.5 -52.5 -37.5s-26.833 -34.667 -35.5 -56s-13 -44.333 -13 -69c0 -19.333 2.83301 -37.833 8.5 -55.5s13.5 -33.834 23.5 -48.501z" />
    <glyph glyph-name="ugrave" unicode="&#xf9;" horiz-adv-x="632" 
d="M409 650h-106l-144 193h161zM572 0l-144.001 0.00195312v44c-9.33301 -9.33301 -20.166 -17.5 -32.499 -24.5s-25.333 -13 -39 -18s-27.667 -8.83301 -42 -11.5s-27.833 -4 -40.5 -4c-29.333 0 -57.5 4.66699 -84.5 14s-50.833 23.666 -71.5 42.999
s-37.167 44.333 -49.5 75s-18.5 67 -18.5 109v351h144v-344c0 -20.667 3.16699 -38.834 9.5 -54.501s14.666 -28.667 24.999 -39s22.333 -18 36 -23s27.834 -7.5 42.501 -7.5c46.667 0 87 16 121 48v420h144v-578z" />
    <glyph glyph-name="uacute" unicode="&#xfa;" horiz-adv-x="632" 
d="M461 843l-144 -193h-106l90 193h160zM572 0l-144.001 0.00195312v44c-9.33301 -9.33301 -20.166 -17.5 -32.499 -24.5s-25.333 -13 -39 -18s-27.667 -8.83301 -42 -11.5s-27.833 -4 -40.5 -4c-29.333 0 -57.5 4.66699 -84.5 14s-50.833 23.666 -71.5 42.999
s-37.167 44.333 -49.5 75s-18.5 67 -18.5 109v351h144v-344c0 -20.667 3.16699 -38.834 9.5 -54.501s14.666 -28.667 24.999 -39s22.333 -18 36 -23s27.834 -7.5 42.501 -7.5c46.667 0 87 16 121 48v420h144v-578z" />
    <glyph glyph-name="ucircumflex" unicode="&#xfb;" horiz-adv-x="632" 
d="M502 650h-108l-85 85l-86 -85h-108l129 193h129zM572 0l-144.001 0.00195312v44c-9.33301 -9.33301 -20.166 -17.5 -32.499 -24.5s-25.333 -13 -39 -18s-27.667 -8.83301 -42 -11.5s-27.833 -4 -40.5 -4c-29.333 0 -57.5 4.66699 -84.5 14s-50.833 23.666 -71.5 42.999
s-37.167 44.333 -49.5 75s-18.5 67 -18.5 109v351h144v-344c0 -20.667 3.16699 -38.834 9.5 -54.501s14.666 -28.667 24.999 -39s22.333 -18 36 -23s27.834 -7.5 42.501 -7.5c46.667 0 87 16 121 48v420h144v-578z" />
    <glyph glyph-name="udieresis" unicode="&#xfc;" horiz-adv-x="632" 
d="M487 650h-130v130h130v-130zM257 650h-130v130h130v-130zM572 0l-144.001 0.00195312v44c-9.33301 -9.33301 -20.166 -17.5 -32.499 -24.5s-25.333 -13 -39 -18s-27.667 -8.83301 -42 -11.5s-27.833 -4 -40.5 -4c-29.333 0 -57.5 4.66699 -84.5 14
s-50.833 23.666 -71.5 42.999s-37.167 44.333 -49.5 75s-18.5 67 -18.5 109v351h144v-344c0 -20.667 3.16699 -38.834 9.5 -54.501s14.666 -28.667 24.999 -39s22.333 -18 36 -23s27.834 -7.5 42.501 -7.5c46.667 0 87 16 121 48v420h144v-578z" />
    <glyph glyph-name="yacute" unicode="&#xfd;" horiz-adv-x="590" 
d="M456 843l-144 -193h-106l90 193h160zM585 579l-260.003 -687c-19.333 -51.333 -44.666 -88.333 -75.999 -111s-68.666 -34 -111.999 -34c-6.66699 0 -14 0.5 -22 1.5s-15.667 2.5 -23 4.5l-48 134c11.333 -5.33301 23 -9.5 35 -12.5s23.333 -4.5 34 -4.5
c22.667 0 43.334 5.16699 62.001 15.5s33 29.5 43 57.5l20 58l-223 578h157l133 -372l125 372h155z" />
    <glyph glyph-name="thorn" unicode="&#xfe;" horiz-adv-x="646" 
d="M626 289c0 -40.667 -6.83105 -79.334 -20.498 -116.001s-32.834 -69 -57.501 -97s-54 -50.167 -88 -66.5s-71.333 -24.5 -112 -24.5c-25.333 0 -49 3.5 -71 10.5s-42.667 18.167 -62 33.5v-280h-145v1051h146v-251c16.667 14 36.5 25 59.5 33s47.167 12 72.5 12
c35.333 0 69.666 -7.83301 102.999 -23.5s63 -37.167 89 -64.5s46.833 -59.666 62.5 -96.999s23.5 -77.333 23.5 -120zM490.002 288c0 26.667 -4.16699 50.999 -12.5 72.999s-20 40.833 -35 56.5s-32.667 27.667 -53 36s-42.833 12.5 -67.5 12.5
c-15.333 0 -33.5 -3 -54.5 -9s-38.167 -14.333 -51.5 -25v-278c32.667 -28.667 69 -43 109 -43c24 0 46 4.5 66 13.5s37.333 21.333 52 37s26.167 34.334 34.5 56.001s12.5 45.167 12.5 70.5z" />
    <glyph glyph-name="ydieresis" unicode="&#xff;" horiz-adv-x="590" 
d="M481 650h-130v130h130v-130zM251 650h-130v130h130v-130zM585 579l-260.003 -687c-19.333 -51.333 -44.666 -88.333 -75.999 -111s-68.666 -34 -111.999 -34c-6.66699 0 -14 0.5 -22 1.5s-15.667 2.5 -23 4.5l-48 134c11.333 -5.33301 23 -9.5 35 -12.5
s23.333 -4.5 34 -4.5c22.667 0 43.334 5.16699 62.001 15.5s33 29.5 43 57.5l20 58l-223 578h157l133 -372l125 372h155z" />
    <glyph glyph-name="Amacron" unicode="&#x100;" horiz-adv-x="887" 
d="M665 871h-434v115h434v-115zM887 0h-170l-74 160h-388l-75 -160h-170l378 800h121zM582 289l-133 288l-135 -288h268z" />
    <glyph glyph-name="amacron" unicode="&#x101;" horiz-adv-x="580" 
d="M510 650h-434v115h434v-115zM530 0l-144.999 -0.000976562v31c-25.333 -17.333 -52.166 -29.333 -80.499 -36s-57.5 -10 -87.5 -10c-28 0 -53.333 4.16699 -76 12.5s-42.334 20.333 -59.001 36s-29.5 34.167 -38.5 55.5s-13.5 45 -13.5 71
c0 32.667 7.16699 61.167 21.5 85.5s33.833 44.666 58.5 60.999s53.5 28.5 86.5 36.5s68.5 12 106.5 12h83c0 34 -11 61 -33 81s-53.667 30 -95 30c-20 0 -40.667 -3.66699 -62 -11s-42.666 -20.666 -63.999 -39.999l-85 86c30.667 29.333 66.167 52 106.5 68
s81.833 24 124.5 24c40 0 75.667 -6.33301 107 -19s56.666 -29 75.999 -49c25.333 -25.333 43.166 -53.666 53.499 -84.999s15.5 -71.333 15.5 -120v-320zM385.001 143.999l-0.000976562 106.999h-66c-20 0 -38.833 -1.33301 -56.5 -4s-33 -7.16699 -46 -13.5
s-23.333 -14.5 -31 -24.5s-11.5 -22 -11.5 -36c0 -20 7.83301 -36.333 23.5 -49s35.834 -19 60.501 -19c21.333 0 42.5 3.33301 63.5 10s42.167 16.334 63.5 29.001z" />
    <glyph glyph-name="_294" unicode="&#x102;" horiz-adv-x="887" 
d="M631 1049c-3.33301 -30.667 -10.8369 -57.332 -22.5039 -79.999s-25.667 -41.334 -42 -56.001s-34.666 -25.5 -54.999 -32.5s-41.166 -10.5 -62.499 -10.5c-22 0 -43.167 3.66699 -63.5 11s-38.666 18.333 -54.999 33s-30.166 33.167 -41.499 55.5s-19 48.833 -23 79.5
h116c4.66699 -26 14.167 -43.833 28.5 -53.5s27.833 -14.5 40.5 -14.5c12 0 24.667 4.83301 38 14.5s22.333 27.5 27 53.5h115zM886.996 0.00195312h-170l-74 160h-388l-75 -160h-170l378 800h121zM581.996 289.002l-133 288l-135 -288h268z" />
    <glyph glyph-name="_295" unicode="&#x103;" horiz-adv-x="580" 
d="M462 829c-4 -30.667 -11.6699 -57.332 -23.0029 -79.999s-25.333 -41.334 -42 -56.001s-35.167 -25.5 -55.5 -32.5s-41.166 -10.5 -62.499 -10.5c-22 0 -43.167 3.66699 -63.5 11s-38.666 18.333 -54.999 33s-30.166 33.167 -41.499 55.5s-19 48.833 -23 79.5h116
c4.66699 -26 14.167 -43.833 28.5 -53.5s27.833 -14.5 40.5 -14.5c12 0 24.667 4.83301 38 14.5s22.333 27.5 27 53.5h116zM529.997 0.00195312l-144.999 -0.000976562v31c-25.333 -17.333 -52.166 -29.333 -80.499 -36s-57.5 -10 -87.5 -10c-28 0 -53.333 4.16699 -76 12.5
s-42.334 20.333 -59.001 36s-29.5 34.167 -38.5 55.5s-13.5 45 -13.5 71c0 32.667 7.16699 61.167 21.5 85.5s33.833 44.666 58.5 60.999s53.5 28.5 86.5 36.5s68.5 12 106.5 12h83c0 34 -11 61 -33 81s-53.667 30 -95 30c-20 0 -40.667 -3.66699 -62 -11
s-42.666 -20.666 -63.999 -39.999l-85 86c30.667 29.333 66.167 52 106.5 68s81.833 24 124.5 24c40 0 75.667 -6.33301 107 -19s56.666 -29 75.999 -49c25.333 -25.333 43.166 -53.666 53.499 -84.999s15.5 -71.333 15.5 -120v-320zM384.998 144.001l-0.000976562 106.999
h-66c-20 0 -38.833 -1.33301 -56.5 -4s-33 -7.16699 -46 -13.5s-23.333 -14.5 -31 -24.5s-11.5 -22 -11.5 -36c0 -20 7.83301 -36.333 23.5 -49s35.834 -19 60.501 -19c21.333 0 42.5 3.33301 63.5 10s42.167 16.334 63.5 29.001z" />
    <glyph glyph-name="Aogonek" unicode="&#x104;" horiz-adv-x="887" 
d="M887 0c-17.333 0 -32.335 -2.33203 -45.002 -6.99902c-9.33301 -3.33301 -19.333 -7.5 -30 -12.5s-20.334 -10.167 -29.001 -15.5c-23.333 -14.667 -39.666 -29.167 -48.999 -43.5s-14 -31.5 -14 -51.5c0 -10.667 2 -20.167 6 -28.5s9.33301 -15.333 16 -21
s13.834 -10 21.501 -13s15.167 -4.5 22.5 -4.5c15.333 0 29.833 1.16699 43.5 3.5s28.5 6.16602 44.5 11.499l-26 -75c-14.667 -6.66699 -30 -11.834 -46 -15.501s-35.667 -5.5 -59 -5.5c-12.667 0 -27.5 2.33301 -44.5 7s-33.167 12.167 -48.5 22.5
s-28.5 23.833 -39.5 40.5s-16.833 37 -17.5 61c-0.666992 17.333 2.33301 33.5 9 48.5s15.834 28.667 27.501 41s25 23.333 40 33s30.833 17.834 47.5 24.501l-74 160h-388l-75 -160h-170l378 800h121zM581.998 289.001l-133 288l-135 -288h268z" />
    <glyph glyph-name="aogonek" unicode="&#x105;" horiz-adv-x="580" 
d="M532 -182l-26.001 -74.999c-12 -6.66699 -25.667 -11.834 -41 -15.501s-33.333 -5.5 -54 -5.5c-12.667 0 -27.5 2.33301 -44.5 7s-33.167 12.167 -48.5 22.5s-28.5 23.833 -39.5 40.5s-16.833 37 -17.5 61c-0.666992 17.333 2.33301 33.5 9 48.5
s15.834 28.833 27.501 41.5s25 23.667 40 33s30.833 17.333 47.5 24v31c-25.333 -17.333 -51.166 -29.333 -77.499 -36s-56.5 -10 -90.5 -10c-28 0 -53.333 4.16699 -76 12.5s-42.334 20.333 -59.001 36s-29.5 34.167 -38.5 55.5s-13.5 45 -13.5 71
c0 32.667 7.16699 61.167 21.5 85.5s33.833 44.666 58.5 60.999s53.5 28.5 86.5 36.5s68.5 12 106.5 12h83c0 74 -42.667 111 -128 111c-20 0 -40.667 -3.66699 -62 -11s-42.666 -20.666 -63.999 -39.999l-85 86c30.667 29.333 66.167 52 106.5 68s81.833 24 124.5 24
c40 0 75.667 -6.33301 107 -19s56.666 -29 75.999 -49c25.333 -25.333 43.166 -53.666 53.499 -84.999s15.5 -71.333 15.5 -120v-320c-16.667 -6 -31.667 -12 -45 -18s-24.666 -11.667 -33.999 -17c-23.333 -14.667 -39.666 -29.167 -48.999 -43.5s-14 -31.5 -14 -51.5
c0 -10.667 2.16699 -20.167 6.5 -28.5s9.66602 -15.333 15.999 -21s13.5 -10 21.5 -13s15.667 -4.5 23 -4.5c13.333 0 26 1.16699 38 3.5s25 6.16602 39 11.499zM384.999 144.001l-0.000976562 106.999h-66c-20 0 -38.833 -1.33301 -56.5 -4s-33 -7.16699 -46 -13.5
s-23.333 -14.5 -31 -24.5s-11.5 -22 -11.5 -36c0 -20 7.83301 -36.333 23.5 -49s35.834 -19 60.501 -19c21.333 0 42.5 3.33301 63.5 10s42.167 16.334 63.5 29.001z" />
    <glyph glyph-name="Cacute" unicode="&#x106;" horiz-adv-x="812" 
d="M617 1064l-144 -193h-106l90 193h160zM812 144c-40 -48.667 -88.5 -87.3359 -145.5 -116.003s-119.833 -43 -188.5 -43c-59.333 0 -115 10.833 -167 32.5s-97.333 51.167 -136 88.5s-69.167 81.166 -91.5 131.499s-33.5 104.5 -33.5 162.5s11.167 112.167 33.5 162.5
s52.833 94.333 91.5 132s84 67.167 136 88.5s107.667 32 167 32c68.667 0 131.5 -14.333 188.5 -43s104.5 -66 142.5 -112l-107 -110c-24.667 35.333 -56.5 63.833 -95.5 85.5s-81.833 32.5 -128.5 32.5c-37.333 0 -72.5 -7.16699 -105.5 -21.5
s-61.833 -33.666 -86.5 -57.999s-44.167 -52.666 -58.5 -84.999s-21.5 -66.833 -21.5 -103.5c0 -36 7.16699 -70.167 21.5 -102.5s33.833 -60.666 58.5 -84.999s53.5 -43.666 86.5 -57.999s68.167 -21.5 105.5 -21.5c49.333 0 93 11.167 131 33.5s69.667 51.833 95 88.5z
" />
    <glyph glyph-name="cacute" unicode="&#x107;" horiz-adv-x="592" 
d="M484 843l-144 -193h-106l90 193h160zM582 87c-29.333 -33.333 -64.668 -58.666 -106.001 -75.999s-84.666 -26 -129.999 -26c-42 0 -81.667 7.66699 -119 23s-69.833 36.5 -97.5 63.5s-49.5 59.167 -65.5 96.5s-24 77.666 -24 120.999c0 42.667 8 82.5 24 119.5
s37.667 69.167 65 96.5s59.666 48.833 96.999 64.5s77.333 23.5 120 23.5c44 0 85.833 -8 125.5 -24s74.167 -40.333 103.5 -73l-97 -99c-14.667 19.333 -32.5 35.333 -53.5 48s-46.5 19 -76.5 19c-22 0 -42.833 -4.66699 -62.5 -14s-37 -21.833 -52 -37.5
s-26.833 -34.167 -35.5 -55.5s-13 -44 -13 -68s4.33301 -46.667 13 -68s20.334 -39.833 35.001 -55.5s32 -28.167 52 -37.5s41 -14 63 -14c28.667 0 54.667 6.83301 78 20.5s42 31.167 56 52.5z" />
    <glyph glyph-name="Cdotaccent" unicode="&#x10a;" horiz-adv-x="812" 
d="M544 872h-145v145h145v-145zM812 144c-40 -48.667 -88.5 -87.3359 -145.5 -116.003s-119.833 -43 -188.5 -43c-59.333 0 -115 10.833 -167 32.5s-97.333 51.167 -136 88.5s-69.167 81.166 -91.5 131.499s-33.5 104.5 -33.5 162.5s11.167 112.167 33.5 162.5
s52.833 94.333 91.5 132s84 67.167 136 88.5s107.667 32 167 32c68.667 0 131.5 -14.333 188.5 -43s104.5 -66 142.5 -112l-107 -110c-24.667 35.333 -56.5 63.833 -95.5 85.5s-81.833 32.5 -128.5 32.5c-37.333 0 -72.5 -7.16699 -105.5 -21.5
s-61.833 -33.666 -86.5 -57.999s-44.167 -52.666 -58.5 -84.999s-21.5 -66.833 -21.5 -103.5c0 -36 7.16699 -70.167 21.5 -102.5s33.833 -60.666 58.5 -84.999s53.5 -43.666 86.5 -57.999s68.167 -21.5 105.5 -21.5c49.333 0 93 11.167 131 33.5s69.667 51.833 95 88.5z
" />
    <glyph glyph-name="cdotaccent" unicode="&#x10b;" horiz-adv-x="592" 
d="M410 650h-145v145h145v-145zM582 87c-29.333 -33.333 -64.668 -58.666 -106.001 -75.999s-84.666 -26 -129.999 -26c-42 0 -81.667 7.66699 -119 23s-69.833 36.5 -97.5 63.5s-49.5 59.167 -65.5 96.5s-24 77.666 -24 120.999c0 42.667 8 82.5 24 119.5
s37.667 69.167 65 96.5s59.666 48.833 96.999 64.5s77.333 23.5 120 23.5c44 0 85.833 -8 125.5 -24s74.167 -40.333 103.5 -73l-97 -99c-14.667 19.333 -32.5 35.333 -53.5 48s-46.5 19 -76.5 19c-22 0 -42.833 -4.66699 -62.5 -14s-37 -21.833 -52 -37.5
s-26.833 -34.167 -35.5 -55.5s-13 -44 -13 -68s4.33301 -46.667 13 -68s20.334 -39.833 35.001 -55.5s32 -28.167 52 -37.5s41 -14 63 -14c28.667 0 54.667 6.83301 78 20.5s42 31.167 56 52.5z" />
    <glyph glyph-name="Ccaron" unicode="&#x10c;" horiz-adv-x="812" 
d="M661 1064l-129 -193h-129l-129 193h108l85 -85l86 85h108zM812 144c-40 -48.667 -88.5 -87.3359 -145.5 -116.003s-119.833 -43 -188.5 -43c-59.333 0 -115 10.833 -167 32.5s-97.333 51.167 -136 88.5s-69.167 81.166 -91.5 131.499s-33.5 104.5 -33.5 162.5
s11.167 112.167 33.5 162.5s52.833 94.333 91.5 132s84 67.167 136 88.5s107.667 32 167 32c68.667 0 131.5 -14.333 188.5 -43s104.5 -66 142.5 -112l-107 -110c-24.667 35.333 -56.5 63.833 -95.5 85.5s-81.833 32.5 -128.5 32.5c-37.333 0 -72.5 -7.16699 -105.5 -21.5
s-61.833 -33.666 -86.5 -57.999s-44.167 -52.666 -58.5 -84.999s-21.5 -66.833 -21.5 -103.5c0 -36 7.16699 -70.167 21.5 -102.5s33.833 -60.666 58.5 -84.999s53.5 -43.666 86.5 -57.999s68.167 -21.5 105.5 -21.5c49.333 0 93 11.167 131 33.5s69.667 51.833 95 88.5z
" />
    <glyph glyph-name="ccaron" unicode="&#x10d;" horiz-adv-x="592" 
d="M529 843l-129 -193h-128l-130 193h108l86 -85l86 85h107zM582 87c-29.333 -33.333 -64.668 -58.666 -106.001 -75.999s-84.666 -26 -129.999 -26c-42 0 -81.667 7.66699 -119 23s-69.833 36.5 -97.5 63.5s-49.5 59.167 -65.5 96.5s-24 77.666 -24 120.999
c0 42.667 8 82.5 24 119.5s37.667 69.167 65 96.5s59.666 48.833 96.999 64.5s77.333 23.5 120 23.5c44 0 85.833 -8 125.5 -24s74.167 -40.333 103.5 -73l-97 -99c-14.667 19.333 -32.5 35.333 -53.5 48s-46.5 19 -76.5 19c-22 0 -42.833 -4.66699 -62.5 -14
s-37 -21.833 -52 -37.5s-26.833 -34.167 -35.5 -55.5s-13 -44 -13 -68s4.33301 -46.667 13 -68s20.334 -39.833 35.001 -55.5s32 -28.167 52 -37.5s41 -14 63 -14c28.667 0 54.667 6.83301 78 20.5s42 31.167 56 52.5z" />
    <glyph glyph-name="Dcaron" unicode="&#x10e;" horiz-adv-x="831" 
d="M591 1064l-129 -193h-129l-129 193h108l85 -85l86 85h108zM791 400c0 -55.333 -9.33301 -107.167 -28 -155.5s-44.667 -90.666 -78 -126.999s-73.166 -65 -119.499 -86s-96.833 -31.5 -151.5 -31.5h-334v800h334c54.667 0 105.167 -10.667 151.5 -32
s86.166 -50 119.499 -86s59.333 -78.333 78 -127s28 -100.334 28 -155.001zM634 403.999c0.666992 37.333 -5 72.667 -17 106s-29.333 62.5 -52 87.5s-50.5 44.667 -83.5 59s-70.167 21.5 -111.5 21.5h-135v-546h135c40.667 0 77.167 6.83301 109.5 20.5
s59.833 32.667 82.5 57s40.167 53 52.5 86s18.833 69.167 19.5 108.5z" />
    <glyph glyph-name="dcaron" unicode="&#x10f;" horiz-adv-x="764" 
d="M784 878c0 -16 -2.33398 -31.166 -7.00098 -45.499s-11.5 -27 -20.5 -38s-20.333 -19.667 -34 -26s-29.5 -9.5 -47.5 -9.5c-6.66699 0 -13.167 0.666992 -19.5 2s-12.166 2.66602 -17.499 3.99902v11c19.333 3.33301 35 12.333 47 27s18 31.667 18 51
c0 3.33301 -0.333008 7.33301 -1 12s-1.66699 8.66699 -3 12h-64v149h149v-149zM595.999 0.000976562l-146.998 -0.00195312v30c-18.667 -15.333 -39 -26.5 -61 -33.5s-45.333 -10.5 -70 -10.5c-40.667 0 -78 8.16699 -112 24.5s-63.333 38.333 -88 66
s-43.834 59.834 -57.501 96.501s-20.5 75.334 -20.5 116.001c0 43.333 7.83301 83.5 23.5 120.5s36.5 69.167 62.5 96.5s55.667 48.833 89 64.5s67.666 23.5 102.999 23.5c24.667 0 48.667 -3.33301 72 -10s43.333 -16 60 -28v274h146v-830zM451.001 154.999v278.002
c-6.66699 4.66699 -14.334 9.16699 -23.001 13.5s-17.667 8 -27 11s-18.666 5.33301 -27.999 7s-17.666 2.5 -24.999 2.5c-24 0 -45.833 -4.16699 -65.5 -12.5s-36.834 -20.333 -51.501 -36s-26 -34.5 -34 -56.5s-12 -46.333 -12 -73c0 -26 4 -49.833 12 -71.5
s19 -40.334 33 -56.001s30.833 -27.834 50.5 -36.501s41.167 -13 64.5 -13c38 0 73.333 14.333 106 43z" />
    <glyph glyph-name="Dcroat" unicode="&#x110;" horiz-adv-x="831" 
d="M791 400c0 -55.333 -9.33301 -107.167 -28 -155.5s-44.667 -90.666 -78 -126.999s-73.166 -65 -119.499 -86s-96.833 -31.5 -151.5 -31.5h-334v336h-60v134h60v330h334c54.667 0 105.167 -10.667 151.5 -32s86.166 -50 119.499 -86s59.333 -78.333 78 -127
s28 -100.334 28 -155.001zM633 403.999c0 37.333 -5.83301 72.5 -17.5 105.5s-28.834 62 -51.501 87s-50.167 44.833 -82.5 59.5s-69.166 22 -110.499 22h-136v-208h130v-134h-130v-204h136c40.667 0 77.167 7.16699 109.5 21.5s59.833 33.833 82.5 58.5s40 53.5 52 86.5
s18 68.167 18 105.5z" />
    <glyph glyph-name="dcroat" unicode="&#x111;" horiz-adv-x="656" 
d="M656 656l-59.998 -0.00195312v-656h-147v30c-18.667 -15.333 -39 -26.5 -61 -33.5s-45.333 -10.5 -70 -10.5c-40.667 0 -78 8.16699 -112 24.5s-63.333 38.333 -88 66s-43.834 59.834 -57.501 96.501s-20.5 75.334 -20.5 116.001c0 43.333 7.83301 83.5 23.5 120.5
s36.5 69.167 62.5 96.5s55.667 48.833 89 64.5s67.666 23.5 102.999 23.5c24.667 0 48.667 -3.33301 72 -10s43.333 -16 60 -28v100h-129v124h129v50h146v-50h60v-124zM451.002 154.998v278.002c-6.66699 4.66699 -14.334 9.16699 -23.001 13.5s-17.667 8 -27 11
s-18.666 5.33301 -27.999 7s-17.666 2.5 -24.999 2.5c-24 0 -45.833 -4.16699 -65.5 -12.5s-36.834 -20.333 -51.501 -36s-26 -34.5 -34 -56.5s-12 -46.333 -12 -73c0 -26 4 -49.833 12 -71.5s19 -40.334 33 -56.001s30.833 -27.834 50.5 -36.501s41.167 -13 64.5 -13
c38 0 73.333 14.333 106 43z" />
    <glyph glyph-name="Emacron" unicode="&#x112;" horiz-adv-x="648" 
d="M565 871h-434v115h434v-115zM608 0h-528v799h528v-128h-376v-191h371v-125h-371v-220h376v-135z" />
    <glyph glyph-name="emacron" unicode="&#x113;" 
d="M564 650h-434v115h434v-115zM657 290c0 -9.33301 -0.5 -19 -1.5 -29s-2.16699 -20.333 -3.5 -31h-462c5.33301 -16.667 12.833 -32.5 22.5 -47.5s21.5 -28 35.5 -39s29.833 -19.667 47.5 -26s37.167 -9.5 58.5 -9.5c26 0 52 4.5 78 13.5s47.667 21.167 65 36.5l91 -91
c-40 -30 -79.167 -51.167 -117.5 -63.5s-78.833 -18.5 -121.5 -18.5c-43.333 0 -83.833 8 -121.5 24s-70.334 37.667 -98.001 65s-49.5 59.5 -65.5 96.5s-24 76.5 -24 118.5s8 81.5 24 118.5s38 69.167 66 96.5s60.667 49 98 65s77.333 24 120 24
c40.667 0 79.667 -7.5 117 -22.5s70.333 -35.833 99 -62.5s51.334 -58.5 68.001 -95.5s25 -77.833 25 -122.5zM506 346c-11.333 36.667 -31.5 66.167 -60.5 88.5s-61.833 33.5 -98.5 33.5c-36 0 -68.333 -11.167 -97 -33.5s-48.667 -51.833 -60 -88.5h316z" />
    <glyph glyph-name="Edotaccent" unicode="&#x116;" horiz-adv-x="648" 
d="M414 872h-145v145h145v-145zM608 0h-528v799h528v-128h-376v-191h371v-125h-371v-220h376v-135z" />
    <glyph glyph-name="edotaccent" unicode="&#x117;" 
d="M420 652h-145v145h145v-145zM657 290c0 -9.33301 -0.5 -19 -1.5 -29s-2.16699 -20.333 -3.5 -31h-462c5.33301 -16.667 12.833 -32.5 22.5 -47.5s21.5 -28 35.5 -39s29.833 -19.667 47.5 -26s37.167 -9.5 58.5 -9.5c26 0 52 4.5 78 13.5s47.667 21.167 65 36.5l91 -91
c-40 -30 -79.167 -51.167 -117.5 -63.5s-78.833 -18.5 -121.5 -18.5c-43.333 0 -83.833 8 -121.5 24s-70.334 37.667 -98.001 65s-49.5 59.5 -65.5 96.5s-24 76.5 -24 118.5s8 81.5 24 118.5s38 69.167 66 96.5s60.667 49 98 65s77.333 24 120 24
c40.667 0 79.667 -7.5 117 -22.5s70.333 -35.833 99 -62.5s51.334 -58.5 68.001 -95.5s25 -77.833 25 -122.5zM506 346c-11.333 36.667 -31.5 66.167 -60.5 88.5s-61.833 33.5 -98.5 33.5c-36 0 -68.333 -11.167 -97 -33.5s-48.667 -51.833 -60 -88.5h316z" />
    <glyph glyph-name="Eogonek" unicode="&#x118;" horiz-adv-x="648" 
d="M608 0c-2.66699 0 -6.50293 -0.499023 -11.5029 -1.49902s-9.83301 -2.16699 -14.5 -3.5c-30 -10.667 -53 -20.667 -69 -30c-23.333 -14.667 -39.666 -29.167 -48.999 -43.5s-14 -31.5 -14 -51.5c0 -10.667 2 -20.167 6 -28.5s9.33301 -15.333 16 -21
s13.834 -10 21.501 -13s15.167 -4.5 22.5 -4.5c15.333 0 29.833 1.16699 43.5 3.5s28.5 6.16602 44.5 11.499l-26 -75c-14.667 -6.66699 -30 -11.834 -46 -15.501s-35.667 -5.5 -59 -5.5c-12.667 0 -27.5 2.33301 -44.5 7s-33.167 12.167 -48.5 22.5
s-28.5 23.833 -39.5 40.5s-16.833 37 -17.5 61c-0.666992 17.333 2.33301 33.5 9 48.5s15.834 28.667 27.501 41s25 23.333 40 33s30.833 17.834 47.5 24.501h-367v799h528v-128h-376v-191h371v-125h-371v-220h376v-135z" />
    <glyph glyph-name="eogonek" unicode="&#x119;" 
d="M657 290c0 -9.33301 -0.5 -18.9941 -1.5 -28.9941s-2.16699 -20.333 -3.5 -31h-462c5.33301 -16.667 12.833 -32.5 22.5 -47.5s21.5 -28 35.5 -39s29.833 -19.667 47.5 -26s37.167 -9.5 58.5 -9.5c26 0 52 4.5 78 13.5s47.667 21.167 65 36.5l91 -91
c-12.667 -9.33301 -24.667 -17.5 -36 -24.5s-22.333 -13.167 -33 -18.5l-39 -20.5c-12.667 -6.33301 -25.334 -15.5 -38.001 -27.5c-19.333 -18.667 -32.833 -36 -40.5 -52s-11.5 -34 -11.5 -54c0 -21.333 6.83301 -37.833 20.5 -49.5s28.834 -17.5 45.501 -17.5
c15.333 0 29.833 1.16699 43.5 3.5s28.5 6.16602 44.5 11.499l-26 -75c-14.667 -6.66699 -30 -11.834 -46 -15.501s-35.667 -5.5 -59 -5.5c-12.667 0 -27.5 2.33301 -44.5 7s-33.167 12.167 -48.5 22.5s-28.5 23.833 -39.5 40.5s-16.833 37 -17.5 61
c-0.666992 14.667 1.66602 28.5 6.99902 41.5s12.5 25 21.5 36s19.667 21 32 30s25.5 17.167 39.5 24.5c-42 -2.66699 -82.5 3.16602 -121.5 17.499s-73.5 35.166 -103.5 62.499s-53.833 60.166 -71.5 98.499s-26.5 80.166 -26.5 125.499c0 42 8 81.5 24 118.5
s38 69.167 66 96.5s60.667 49 98 65s77.333 24 120 24c40.667 0 79.667 -7.5 117 -22.5s70.333 -35.833 99 -62.5s51.334 -58.5 68.001 -95.5s25 -77.833 25 -122.5zM506 346.006c-11.333 36.667 -31.5 66.167 -60.5 88.5s-61.833 33.5 -98.5 33.5
c-36 0 -68.333 -11.167 -97 -33.5s-48.667 -51.833 -60 -88.5h316z" />
    <glyph glyph-name="Ecaron" unicode="&#x11a;" horiz-adv-x="648" 
d="M540 1064l-129 -193h-129l-129 193h108l85 -85l86 85h108zM608 0h-528v799h528v-128h-376v-191h371v-125h-371v-220h376v-135z" />
    <glyph glyph-name="ecaron" unicode="&#x11b;" 
d="M540 843l-129 -193h-128l-130 193h108l86 -85l86 85h107zM657 290c0 -9.33301 -0.5 -19 -1.5 -29s-2.16699 -20.333 -3.5 -31h-462c5.33301 -16.667 12.833 -32.5 22.5 -47.5s21.5 -28 35.5 -39s29.833 -19.667 47.5 -26s37.167 -9.5 58.5 -9.5c26 0 52 4.5 78 13.5
s47.667 21.167 65 36.5l91 -91c-40 -30 -79.167 -51.167 -117.5 -63.5s-78.833 -18.5 -121.5 -18.5c-43.333 0 -83.833 8 -121.5 24s-70.334 37.667 -98.001 65s-49.5 59.5 -65.5 96.5s-24 76.5 -24 118.5s8 81.5 24 118.5s38 69.167 66 96.5s60.667 49 98 65
s77.333 24 120 24c40.667 0 79.667 -7.5 117 -22.5s70.333 -35.833 99 -62.5s51.334 -58.5 68.001 -95.5s25 -77.833 25 -122.5zM506 346c-11.333 36.667 -31.5 66.167 -60.5 88.5s-61.833 33.5 -98.5 33.5c-36 0 -68.333 -11.167 -97 -33.5s-48.667 -51.833 -60 -88.5h316z
" />
    <glyph glyph-name="Gbreve" unicode="&#x11e;" horiz-adv-x="856" 
d="M652 1049c-3.33301 -30.667 -10.8369 -57.332 -22.5039 -79.999s-25.667 -41.334 -42 -56.001s-34.666 -25.5 -54.999 -32.5s-41.166 -10.5 -62.499 -10.5c-22 0 -43.167 3.66699 -63.5 11s-38.666 18.333 -54.999 33s-30.166 33.167 -41.499 55.5s-19 48.833 -23 79.5
h116c4.66699 -26 14.167 -43.833 28.5 -53.5s27.833 -14.5 40.5 -14.5c12 0 24.667 4.83301 38 14.5s22.333 27.5 27 53.5h115zM815.996 147.002c-22.667 -28 -47.3311 -52.1699 -73.998 -72.5029s-54.5 -37.166 -83.5 -50.499s-58.667 -23.166 -89 -29.499
s-60.5 -9.5 -90.5 -9.5c-59.333 0 -115 10.667 -167 32s-97.333 50.666 -136 87.999s-69.334 81.333 -92.001 132s-34 105.334 -34 164.001c0 57.333 11.167 111.166 33.5 161.499s53 94.166 92 131.499s84.5 66.833 136.5 88.5s107.667 32.5 167 32.5
c68.667 0 131.167 -14 187.5 -42s104.166 -65.333 143.499 -112l-105 -107c-30 40.667 -63.667 69.834 -101 87.501s-79 26.5 -125 26.5c-38 0 -73.667 -7 -107 -21s-62.5 -33.167 -87.5 -57.5s-44.667 -52.666 -59 -84.999s-21.5 -66.833 -21.5 -103.5
c0 -37.333 7.16699 -72.166 21.5 -104.499s34 -60.833 59 -85.5s54.167 -44 87.5 -58s69 -21 107 -21c36 0 70 6.66699 102 20s60.667 31 86 53v77h-164v132h313v-267z" />
    <glyph glyph-name="gbreve" unicode="&#x11f;" horiz-adv-x="601" 
d="M482 829c-4 -30.667 -11.6699 -57.332 -23.0029 -79.999s-25.333 -41.334 -42 -56.001s-35.167 -25.5 -55.5 -32.5s-41.166 -10.5 -62.499 -10.5c-22 0 -43.167 3.66699 -63.5 11s-38.666 18.333 -54.999 33s-30.166 33.167 -41.499 55.5s-19 48.833 -23 79.5h116
c4.66699 -26 14.167 -43.833 28.5 -53.5s27.833 -14.5 40.5 -14.5c12 0 24.667 4.83301 38 14.5s22.333 27.5 27 53.5h116zM590.997 464.002h-60.998c15.333 -30 23 -62 23 -96c0 -26 -4.83301 -51.167 -14.5 -75.5s-23.5 -46.5 -41.5 -66.5s-39.833 -37 -65.5 -51
s-54.5 -23.333 -86.5 -28c-22 -3.33301 -38.5 -8.5 -49.5 -15.5s-16.5 -14 -16.5 -21s5.5 -13.5 16.5 -19.5s27.5 -10 49.5 -12c74.667 -6.66699 132.5 -25.334 173.5 -56.001s61.5 -71.334 61.5 -122.001c0 -26 -6.33301 -50 -19 -72s-30.834 -41 -54.501 -57
s-52.167 -28.333 -85.5 -37s-70.666 -13 -111.999 -13c-42 0 -79.833 4.33301 -113.5 13s-62.5 20.834 -86.5 36.501s-42.333 34.5 -55 56.5s-19 46.333 -19 73c0 40 11.5 73.5 34.5 100.5s60.5 47.167 112.5 60.5c-16 6 -27.5 14.167 -34.5 24.5s-10.167 20.833 -9.5 31.5
s5.16699 20.834 13.5 30.501s20.166 17.167 35.499 22.5c-17.333 8 -33.833 18.333 -49.5 31s-29.834 27.334 -42.501 44.001s-22.667 35.334 -30 56.001s-11 42.667 -11 66c0 31.333 6.66699 60.666 20 87.999s31.333 51.166 54 71.499s49 36.333 79 48
s61.667 17.5 95 17.5c32.667 0 63 -5 91 -15h198v-114zM409.999 368.002c0 14.667 -2.83301 28.334 -8.5 41.001s-13.334 23.834 -23.001 33.501s-21 17.334 -34 23.001s-26.833 8.5 -41.5 8.5s-28.334 -2.83301 -41.001 -8.5s-23.834 -13.334 -33.501 -23.001
s-17.334 -20.834 -23.001 -33.501s-8.5 -26.334 -8.5 -41.001s2.83301 -28.5 8.5 -41.5s13.334 -24.333 23.001 -34s20.834 -17.334 33.501 -23.001s26.334 -8.5 41.001 -8.5s28.5 2.83301 41.5 8.5s24.333 13.334 34 23.001s17.334 21 23.001 34s8.5 26.833 8.5 41.5z
M435.999 -98.998c0 23.333 -11.833 40.333 -35.5 51s-54.167 16 -91.5 16c-40 0 -71.5 -5.66699 -94.5 -17s-34.5 -28 -34.5 -50c0 -22.667 12 -39.667 36 -51s55 -17 93 -17c38.667 0 69.5 5.5 92.5 16.5s34.5 28.167 34.5 51.5z" />
    <glyph glyph-name="Gdotaccent" unicode="&#x120;" horiz-adv-x="856" 
d="M544 872h-145v145h145v-145zM816 147c-22.667 -28 -47.3311 -52.1699 -73.998 -72.5029s-54.5 -37.166 -83.5 -50.499s-58.667 -23.166 -89 -29.499s-60.5 -9.5 -90.5 -9.5c-59.333 0 -115 10.667 -167 32s-97.333 50.666 -136 87.999s-69.334 81.333 -92.001 132
s-34 105.334 -34 164.001c0 57.333 11.167 111.166 33.5 161.499s53 94.166 92 131.499s84.5 66.833 136.5 88.5s107.667 32.5 167 32.5c68.667 0 131.167 -14 187.5 -42s104.166 -65.333 143.499 -112l-105 -107c-30 40.667 -63.667 69.834 -101 87.501s-79 26.5 -125 26.5
c-38 0 -73.667 -7 -107 -21s-62.5 -33.167 -87.5 -57.5s-44.667 -52.666 -59 -84.999s-21.5 -66.833 -21.5 -103.5c0 -37.333 7.16699 -72.166 21.5 -104.499s34 -60.833 59 -85.5s54.167 -44 87.5 -58s69 -21 107 -21c36 0 70 6.66699 102 20s60.667 31 86 53v77h-164v132
h313v-267z" />
    <glyph glyph-name="gdotaccent" unicode="&#x121;" horiz-adv-x="601" 
d="M380 652h-145v145h145v-145zM591 464h-60.998c15.333 -30 23 -62 23 -96c0 -26 -4.83301 -51.167 -14.5 -75.5s-23.5 -46.5 -41.5 -66.5s-39.833 -37 -65.5 -51s-54.5 -23.333 -86.5 -28c-22 -3.33301 -38.5 -8.5 -49.5 -15.5s-16.5 -14 -16.5 -21s5.5 -13.5 16.5 -19.5
s27.5 -10 49.5 -12c74.667 -6.66699 132.5 -25.334 173.5 -56.001s61.5 -71.334 61.5 -122.001c0 -26 -6.33301 -50 -19 -72s-30.834 -41 -54.501 -57s-52.167 -28.333 -85.5 -37s-70.666 -13 -111.999 -13c-42 0 -79.833 4.33301 -113.5 13s-62.5 20.834 -86.5 36.501
s-42.333 34.5 -55 56.5s-19 46.333 -19 73c0 40 11.5 73.5 34.5 100.5s60.5 47.167 112.5 60.5c-16 6 -27.5 14.167 -34.5 24.5s-10.167 20.833 -9.5 31.5s5.16699 20.834 13.5 30.501s20.166 17.167 35.499 22.5c-17.333 8 -33.833 18.333 -49.5 31
s-29.834 27.334 -42.501 44.001s-22.667 35.334 -30 56.001s-11 42.667 -11 66c0 31.333 6.66699 60.666 20 87.999s31.333 51.166 54 71.499s49 36.333 79 48s61.667 17.5 95 17.5c32.667 0 63 -5 91 -15h198v-114zM410.002 368c0 14.667 -2.83301 28.334 -8.5 41.001
s-13.334 23.834 -23.001 33.501s-21 17.334 -34 23.001s-26.833 8.5 -41.5 8.5s-28.334 -2.83301 -41.001 -8.5s-23.834 -13.334 -33.501 -23.001s-17.334 -20.834 -23.001 -33.501s-8.5 -26.334 -8.5 -41.001s2.83301 -28.5 8.5 -41.5s13.334 -24.333 23.001 -34
s20.834 -17.334 33.501 -23.001s26.334 -8.5 41.001 -8.5s28.5 2.83301 41.5 8.5s24.333 13.334 34 23.001s17.334 21 23.001 34s8.5 26.833 8.5 41.5zM436.002 -99c0 23.333 -11.833 40.333 -35.5 51s-54.167 16 -91.5 16c-40 0 -71.5 -5.66699 -94.5 -17
s-34.5 -28 -34.5 -50c0 -22.667 12 -39.667 36 -51s55 -17 93 -17c38.667 0 69.5 5.5 92.5 16.5s34.5 28.167 34.5 51.5z" />
    <glyph glyph-name="uni0122" unicode="&#x122;" horiz-adv-x="856" 
d="M816 147c-22.667 -28 -47.3311 -52.1699 -73.998 -72.5029s-54.5 -37.166 -83.5 -50.499s-58.667 -23.166 -89 -29.499s-60.5 -9.5 -90.5 -9.5c-59.333 0 -115 10.667 -167 32s-97.333 50.666 -136 87.999s-69.334 81.333 -92.001 132s-34 105.334 -34 164.001
c0 57.333 11.167 111.166 33.5 161.499s53 94.166 92 131.499s84.5 66.833 136.5 88.5s107.667 32.5 167 32.5c68.667 0 131.167 -14 187.5 -42s104.166 -65.333 143.499 -112l-105 -107c-30 40.667 -63.667 69.834 -101 87.501s-79 26.5 -125 26.5
c-38 0 -73.667 -7 -107 -21s-62.5 -33.167 -87.5 -57.5s-44.667 -52.666 -59 -84.999s-21.5 -66.833 -21.5 -103.5c0 -37.333 7.16699 -72.166 21.5 -104.499s34 -60.833 59 -85.5s54.167 -44 87.5 -58s69 -21 107 -21c36 0 70 6.66699 102 20s60.667 31 86 53v77h-164v132
h313v-267zM545.003 -200.003c0 -14 -2.16895 -27.498 -6.50195 -40.498s-10.666 -24.5 -18.999 -34.5s-18.666 -18 -30.999 -24s-26.5 -9 -42.5 -9c-5.33301 0 -11 0.666992 -17 2s-11.333 2.66602 -16 3.99902v10c17.333 3.33301 31.5 11.5 42.5 24.5
s16.5 28.167 16.5 45.5c0 2.66699 -0.333008 6.16699 -1 10.5s-1.66699 8.16602 -3 11.499h-58v134h135v-134z" />
    <glyph glyph-name="uni0123" unicode="&#x123;" horiz-adv-x="601" 
d="M382 650h-133.998v134c0 14 2 27.5 6 40.5s10.167 24.5 18.5 34.5s18.666 17.833 30.999 23.5s26.5 8.5 42.5 8.5c6 0 12 -0.5 18 -1.5s11 -2.16699 15 -3.5v-10c-17.333 -3.33301 -31.333 -11.5 -42 -24.5s-16 -28.167 -16 -45.5c0 -3.33301 0.166992 -7 0.5 -11
s1.16602 -7.66699 2.49902 -11h58v-134zM591.002 464h-60.998c15.333 -30 23 -62 23 -96c0 -26 -4.83301 -51.167 -14.5 -75.5s-23.5 -46.5 -41.5 -66.5s-39.833 -37 -65.5 -51s-54.5 -23.333 -86.5 -28c-22 -3.33301 -38.5 -8.5 -49.5 -15.5s-16.5 -14 -16.5 -21
s5.5 -13.5 16.5 -19.5s27.5 -10 49.5 -12c74.667 -6.66699 132.5 -25.334 173.5 -56.001s61.5 -71.334 61.5 -122.001c0 -26 -6.33301 -50 -19 -72s-30.834 -41 -54.501 -57s-52.167 -28.333 -85.5 -37s-70.666 -13 -111.999 -13c-42 0 -79.833 4.33301 -113.5 13
s-62.5 20.834 -86.5 36.501s-42.333 34.5 -55 56.5s-19 46.333 -19 73c0 40 11.5 73.5 34.5 100.5s60.5 47.167 112.5 60.5c-16 6 -27.5 14.167 -34.5 24.5s-10.167 20.833 -9.5 31.5s5.16699 20.834 13.5 30.501s20.166 17.167 35.499 22.5
c-17.333 8 -33.833 18.333 -49.5 31s-29.834 27.334 -42.501 44.001s-22.667 35.334 -30 56.001s-11 42.667 -11 66c0 31.333 6.66699 60.666 20 87.999s31.333 51.166 54 71.499s49 36.333 79 48s61.667 17.5 95 17.5c32.667 0 63 -5 91 -15h198v-114zM410.004 368
c0 14.667 -2.83301 28.334 -8.5 41.001s-13.334 23.834 -23.001 33.501s-21 17.334 -34 23.001s-26.833 8.5 -41.5 8.5s-28.334 -2.83301 -41.001 -8.5s-23.834 -13.334 -33.501 -23.001s-17.334 -20.834 -23.001 -33.501s-8.5 -26.334 -8.5 -41.001
s2.83301 -28.5 8.5 -41.5s13.334 -24.333 23.001 -34s20.834 -17.334 33.501 -23.001s26.334 -8.5 41.001 -8.5s28.5 2.83301 41.5 8.5s24.333 13.334 34 23.001s17.334 21 23.001 34s8.5 26.833 8.5 41.5zM436.004 -99c0 23.333 -11.833 40.333 -35.5 51
s-54.167 16 -91.5 16c-40 0 -71.5 -5.66699 -94.5 -17s-34.5 -28 -34.5 -50c0 -22.667 12 -39.667 36 -51s55 -17 93 -17c38.667 0 69.5 5.5 92.5 16.5s34.5 28.167 34.5 51.5z" />
    <glyph glyph-name="Imacron" unicode="&#x12a;" horiz-adv-x="305" 
d="M375 871h-434v115h434v-115zM235 0h-155v799h155v-799z" />
    <glyph glyph-name="imacron" unicode="&#x12b;" horiz-adv-x="280" 
d="M348 650h-434v115h434v-115zM208 0h-146v579h146v-579z" />
    <glyph glyph-name="Iogonek" unicode="&#x12e;" horiz-adv-x="305" 
d="M235 0c-19.333 -5.33301 -35.499 -11.168 -48.499 -17.501s-24.167 -12.166 -33.5 -17.499c-23.333 -14.667 -39.666 -29.167 -48.999 -43.5s-14 -31.5 -14 -51.5c0 -10.667 2 -20.167 6 -28.5s9.33301 -15.333 16 -21s13.834 -10 21.501 -13s15.167 -4.5 22.5 -4.5
c25.333 0 51.666 5 78.999 15l-26 -75c-15.333 -7.33301 -29.5 -12.666 -42.5 -15.999s-30.833 -5 -53.5 -5c-12.667 0 -27.5 2.33301 -44.5 7s-33.167 12.167 -48.5 22.5s-28.5 23.833 -39.5 40.5s-16.833 37 -17.5 61c-0.666992 18 2.66602 34.667 9.99902 50
s16.666 29.333 27.999 42s24 23.667 38 33s27.667 16.666 41 21.999v799h155v-799z" />
    <glyph glyph-name="iogonek" unicode="&#x12f;" horiz-adv-x="280" 
d="M210 679h-150v150h150v-150zM211 -182l-26.002 -74.999c-14 -7.33301 -27.833 -12.666 -41.5 -15.999s-31.5 -5 -53.5 -5c-12.667 0 -27.5 2.33301 -44.5 7s-33.167 12.167 -48.5 22.5s-28.5 23.833 -39.5 40.5s-16.833 37 -17.5 61
c-0.666992 17.333 2.33301 33.5 9 48.5s15.667 28.667 27 41s24.5 23.166 39.5 32.499s30.5 17.333 46.5 24v579l146 1v-579c-16.667 -4.66699 -31.5 -10.334 -44.5 -17.001s-24.167 -12.667 -33.5 -18c-23.333 -14.667 -39.666 -29.167 -48.999 -43.5s-14 -31.5 -14 -51.5
c0 -10.667 2 -20.167 6 -28.5s9.33301 -15.333 16 -21s13.834 -10 21.501 -13s15.167 -4.5 22.5 -4.5c13.333 0 25.833 1 37.5 3s25.167 6 40.5 12z" />
    <glyph glyph-name="Idotaccent" unicode="&#x130;" horiz-adv-x="305" 
d="M230 871h-145v145h145v-145zM235 0h-155v799h155v-799z" />
    <glyph glyph-name="dotlessi" unicode="&#x131;" horiz-adv-x="280" 
d="M208 0h-146v579h146v-579z" />
    <glyph glyph-name="uni0136" unicode="&#x136;" horiz-adv-x="747" 
d="M757 0h-202l-320 354v-354h-155v800h155v-357l327 357h184l-361 -393zM465 -200c0 -14 -2.16895 -27.498 -6.50195 -40.498s-10.666 -24.5 -18.999 -34.5s-18.666 -18 -30.999 -24s-26.5 -9 -42.5 -9c-5.33301 0 -11 0.666992 -17 2s-11.333 2.66602 -16 3.99902v10
c17.333 3.33301 31.5 11.5 42.5 24.5s16.5 28.167 16.5 45.5c0 2.66699 -0.333008 6.16699 -1 10.5s-1.66699 8.16602 -3 11.499h-58v134h135v-134z" />
    <glyph glyph-name="uni0137" unicode="&#x137;" horiz-adv-x="600" 
d="M610 0h-171l-232 259v-259h-147v829h147v-496l202 245h168l-237 -281zM395 -200c0 -14 -2.16895 -27.498 -6.50195 -40.498s-10.666 -24.5 -18.999 -34.5s-18.666 -18 -30.999 -24s-26.5 -9 -42.5 -9c-5.33301 0 -11 0.666992 -17 2s-11.333 2.66602 -16 3.99902v10
c17.333 3.33301 31.5 11.5 42.5 24.5s16.5 28.167 16.5 45.5c0 2.66699 -0.333008 6.16699 -1 10.5s-1.66699 8.16602 -3 11.499h-58v134h135v-134z" />
    <glyph glyph-name="Lacute" unicode="&#x139;" horiz-adv-x="631" 
d="M353 1064l-144 -193h-106l90 193h160zM621 0h-541v799h158v-649h383v-150z" />
    <glyph glyph-name="lacute" unicode="&#x13a;" horiz-adv-x="314" 
d="M311 1064l-144 -193h-106l90 193h160zM304 3c-11.333 -5.33301 -24.166 -9.66797 -38.499 -13.001s-29.166 -5 -44.499 -5c-21.333 0 -41.833 2.83301 -61.5 8.5s-36.834 14.834 -51.501 27.501s-26.334 29.167 -35.001 49.5s-13 44.833 -13 73.5v686h147v-661
c0 -24 4.83301 -40.5 14.5 -49.5s21.167 -13.5 34.5 -13.5c16.667 0 32.667 5 48 15v-118z" />
    <glyph glyph-name="uni013B" unicode="&#x13b;" horiz-adv-x="631" 
d="M621 0h-541v799h158v-649h383v-150zM435 -200c0 -14 -2.16895 -27.498 -6.50195 -40.498s-10.666 -24.5 -18.999 -34.5s-18.666 -18 -30.999 -24s-26.5 -9 -42.5 -9c-5.33301 0 -11 0.666992 -17 2s-11.333 2.66602 -16 3.99902v10c17.333 3.33301 31.5 11.5 42.5 24.5
s16.5 28.167 16.5 45.5c0 2.66699 -0.333008 6.16699 -1 10.5s-1.66699 8.16602 -3 11.499h-58v134h135v-134z" />
    <glyph glyph-name="uni013C" unicode="&#x13c;" horiz-adv-x="314" 
d="M304 3c-11.333 -5.33301 -24.166 -9.66797 -38.499 -13.001s-29.166 -5 -44.499 -5c-21.333 0 -41.833 2.83301 -61.5 8.5s-36.834 14.834 -51.501 27.501s-26.334 29.167 -35.001 49.5s-13 44.833 -13 73.5v686h147v-661c0 -24 4.83301 -40.5 14.5 -49.5
s21.167 -13.5 34.5 -13.5c16.667 0 32.667 5 48 15v-118zM251 -200.002c0 -14 -2.16895 -27.498 -6.50195 -40.498s-10.666 -24.5 -18.999 -34.5s-18.666 -18 -30.999 -24s-26.5 -9 -42.5 -9c-5.33301 0 -11 0.666992 -17 2s-11.333 2.66602 -16 3.99902v10
c17.333 3.33301 31.5 11.5 42.5 24.5s16.5 28.167 16.5 45.5c0 2.66699 -0.333008 6.16699 -1 10.5s-1.66699 8.16602 -3 11.499h-58v134h135v-134z" />
    <glyph glyph-name="Lcaron" unicode="&#x13d;" horiz-adv-x="631" 
d="M534 651c0 -16 -2.33398 -31.166 -7.00098 -45.499s-11.5 -27 -20.5 -38s-20.333 -19.667 -34 -26s-29.5 -9.5 -47.5 -9.5c-6.66699 0 -13.167 0.666992 -19.5 2s-12.166 2.66602 -17.499 3.99902v11c19.333 3.33301 35 12.333 47 27s18 31.667 18 51
c0 3.33301 -0.333008 7.33301 -1 12s-1.66699 8.66699 -3 12h-64v149h149v-149zM620.999 0.000976562h-541v799h158v-649h383v-150z" />
    <glyph glyph-name="lcaron" unicode="&#x13e;" horiz-adv-x="404" 
d="M424 681c0 -16 -2.33398 -31.166 -7.00098 -45.499s-11.5 -27 -20.5 -38s-20.333 -19.667 -34 -26s-29.5 -9.5 -47.5 -9.5c-6.66699 0 -13.167 0.666992 -19.5 2s-12.166 2.66602 -17.499 3.99902v11c19.333 3.33301 35 12.333 47 27s18 31.667 18 51
c0 3.33301 -0.333008 7.33301 -1 12s-1.66699 8.66699 -3 12h-64v149h149v-149zM303.999 3.00098c-11.333 -5.33301 -24.166 -9.66797 -38.499 -13.001s-29.166 -5 -44.499 -5c-21.333 0 -41.833 2.83301 -61.5 8.5s-36.834 14.834 -51.501 27.501
s-26.334 29.167 -35.001 49.5s-13 44.833 -13 73.5v686h147v-661c0 -24 4.83301 -40.5 14.5 -49.5s21.167 -13.5 34.5 -13.5c16.667 0 32.667 5 48 15v-118z" />
    <glyph glyph-name="Ldot" unicode="&#x13f;" horiz-adv-x="631" 
d="M469 362h-145v145h145v-145zM621 0h-541v799h158v-649h383v-150z" />
    <glyph glyph-name="ldot" unicode="&#x140;" horiz-adv-x="419" 
d="M409 362h-145v145h145v-145zM304 3c-11.333 -5.33301 -24.166 -9.66797 -38.499 -13.001s-29.166 -5 -44.499 -5c-21.333 0 -41.833 2.83301 -61.5 8.5s-36.834 14.834 -51.501 27.501s-26.334 29.167 -35.001 49.5s-13 44.833 -13 73.5v686h147v-661
c0 -24 4.83301 -40.5 14.5 -49.5s21.167 -13.5 34.5 -13.5c16.667 0 32.667 5 48 15v-118z" />
    <glyph glyph-name="Lslash" unicode="&#x141;" horiz-adv-x="631" 
d="M621 0h-541v295l-60 -29v134l60 29v370h158v-295l117 56v-134l-117 -56v-220h383v-150z" />
    <glyph glyph-name="lslash" unicode="&#x142;" horiz-adv-x="314" 
d="M304 3c-11.333 -5.33301 -24.166 -9.66797 -38.499 -13.001s-29.166 -5 -44.499 -5c-21.333 0 -41.833 2.83301 -61.5 8.5s-36.834 14.834 -51.501 27.501s-26.334 29.167 -35.001 49.5s-13 44.833 -13 73.5v151l-40 -19v134l40 19v401h147v-329l77 37v-134l-77 -37v-198
c0 -24 4.83301 -40.5 14.5 -49.5s21.167 -13.5 34.5 -13.5c16.667 0 32.667 5 48 15v-118z" />
    <glyph glyph-name="Nacute" unicode="&#x143;" horiz-adv-x="815" 
d="M562 1064l-144 -193h-106l90 193h160zM745 0h-152l-361 561v-561h-152v800h174l339 -522v522h152v-800z" />
    <glyph glyph-name="nacute" unicode="&#x144;" horiz-adv-x="636" 
d="M479 843l-144 -193h-106l90 193h160zM586 0l-144 -0.000976562v345c0 20.667 -3.16699 38.834 -9.5 54.501s-14.833 28.667 -25.5 39s-22.834 18 -36.501 23s-27.834 7.5 -42.501 7.5c-22 0 -43.667 -3.83301 -65 -11.5s-40.666 -19.834 -57.999 -36.501v-421h-145v578
h145v-43c8.66699 8.66699 19.334 16.667 32.001 24s25.834 13.5 39.501 18.5s27.667 8.83301 42 11.5s28.166 4 41.499 4c29.333 0 57.5 -4.66699 84.5 -14s51 -23.666 72 -42.999s37.833 -44.333 50.5 -75s19 -67 19 -109v-352z" />
    <glyph glyph-name="uni0145" unicode="&#x145;" horiz-adv-x="815" 
d="M745 0h-152l-361 561v-561h-152v800h174l339 -522v522h152v-800zM495 -200c0 -14 -2.16895 -27.498 -6.50195 -40.498s-10.666 -24.5 -18.999 -34.5s-18.666 -18 -30.999 -24s-26.5 -9 -42.5 -9c-5.33301 0 -11 0.666992 -17 2s-11.333 2.66602 -16 3.99902v10
c17.333 3.33301 31.5 11.5 42.5 24.5s16.5 28.167 16.5 45.5c0 2.66699 -0.333008 6.16699 -1 10.5s-1.66699 8.16602 -3 11.499h-58v134h135v-134z" />
    <glyph glyph-name="uni0146" unicode="&#x146;" horiz-adv-x="636" 
d="M586 0l-144 -0.000976562v345c0 20.667 -3.16699 38.834 -9.5 54.501s-14.833 28.667 -25.5 39s-22.834 18 -36.501 23s-27.834 7.5 -42.501 7.5c-22 0 -43.667 -3.83301 -65 -11.5s-40.666 -19.834 -57.999 -36.501v-421h-145v578h145v-43
c8.66699 8.66699 19.334 16.667 32.001 24s25.834 13.5 39.501 18.5s27.667 8.83301 42 11.5s28.166 4 41.499 4c29.333 0 57.5 -4.66699 84.5 -14s51 -23.666 72 -42.999s37.833 -44.333 50.5 -75s19 -67 19 -109v-352zM393 -200.001
c0 -14 -2.16895 -27.498 -6.50195 -40.498s-10.666 -24.5 -18.999 -34.5s-18.666 -18 -30.999 -24s-26.5 -9 -42.5 -9c-5.33301 0 -11 0.666992 -17 2s-11.333 2.66602 -16 3.99902v10c17.333 3.33301 31.5 11.5 42.5 24.5s16.5 28.167 16.5 45.5
c0 2.66699 -0.333008 6.16699 -1 10.5s-1.66699 8.16602 -3 11.499h-58v134h135v-134z" />
    <glyph glyph-name="Ncaron" unicode="&#x147;" horiz-adv-x="815" 
d="M617 1064l-129 -193h-129l-129 193h108l85 -85l86 85h108zM745 0h-152l-361 561v-561h-152v800h174l339 -522v522h152v-800z" />
    <glyph glyph-name="ncaron" unicode="&#x148;" horiz-adv-x="636" 
d="M518 843l-129 -193h-128l-130 193h108l86 -85l86 85h107zM586 0l-144 -0.000976562v345c0 20.667 -3.16699 38.834 -9.5 54.501s-14.833 28.667 -25.5 39s-22.834 18 -36.501 23s-27.834 7.5 -42.501 7.5c-22 0 -43.667 -3.83301 -65 -11.5
s-40.666 -19.834 -57.999 -36.501v-421h-145v578h145v-43c8.66699 8.66699 19.334 16.667 32.001 24s25.834 13.5 39.501 18.5s27.667 8.83301 42 11.5s28.166 4 41.499 4c29.333 0 57.5 -4.66699 84.5 -14s51 -23.666 72 -42.999s37.833 -44.333 50.5 -75s19 -67 19 -109
v-352z" />
    <glyph glyph-name="Omacron" unicode="&#x14c;" horiz-adv-x="939" 
d="M691 873h-434v115h434v-115zM899 400c0 -57.333 -11.167 -111.331 -33.5 -161.998s-52.833 -94.667 -91.5 -132s-83.667 -66.833 -135 -88.5s-106 -32.5 -164 -32.5s-112.833 10.833 -164.5 32.5s-96.834 51.167 -135.501 88.5s-69.167 81.166 -91.5 131.499
s-33.5 104.5 -33.5 162.5s11.167 112.333 33.5 163s52.833 94.667 91.5 132s83.834 66.666 135.501 87.999s106.5 32 164.5 32s112.667 -10.667 164 -32s96.333 -50.833 135 -88.5s69.167 -81.667 91.5 -132s33.5 -104.5 33.5 -162.5zM743 400.002
c0 36.667 -7 71.167 -21 103.5s-33.167 60.666 -57.5 84.999s-52.833 43.666 -85.5 57.999s-67.334 21.5 -104.001 21.5c-37.333 0 -72.333 -7.16699 -105 -21.5s-61.167 -33.666 -85.5 -57.999s-43.5 -52.666 -57.5 -84.999s-21 -66.833 -21 -103.5
c0 -36 7 -70.333 21 -103s33.167 -61.167 57.5 -85.5s52.833 -43.666 85.5 -57.999s67.667 -21.5 105 -21.5c36.667 0 71.334 7.16699 104.001 21.5s61.167 33.666 85.5 57.999s43.5 52.833 57.5 85.5s21 67 21 103z" />
    <glyph glyph-name="omacron" unicode="&#x14d;" 
d="M564 650h-434v115h434v-115zM657 289c0 -43.333 -8 -83.501 -24 -120.501s-38 -69 -66 -96s-60.833 -48.333 -98.5 -64s-77.834 -23.5 -120.501 -23.5s-82.667 7.83301 -120 23.5s-70 37.167 -98 64.5s-50 59.5 -66 96.5s-24 76.833 -24 119.5
c0 42 8.16699 81.5 24.5 118.5s38.5 69.333 66.5 97s60.667 49.334 98 65.001s77 23.5 119 23.5c42.667 0 82.834 -7.83301 120.501 -23.5s70.5 -37 98.5 -64s50 -59.167 66 -96.5s24 -77.333 24 -120zM513 288.999c0 24.667 -4.33301 47.667 -13 69s-20.5 40 -35.5 56
s-32.5 28.5 -52.5 37.5s-41.333 13.5 -64 13.5s-44 -4.5 -64 -13.5s-37.5 -21.5 -52.5 -37.5s-26.833 -34.667 -35.5 -56s-13 -44.333 -13 -69s4.33301 -47.667 13 -69s20.5 -40 35.5 -56s32.5 -28.5 52.5 -37.5s41.333 -13.5 64 -13.5s44 4.5 64 13.5s37.5 21.5 52.5 37.5
s26.833 34.667 35.5 56s13 44.333 13 69z" />
    <glyph glyph-name="_296" unicode="&#x150;" horiz-adv-x="939" 
d="M761 1064l-148 -192h-103l83 192h168zM542 1064l-148 -192h-103l83 192h168zM899 400c0 -57.333 -11.167 -111.331 -33.5 -161.998s-52.833 -94.667 -91.5 -132s-83.667 -66.833 -135 -88.5s-106 -32.5 -164 -32.5s-112.833 10.833 -164.5 32.5
s-96.834 51.167 -135.501 88.5s-69.167 81.166 -91.5 131.499s-33.5 104.5 -33.5 162.5s11.167 112.333 33.5 163s52.833 94.667 91.5 132s83.834 66.666 135.501 87.999s106.5 32 164.5 32s112.667 -10.667 164 -32s96.333 -50.833 135 -88.5s69.167 -81.667 91.5 -132
s33.5 -104.5 33.5 -162.5zM743 400.002c0 36.667 -7 71.167 -21 103.5s-33.167 60.666 -57.5 84.999s-52.833 43.666 -85.5 57.999s-67.334 21.5 -104.001 21.5c-37.333 0 -72.333 -7.16699 -105 -21.5s-61.167 -33.666 -85.5 -57.999s-43.5 -52.666 -57.5 -84.999
s-21 -66.833 -21 -103.5c0 -36 7 -70.333 21 -103s33.167 -61.167 57.5 -85.5s52.833 -43.666 85.5 -57.999s67.667 -21.5 105 -21.5c36.667 0 71.334 7.16699 104.001 21.5s61.167 33.666 85.5 57.999s43.5 52.833 57.5 85.5s21 67 21 103z" />
    <glyph glyph-name="ohungarumlaut" unicode="&#x151;" 
d="M630 842l-149 -192h-103l84 192h168zM411 842l-149 -192h-103l84 192h168zM657 289c0 -43.333 -8 -83.501 -24 -120.501s-38 -69 -66 -96s-60.833 -48.333 -98.5 -64s-77.834 -23.5 -120.501 -23.5s-82.667 7.83301 -120 23.5s-70 37.167 -98 64.5s-50 59.5 -66 96.5
s-24 76.833 -24 119.5c0 42 8.16699 81.5 24.5 118.5s38.5 69.333 66.5 97s60.667 49.334 98 65.001s77 23.5 119 23.5c42.667 0 82.834 -7.83301 120.501 -23.5s70.5 -37 98.5 -64s50 -59.167 66 -96.5s24 -77.333 24 -120zM513 288.999c0 24.667 -4.33301 47.667 -13 69
s-20.5 40 -35.5 56s-32.5 28.5 -52.5 37.5s-41.333 13.5 -64 13.5s-44 -4.5 -64 -13.5s-37.5 -21.5 -52.5 -37.5s-26.833 -34.667 -35.5 -56s-13 -44.333 -13 -69s4.33301 -47.667 13 -69s20.5 -40 35.5 -56s32.5 -28.5 52.5 -37.5s41.333 -13.5 64 -13.5s44 4.5 64 13.5
s37.5 21.5 52.5 37.5s26.833 34.667 35.5 56s13 44.333 13 69z" />
    <glyph glyph-name="OE" unicode="&#x152;" horiz-adv-x="1311" 
d="M1271 0l-528 0.000976562v79c-36.667 -30 -77.834 -53.167 -123.501 -69.5s-93.834 -24.5 -144.501 -24.5c-58 0 -112.833 10.833 -164.5 32.5s-96.834 51.167 -135.501 88.5s-69.167 81.166 -91.5 131.499s-33.5 104.5 -33.5 162.5s11.167 112.333 33.5 163
s52.833 94.667 91.5 132s83.834 66.666 135.501 87.999s106.5 32 164.5 32c50.667 0 98.834 -8.16699 144.501 -24.5s86.834 -39.166 123.501 -68.499v77h528v-128h-376v-191h371v-125h-371v-220h376v-135zM743 400.001c0 36.667 -7 71.167 -21 103.5
s-33.167 60.666 -57.5 84.999s-52.833 43.666 -85.5 57.999s-67.334 21.5 -104.001 21.5c-37.333 0 -72.333 -7.16699 -105 -21.5s-61.167 -33.666 -85.5 -57.999s-43.5 -52.666 -57.5 -84.999s-21 -66.833 -21 -103.5c0 -36 7 -70.333 21 -103s33.167 -61.167 57.5 -85.5
s52.833 -43.666 85.5 -57.999s67.667 -21.5 105 -21.5c36.667 0 71.334 7.16699 104.001 21.5s61.167 33.666 85.5 57.999s43.5 52.833 57.5 85.5s21 67 21 103z" />
    <glyph glyph-name="oe" unicode="&#x153;" horiz-adv-x="1141" 
d="M1111 290c0 -9.33301 -0.500977 -19.001 -1.50098 -29.001s-2.16699 -20.333 -3.5 -31h-462c5.33301 -16.667 12.833 -32.5 22.5 -47.5s21.5 -28 35.5 -39s29.833 -19.667 47.5 -26s37.167 -9.5 58.5 -9.5c26 0 52 4.5 78 13.5s47.667 21.167 65 36.5l91 -91
c-40 -30 -79.167 -51.167 -117.5 -63.5s-78.833 -18.5 -121.5 -18.5c-46 0 -88.333 8.5 -127 25.5s-72 40.5 -100 70.5c-28 -30 -61.5 -53.5 -100.5 -70.5s-81.5 -25.5 -127.5 -25.5c-42.667 0 -82.667 7.83301 -120 23.5s-70 37.167 -98 64.5s-50 59.5 -66 96.5
s-24 76.833 -24 119.5c0 42 8.16699 81.5 24.5 118.5s38.5 69.333 66.5 97s60.667 49.334 98 65.001s77 23.5 119 23.5c46 0 88.5 -8.66699 127.5 -26s72.5 -41 100.5 -71c28 30 61.5 53.667 100.5 71s80.833 26 125.5 26c40.667 0 79.667 -7.5 117 -22.5
s70.333 -35.833 99 -62.5s51.334 -58.5 68.001 -95.5s25 -77.833 25 -122.5zM959.999 345.999c-11.333 36.667 -31.5 66.167 -60.5 88.5s-61.833 33.5 -98.5 33.5c-36 0 -68.333 -11.167 -97 -33.5s-48.667 -51.833 -60 -88.5h316zM512.999 288.999
c0 24.667 -4.33301 47.667 -13 69s-20.5 40 -35.5 56s-32.5 28.5 -52.5 37.5s-41.333 13.5 -64 13.5s-44 -4.5 -64 -13.5s-37.5 -21.5 -52.5 -37.5s-26.833 -34.667 -35.5 -56s-13 -44.333 -13 -69s4.33301 -47.667 13 -69s20.5 -40 35.5 -56s32.5 -28.5 52.5 -37.5
s41.333 -13.5 64 -13.5s44 4.5 64 13.5s37.5 21.5 52.5 37.5s26.833 34.667 35.5 56s13 44.333 13 69z" />
    <glyph glyph-name="Racute" unicode="&#x154;" horiz-adv-x="697" 
d="M497 1064l-144 -193h-106l90 193h160zM682 0h-170.998l-57 182c-6 20 -13.5 38.333 -22.5 55s-19.833 31 -32.5 43s-27.834 21.333 -45.501 28s-38.5 10 -62.5 10h-58v-318h-153v799l316 1c34 0 65.667 -5.83301 95 -17.5s54.666 -27.834 75.999 -48.501s38 -45 50 -73
s18 -58.333 18 -91c0 -23.333 -3.66699 -46 -11 -68s-17.666 -42.333 -30.999 -61s-29.166 -35.167 -47.499 -49.5s-38.5 -25.166 -60.5 -32.499c25.333 -9.33301 46 -22.833 62 -40.5s28.667 -38.834 38 -63.501c4.66699 -11.333 9 -22.666 13 -33.999l12.5 -35.5l14 -40
l16.5 -47.5c7.33301 -22 14.166 -40.833 20.499 -56.5s13.166 -29.5 20.499 -41.5zM479.002 559c0 18.667 -3.5 35.668 -10.5 51.001s-16.5 28.666 -28.5 39.999s-26.167 20.166 -42.5 26.499s-33.833 9.5 -52.5 9.5h-112v-249h112c18.667 0 36.167 2.83301 52.5 8.5
s30.5 13.834 42.5 24.501s21.5 23.5 28.5 38.5s10.5 31.833 10.5 50.5z" />
    <glyph glyph-name="racute" unicode="&#x155;" horiz-adv-x="466" 
d="M406 843l-144 -193h-106l90 193h160zM476 518l-76.9971 -121.999c-14 15.333 -29.5 28.833 -46.5 40.5s-34.167 17.5 -51.5 17.5c-9.33301 0 -19.5 -2.16699 -30.5 -6.5s-21.333 -11.5 -31 -21.5s-17.834 -23.167 -24.501 -39.5s-10 -36.5 -10 -60.5v-326h-145v578h145
v-62c17.333 24.667 36.5 43.667 57.5 57s44.5 20 70.5 20c25.333 0 50.166 -6.83301 74.499 -20.5s47.166 -31.834 68.499 -54.501z" />
    <glyph glyph-name="Rcaron" unicode="&#x158;" horiz-adv-x="697" 
d="M528 1063l-129 -192h-129l-129 192h108l85 -84l86 84h108zM682 0h-170.998l-57 182c-6 20 -13.5 38.333 -22.5 55s-19.833 31 -32.5 43s-27.834 21.333 -45.501 28s-38.5 10 -62.5 10h-58v-318h-153v799l316 1c34 0 65.667 -5.83301 95 -17.5
s54.666 -27.834 75.999 -48.501s38 -45 50 -73s18 -58.333 18 -91c0 -23.333 -3.66699 -46 -11 -68s-17.666 -42.333 -30.999 -61s-29.166 -35.167 -47.499 -49.5s-38.5 -25.166 -60.5 -32.499c25.333 -9.33301 46 -22.833 62 -40.5s28.667 -38.834 38 -63.501
c4.66699 -11.333 9 -22.666 13 -33.999l12.5 -35.5l14 -40l16.5 -47.5c7.33301 -22 14.166 -40.833 20.499 -56.5s13.166 -29.5 20.499 -41.5zM479.002 559c0 18.667 -3.5 35.668 -10.5 51.001s-16.5 28.666 -28.5 39.999s-26.167 20.166 -42.5 26.499
s-33.833 9.5 -52.5 9.5h-112v-249h112c18.667 0 36.167 2.83301 52.5 8.5s30.5 13.834 42.5 24.501s21.5 23.5 28.5 38.5s10.5 31.833 10.5 50.5z" />
    <glyph glyph-name="rcaron" unicode="&#x159;" horiz-adv-x="466" 
d="M446 843l-129 -193h-128l-130 193h108l86 -85l86 85h107zM476 518l-76.9971 -121.999c-14 15.333 -29.5 28.833 -46.5 40.5s-34.167 17.5 -51.5 17.5c-9.33301 0 -19.5 -2.16699 -30.5 -6.5s-21.333 -11.5 -31 -21.5s-17.834 -23.167 -24.501 -39.5s-10 -36.5 -10 -60.5
v-326h-145v578h145v-62c17.333 24.667 36.5 43.667 57.5 57s44.5 20 70.5 20c25.333 0 50.166 -6.83301 74.499 -20.5s47.166 -31.834 68.499 -54.501z" />
    <glyph glyph-name="Sacute" unicode="&#x15a;" horiz-adv-x="644" 
d="M489 1064l-144 -193h-106l90 193h160zM614 210c0 -30 -6.50488 -58.498 -19.5049 -85.498s-31.167 -50.833 -54.5 -71.5s-51 -37.167 -83 -49.5s-67.333 -18.5 -106 -18.5c-34.667 0 -65.834 2 -93.501 6s-53.667 10.333 -78 19s-47.666 19.834 -69.999 33.501
s-45.5 30.167 -69.5 49.5l110 111c32 -26.667 63.333 -45.5 94 -56.5s64 -16.5 100 -16.5c14.667 0 28.5 2.16699 41.5 6.5s24.333 10.166 34 17.499s17.334 16 23.001 26s8.5 21 8.5 33c0 12.667 -2.33301 24 -7 34s-13 19.667 -25 29s-28.667 18.833 -50 28.5
s-48.666 20.5 -81.999 32.5c-29.333 10.667 -57.5 22.834 -84.5 36.501s-50.667 30.167 -71 49.5s-36.666 42 -48.999 68s-18.5 56.667 -18.5 92c0 34 6.83301 65.333 20.5 94s32.334 53.167 56.001 73.5s51.334 36.166 83.001 47.499s65.834 17 102.501 17
c61.333 0 113 -8 155 -24s79.333 -39.333 112 -70l-108 -109c-20 19.333 -42.333 34.166 -67 44.499s-53.667 15.5 -87 15.5c-15.333 0 -29.5 -2.33301 -42.5 -7s-24.167 -10.834 -33.5 -18.501s-16.833 -16.667 -22.5 -27s-8.5 -21.166 -8.5 -32.499
c0 -12.667 2.66699 -24.167 8 -34.5s14.333 -20.333 27 -30s29.5 -19.334 50.5 -29.001s47.167 -20.167 78.5 -31.5c40 -14 74.333 -29.333 103 -46s52.167 -35 70.5 -55s31.666 -42.5 39.999 -67.5s12.5 -53.167 12.5 -84.5z" />
    <glyph glyph-name="sacute" unicode="&#x15b;" horiz-adv-x="513" 
d="M408 843l-144 -193h-106l90 193h160zM483 162c0 -28.667 -6.66992 -54.1699 -20.0029 -76.5029s-30.666 -41 -51.999 -56s-45.333 -26.333 -72 -34s-53 -11.5 -79 -11.5c-44 0 -84.5 8.16699 -121.5 24.5s-69.5 42.5 -97.5 78.5l87 88
c17.333 -22 37.333 -39.167 60 -51.5s47 -18.5 73 -18.5c22.667 0 41.5 4.16699 56.5 12.5s22.5 20.833 22.5 37.5c0 17.333 -10.667 31.833 -32 43.5s-51.333 23.167 -90 34.5c-22.667 6.66699 -44.667 15.167 -66 25.5s-40.333 23 -57 38s-30 32.167 -40 51.5
s-15 41.666 -15 66.999c0 28 6.5 53.167 19.5 75.5s30 41 51 56s44.833 26.5 71.5 34.5s53.667 12 81 12c88 0 160 -33.333 216 -100l-86 -87c-16.667 20.667 -35.667 37 -57 49s-44.666 18 -69.999 18c-8.66699 0 -17.834 -1.16699 -27.501 -3.5
s-18.667 -5.66602 -27 -9.99902s-15.166 -10 -20.499 -17s-8 -14.833 -8 -23.5c0 -15.333 10.167 -28.666 30.5 -39.999s49.5 -22.666 87.5 -33.999c24.667 -7.33301 48 -16.666 70 -27.999s41.333 -24.5 58 -39.5s29.834 -32 39.501 -51s14.5 -40.5 14.5 -64.5z" />
    <glyph glyph-name="Scedilla" unicode="&#x15e;" horiz-adv-x="644" 
d="M614 210c0 -28 -5.66504 -54.667 -16.998 -80s-27.333 -48.166 -48 -68.499s-45.334 -37.166 -74.001 -50.499s-60.334 -21.666 -95.001 -24.999l-10 -43c33.333 -5.33301 57.833 -18 73.5 -38s23.5 -41.667 23.5 -65c0 -11.333 -2.5 -22.666 -7.5 -33.999
s-12.333 -21.666 -22 -30.999s-21 -17 -34 -23s-27.5 -9 -43.5 -9c-20.667 0 -38.834 2.33301 -54.501 7s-30.5 12.667 -44.5 24l7 34c5.33301 -3.33301 11.666 -6.16602 18.999 -8.49902s14.333 -3.5 21 -3.5c17.333 0 31.666 5.16699 42.999 15.5s17 22.166 17 35.499
c0 15.333 -5.5 28.333 -16.5 39s-25.5 16 -43.5 16c-4 0 -8.16699 -0.333008 -12.5 -1s-8.16602 -1.33398 -11.499 -2.00098l17 88c-27.333 1.33301 -52.333 4.5 -75 9.5s-44.334 11.833 -65.001 20.5s-40.834 19.167 -60.501 31.5s-39.834 27.166 -60.501 44.499l110 111
c32 -26.667 63.333 -45.5 94 -56.5s64 -16.5 100 -16.5c14.667 0 28.5 2.16699 41.5 6.5s24.333 10.166 34 17.499s17.334 16 23.001 26s8.5 21 8.5 33c0 12.667 -2.33301 24 -7 34s-13 19.667 -25 29s-28.667 18.833 -50 28.5s-48.666 20.5 -81.999 32.5
c-29.333 10.667 -57.5 22.834 -84.5 36.501s-50.667 30.167 -71 49.5s-36.666 42 -48.999 68s-18.5 56.667 -18.5 92c0 34 6.83301 65.333 20.5 94s32.334 53.167 56.001 73.5s51.334 36.166 83.001 47.499s65.834 17 102.501 17c61.333 0 113 -8 155 -24
s79.333 -39.333 112 -70l-108 -109c-20 19.333 -42.333 34.166 -67 44.499s-53.667 15.5 -87 15.5c-15.333 0 -29.5 -2.33301 -42.5 -7s-24.167 -10.834 -33.5 -18.501s-16.833 -16.667 -22.5 -27s-8.5 -21.166 -8.5 -32.499c0 -12.667 2.66699 -24.167 8 -34.5
s14.333 -20.333 27 -30s29.5 -19.334 50.5 -29.001s47.167 -20.167 78.5 -31.5c40 -14 74.333 -29.333 103 -46s52.167 -35 70.5 -55s31.666 -42.5 39.999 -67.5s12.5 -53.167 12.5 -84.5z" />
    <glyph glyph-name="scedilla" unicode="&#x15f;" horiz-adv-x="513" 
d="M483 162c0 -24 -4.66797 -45.6709 -14.001 -65.0039s-21.666 -36.166 -36.999 -50.499s-33.166 -26.333 -53.499 -36s-41.5 -16.834 -63.5 -21.501l-10 -46c33.333 -5.33301 57.833 -18 73.5 -38s23.5 -41.667 23.5 -65c0 -11.333 -2.5 -22.666 -7.5 -33.999
s-12.333 -21.666 -22 -30.999s-21 -17 -34 -23s-27.5 -9 -43.5 -9c-20.667 0 -38.834 2.33301 -54.501 7s-30.5 12.667 -44.5 24l7 34c5.33301 -3.33301 11.666 -6.16602 18.999 -8.49902s14.333 -3.5 21 -3.5c17.333 0 31.666 5.16699 42.999 15.5s17 22.166 17 35.499
c0 15.333 -5.5 28.333 -16.5 39s-25.5 16 -43.5 16c-4 0 -8.16699 -0.333008 -12.5 -1s-8.16602 -1.33398 -11.499 -2.00098l16 86c-38.667 2.66699 -74.334 12.167 -107.001 28.5s-61.667 40.833 -87 73.5l87 88c17.333 -22 37.333 -39.167 60 -51.5s47 -18.5 73 -18.5
c22.667 0 41.5 4.16699 56.5 12.5s22.5 20.833 22.5 37.5c0 17.333 -10.667 31.833 -32 43.5s-51.333 23.167 -90 34.5c-22.667 6.66699 -44.667 15.167 -66 25.5s-40.333 23 -57 38s-30 32.167 -40 51.5s-15 41.666 -15 66.999c0 28 6.5 53.167 19.5 75.5s30 41 51 56
s44.833 26.5 71.5 34.5s53.667 12 81 12c88 0 160 -33.333 216 -100l-86 -87c-16.667 20.667 -35.667 37 -57 49s-44.666 18 -69.999 18c-8.66699 0 -17.834 -1.16699 -27.501 -3.5s-18.667 -5.66602 -27 -9.99902s-15.166 -10 -20.499 -17s-8 -14.833 -8 -23.5
c0 -15.333 10.167 -28.666 30.5 -39.999s49.5 -22.666 87.5 -33.999c24.667 -7.33301 48 -16.666 70 -27.999s41.333 -24.5 58 -39.5s29.834 -32 39.501 -51s14.5 -40.5 14.5 -64.5z" />
    <glyph glyph-name="Scaron" unicode="&#x160;" horiz-adv-x="644" 
d="M520 1064l-129 -193h-129l-129 193h108l85 -85l86 85h108zM614 210c0 -30 -6.50488 -58.498 -19.5049 -85.498s-31.167 -50.833 -54.5 -71.5s-51 -37.167 -83 -49.5s-67.333 -18.5 -106 -18.5c-34.667 0 -65.834 2 -93.501 6s-53.667 10.333 -78 19
s-47.666 19.834 -69.999 33.501s-45.5 30.167 -69.5 49.5l110 111c32 -26.667 63.333 -45.5 94 -56.5s64 -16.5 100 -16.5c14.667 0 28.5 2.16699 41.5 6.5s24.333 10.166 34 17.499s17.334 16 23.001 26s8.5 21 8.5 33c0 12.667 -2.33301 24 -7 34s-13 19.667 -25 29
s-28.667 18.833 -50 28.5s-48.666 20.5 -81.999 32.5c-29.333 10.667 -57.5 22.834 -84.5 36.501s-50.667 30.167 -71 49.5s-36.666 42 -48.999 68s-18.5 56.667 -18.5 92c0 34 6.83301 65.333 20.5 94s32.334 53.167 56.001 73.5s51.334 36.166 83.001 47.499
s65.834 17 102.501 17c61.333 0 113 -8 155 -24s79.333 -39.333 112 -70l-108 -109c-20 19.333 -42.333 34.166 -67 44.499s-53.667 15.5 -87 15.5c-15.333 0 -29.5 -2.33301 -42.5 -7s-24.167 -10.834 -33.5 -18.501s-16.833 -16.667 -22.5 -27s-8.5 -21.166 -8.5 -32.499
c0 -12.667 2.66699 -24.167 8 -34.5s14.333 -20.333 27 -30s29.5 -19.334 50.5 -29.001s47.167 -20.167 78.5 -31.5c40 -14 74.333 -29.333 103 -46s52.167 -35 70.5 -55s31.666 -42.5 39.999 -67.5s12.5 -53.167 12.5 -84.5z" />
    <glyph glyph-name="scaron" unicode="&#x161;" horiz-adv-x="513" 
d="M456 843l-129 -193h-128l-130 193h108l86 -85l86 85h107zM483 162c0 -28.667 -6.66992 -54.1699 -20.0029 -76.5029s-30.666 -41 -51.999 -56s-45.333 -26.333 -72 -34s-53 -11.5 -79 -11.5c-44 0 -84.5 8.16699 -121.5 24.5s-69.5 42.5 -97.5 78.5l87 88
c17.333 -22 37.333 -39.167 60 -51.5s47 -18.5 73 -18.5c22.667 0 41.5 4.16699 56.5 12.5s22.5 20.833 22.5 37.5c0 17.333 -10.667 31.833 -32 43.5s-51.333 23.167 -90 34.5c-22.667 6.66699 -44.667 15.167 -66 25.5s-40.333 23 -57 38s-30 32.167 -40 51.5
s-15 41.666 -15 66.999c0 28 6.5 53.167 19.5 75.5s30 41 51 56s44.833 26.5 71.5 34.5s53.667 12 81 12c88 0 160 -33.333 216 -100l-86 -87c-16.667 20.667 -35.667 37 -57 49s-44.666 18 -69.999 18c-8.66699 0 -17.834 -1.16699 -27.501 -3.5
s-18.667 -5.66602 -27 -9.99902s-15.166 -10 -20.499 -17s-8 -14.833 -8 -23.5c0 -15.333 10.167 -28.666 30.5 -39.999s49.5 -22.666 87.5 -33.999c24.667 -7.33301 48 -16.666 70 -27.999s41.333 -24.5 58 -39.5s29.834 -32 39.501 -51s14.5 -40.5 14.5 -64.5z" />
    <glyph glyph-name="uni0162" unicode="&#x162;" horiz-adv-x="649" 
d="M629 661l-219.999 -0.00195312v-661h-36l-13 -57c33.333 -5.33301 57.833 -18 73.5 -38s23.5 -41.667 23.5 -65c0 -11.333 -2.5 -22.666 -7.5 -33.999s-12.333 -21.666 -22 -30.999s-21 -17 -34 -23s-27.5 -9 -43.5 -9c-20.667 0 -38.667 2.33301 -54 7
s-30.333 12.667 -45 24l7 34c5.33301 -3.33301 11.666 -6.16602 18.999 -8.49902s14.333 -3.5 21 -3.5c17.333 0 31.666 5.16699 42.999 15.5s17 22.166 17 35.499c0 15.333 -5.5 28.333 -16.5 39s-25.5 16 -43.5 16c-4 0 -8.16699 -0.333008 -12.5 -1
s-8.16602 -1.66699 -11.499 -3l20 102h-43v661h-221v138h599v-138z" />
    <glyph glyph-name="uni0163" unicode="&#x163;" horiz-adv-x="407" 
d="M382 13c-14.667 -9.33301 -31.667 -16.3359 -51 -21.0029s-38.666 -7 -57.999 -7l-9 -42c33.333 -5.33301 57.833 -18 73.5 -38s23.5 -41.667 23.5 -65c0 -11.333 -2.5 -22.666 -7.5 -33.999s-12.333 -21.666 -22 -30.999s-21 -17 -34 -23s-27.5 -9 -43.5 -9
c-20.667 0 -38.667 2.33301 -54 7s-30.333 12.667 -45 24l7 34c5.33301 -3.33301 11.666 -6.16602 18.999 -8.49902s14.333 -3.5 21 -3.5c17.333 0 31.666 5.16699 42.999 15.5s17 22.166 17 35.499c0 15.333 -5.5 28.333 -16.5 39s-25.5 16 -43.5 16
c-4 0 -8.16699 -0.333008 -12.5 -1s-8.16602 -1.66699 -11.499 -3l18 96c-38.667 11.333 -65.834 33.5 -81.501 66.5s-23.5 78.167 -23.5 135.5v253h-76v65c48.667 19.333 87.667 50 117 92s48 89.333 56 142h47v-169h146v-130h-146v-263c0 -14.667 1.83301 -26.667 5.5 -36
s8.5 -16.666 14.5 -21.999s12.833 -9 20.5 -11s15.834 -3 24.501 -3c11.333 0 24.833 2 40.5 6s29.5 10.667 41.5 20v-127z" />
    <glyph glyph-name="Tcaron" unicode="&#x164;" horiz-adv-x="649" 
d="M522 1064l-129 -193h-129l-129 193h108l85 -85l86 85h108zM629 661h-221v-661h-157v661h-221v138h599v-138z" />
    <glyph glyph-name="tcaron" unicode="&#x165;" horiz-adv-x="534" 
d="M554 681c0 -16 -2.33398 -31.166 -7.00098 -45.499s-11.5 -27 -20.5 -38s-20.333 -19.667 -34 -26s-29.5 -9.5 -47.5 -9.5c-6.66699 0 -13.167 0.666992 -19.5 2s-12.166 2.66602 -17.499 3.99902v11c19.333 3.33301 35 12.333 47 27s18 31.667 18 51
c0 3.33301 -0.333008 7.33301 -1 12s-1.66699 8.66699 -3 12h-64v149h149v-149zM381.999 13.001c-14.667 -9.33301 -31.6689 -16.333 -51.002 -21s-38.666 -7 -57.999 -7c-34 0 -62.667 4.16699 -86 12.5s-42 21.166 -56 38.499s-24.167 39.333 -30.5 66s-9.5 58 -9.5 94
v253h-76v65c46.667 19.333 84.5 48 113.5 86s48.833 87.333 59.5 148h47v-169h146v-130h-146v-263c0 -14.667 1.83301 -26.667 5.5 -36s8.5 -16.666 14.5 -21.999s12.833 -9 20.5 -11s15.834 -3 24.501 -3c11.333 0 25 2 41 6s29.667 10.667 41 20v-127z" />
    </font>
</defs>
</svg>
